<svg width="32" height="34" fill="none" xmlns="http://www.w3.org/2000/svg"><path d="M21.169 25.687l.915-.138a39.927 39.927 0 007.855-2.021l-8.77 2.16zm0 0l.067.923m-.067-.923l.067.923m8.802-3.484h0a14.693 14.693 0 01-3.788-9.87v-1.25a10.25 10.25 0 10-20.5 0v1.249h-1l25.288 9.87zm0 0a.249.249 0 010 .334l.747.666m-.747-1l.747 1m0 0l-.746-.666a.249.249 0 01-.1.068l.846.598zm-9.549 2.484a5.249 5.249 0 01-10.189 2.124 5.252 5.252 0 01-.283-2.124l.068-.922m10.404.922l-10.404-.922m0 0l-.915-.14m.915.14l-.915-.14m0 0a39.973 39.973 0 01-7.855-2.022.25.25 0 01-.156-.174l-.971.24 8.982 1.957zm2.427.295l-1.045-.094-.044 1.048a4.751 4.751 0 109.491 0l-.044-1.048-1.045.094c-2.433.22-4.88.22-7.313 0z" stroke="#795AA0" stroke-width="2"/></svg>