<svg width="392" height="2106" fill="none" xmlns="http://www.w3.org/2000/svg"><g opacity=".4" filter="url(#filter0_f_401_10501)"><path d="M956.115 237.726L921.05 429.903c-9.095 49.847-31.672 82.412-55.921 80.66l-11.268-.814c-35.197-2.543-63.832 65.683-58.111 141.101 5.046 66.529 11.36 138.697 18.078 192.113 15.792 125.585 112.719 9.177 167.464-78.61 54.748-87.787 92.078 48.885 132.348 64.429 40.27 15.544 99.22-83.577 144.95-199.363 45.73-115.785-29.48-307.249-58.12-462.19-28.64-154.94-47.73-248.523-79.83-388.378-32.1-139.856-85.42-256.962-114.08-267.529-19.065-7.032-59.404 102.706-86.231 186.566-9.359 29.258-11.918 65.716-7.706 99.216l45.61 362.691c3.203 25.476 2.46 52.843-2.118 77.931z" fill="#4D31DD"/><path d="M74.692 317.317L40.072 448.64c-10.876 41.251-32.599 63.683-53.713 55.465-30.56-11.894-59.665 39.912-59.024 107.284.486 51.102 1.618 105.196 3.9 146.417 5.762 104.12 88.815 35.414 136.909-20.973 48.094-56.387 70.325 61.946 101.396 84.383 31.071 22.437 83.109-41.943 125.566-122.912 42.456-80.969-6.844-252.452-21.208-383.192-14.364-130.74-24.461-210.152-42.374-329.72-17.913-119.567-53.868-226.277-76.005-241.849-14.094-9.915-49.366 60.602-74.953 119.456-11.242 25.858-16.17 61.044-14.272 95.333L81.95 241.23c1.442 26.047-1.106 52.752-7.258 76.088z" fill="#FFB673"/><path d="M607.627 2517.12c-2.422 5.67-10.987 35.32-21.041 71.31-20.438 73.17-58.758 115.25-98.498 106.34-22.714-5.09-44.433-25.57-59.274-62.56-4.839-12.06-8.616-22.73-9.629-28.73-3.27-19.36-37.264-17.78-86.279-95.79-49.015-78.02-16.775-159.97-11.727-153.06 5.047 6.91 58.84 10.49 88.416-12.93 29.576-23.42 51.585-146.88 55.729-167.08 4.144-20.2 93.735-43.72 147.587-46.83 53.853-3.12 13.008 17.06-2.281 61.58-19.644 57.21 4.385 131.85 37.65 132.35 21.943.33 39.458 1.45 40.43 4.05.505 1.35 1.172 11.45 1.921 26.97 4.63 95.96-52.535 93.03-83.004 164.38z" fill="#6BF6FF"/><path d="M388.373 1960.22c-2.886 6.76-13.093 42.1-25.074 84.99-24.356 87.19-70.022 137.33-117.38 126.72-27.069-6.07-52.951-30.47-70.637-74.55-5.766-14.37-10.267-27.09-11.475-34.24-3.896-23.07-44.407-21.19-102.818-114.16s-19.99-190.63-13.975-182.39c6.014 8.24 70.12 12.49 105.366-15.41 35.245-27.91 61.473-175.03 66.411-199.11 4.938-24.07 111.704-52.1 175.88-55.81 64.175-3.72 15.501 20.33-2.719 73.39-23.41 68.17 5.226 157.13 44.868 157.72 26.149.4 47.022 1.73 48.18 4.82.602 1.61 1.397 13.65 2.289 32.14 5.518 114.36-62.606 110.87-98.916 195.89z" fill="#FFCF54"/><path d="M1079.03 1487.57c-3.19 7.47-14.47 46.53-27.71 93.93-26.92 96.37-77.396 151.8-129.74 140.06-29.919-6.7-58.526-33.67-78.075-82.4-6.373-15.88-11.347-29.93-12.682-37.84-4.307-25.49-49.083-23.42-113.644-126.18-64.561-102.75-22.095-210.7-15.447-201.59 6.648 9.1 77.503 13.81 116.46-17.03 38.957-30.85 67.945-193.47 73.403-220.07 5.459-26.61 123.465-57.592 194.395-61.697 70.94-4.105 17.14 22.476-3 81.117-25.88 75.35 5.77 173.67 49.59 174.33 28.9.44 51.97 1.91 53.25 5.33.67 1.78 1.55 15.09 2.53 35.53 6.1 126.39-69.19 122.53-109.33 216.51z" fill="#37279C"/><path d="M676.089 4249.17c-2.422 5.67-10.987 35.33-21.041 71.31-20.438 73.17-58.758 115.25-98.498 106.34-22.714-5.09-44.433-25.57-59.274-62.56-4.839-12.06-8.616-22.73-9.629-28.73-3.27-19.36-37.264-17.78-86.279-95.79-49.015-78.02-16.775-159.97-11.728-153.06 5.048 6.92 58.841 10.49 88.417-12.93 29.576-23.41 51.585-146.88 55.729-167.08 4.144-20.19 93.735-43.72 147.587-46.83 53.853-3.12 13.008 17.06-2.281 61.58-19.644 57.21 4.385 131.85 37.65 132.36 21.943.33 39.458 1.44 40.43 4.04.505 1.35 1.172 11.45 1.921 26.97 4.63 95.96-52.535 93.03-83.004 164.38z" fill="#6BF6FF"/><path d="M1147.49 3219.62c-3.19 7.47-14.47 46.53-27.71 93.93-26.92 96.37-77.39 151.8-129.738 140.06-29.919-6.7-58.526-33.67-78.075-82.39-6.373-15.89-11.347-29.94-12.682-37.85-4.307-25.49-49.083-23.42-113.644-126.18-64.561-102.75-22.095-210.7-15.447-201.59 6.648 9.1 77.503 13.81 116.46-17.03 38.957-30.85 67.945-193.47 73.403-220.07 5.459-26.61 123.463-57.59 194.403-61.7 70.93-4.1 17.13 22.48-3.01 81.12-25.87 75.35 5.78 173.67 49.59 174.33 28.9.44 51.98 1.91 53.26 5.33.66 1.78 1.54 15.09 2.53 35.53 6.09 126.39-69.2 122.53-109.34 216.51z" fill="#37279C" fill-opacity=".5"/><path d="M278.314 3627.64c-2.886 6.76-13.093 42.1-25.074 84.99-24.356 87.19-70.022 137.34-117.38 126.72-27.069-6.07-52.951-30.47-70.637-74.55-5.767-14.37-10.267-27.09-11.475-34.24-3.896-23.06-44.407-21.19-102.818-114.16-58.411-92.96-19.99-190.63-13.976-182.39 6.015 8.24 70.12 12.5 105.367-15.41 35.245-27.9 61.473-175.03 66.411-199.1 4.938-24.08 111.704-52.11 175.88-55.82 64.175-3.71 15.501 20.33-2.719 73.39-23.41 68.17 5.226 157.13 44.868 157.72 26.148.4 47.022 1.73 48.18 4.82.602 1.61 1.397 13.66 2.289 32.15 5.518 114.35-62.606 110.86-98.916 195.88zm447.602 535.5c-2.885 6.76-13.092 42.1-25.073 84.99-24.357 87.19-70.023 137.33-117.381 126.72-27.068-6.07-52.951-30.47-70.637-74.55-5.766-14.38-10.266-27.09-11.474-34.24-3.897-23.07-44.407-21.19-102.819-114.16-58.411-92.97-19.99-190.64-13.975-182.4 6.015 8.24 70.12 12.5 105.366-15.4 35.246-27.91 61.473-175.04 66.411-199.11 4.939-24.07 111.705-52.1 175.88-55.82 64.176-3.71 15.501 20.34-2.719 73.4-23.409 68.17 5.226 157.12 44.868 157.72 26.149.39 47.022 1.72 48.18 4.82.602 1.61 1.397 13.65 2.29 32.14 5.517 114.36-62.606 110.87-98.917 195.89z" fill="#FFCF54" fill-opacity=".6"/></g><defs><filter id="filter0_f_401_10501" x="-424" y="-832" width="2040" height="5603" filterUnits="userSpaceOnUse" color-interpolation-filters="sRGB"><feFlood flood-opacity="0" result="BackgroundImageFix"/><feBlend in="SourceGraphic" in2="BackgroundImageFix" result="shape"/><feGaussianBlur stdDeviation="171.5" result="effect1_foregroundBlur_401_10501"/></filter></defs></svg>