<svg width="1920" height="6473" fill="none" xmlns="http://www.w3.org/2000/svg"><g opacity=".4" filter="url(#filter0_f_401_9623)"><path d="M1838.98 539.813l-80.92 208.148c-20.99 53.99-73.1 89.262-129.06 87.364l-26-.882c-81.23-2.754-147.32 71.142-134.12 152.829 11.65 72.058 26.22 150.228 41.72 208.078 36.45 136.02 260.14 9.94 386.49-85.14 126.34-95.09 212.49 52.94 305.43 69.78 92.94 16.84 229-90.52 334.53-215.93 105.54-125.408-68.03-332.785-134.13-500.603-66.1-167.817-110.16-269.177-184.24-420.656-74.07-151.479-197.13-278.318-263.27-289.763-44.01-7.616-137.1 111.242-199.02 202.072-21.6 31.689-27.5 71.177-17.78 107.461l105.26 392.834c7.39 27.594 5.68 57.235-4.89 84.408z" fill="#4D31DD"/></g><g opacity=".4" filter="url(#filter1_f_401_9623)"><path d="M-195.209 626.02l-79.9 142.237c-25.098 44.679-75.231 68.975-123.959 60.074-70.531-12.883-137.699 43.229-136.22 116.201 1.122 55.349 3.734 113.938 8.999 158.588 13.298 112.77 204.974 38.35 315.967-22.72s162.3 67.09 234.007 91.4c71.708 24.3 191.804-45.43 289.787-133.13 97.982-87.698-15.794-273.433-48.943-415.039-33.15-141.605-56.454-227.618-97.795-357.123C125.394 137.004 42.417 21.425-8.673 4.558-41.2-6.18-122.602 70.199-181.653 133.944c-25.945 28.007-37.319 66.117-32.939 103.257l36.133 306.407c3.327 28.213-2.552 57.137-16.75 82.413z" fill="#FFB673"/></g><g opacity=".4" filter="url(#filter2_f_401_9623)"><path d="M1034.72 3008.64c-5.59 6.14-25.35 38.27-48.555 77.25-47.169 79.24-135.605 124.82-227.319 115.17-52.422-5.52-102.545-27.69-136.797-67.76-11.167-13.06-19.882-24.62-22.221-31.12-7.547-20.96-85.999-19.26-199.119-103.75-113.12-84.5-38.713-173.27-27.065-165.78 11.648 7.49 135.795 11.36 204.053-14 68.257-25.36 119.049-159.09 128.612-180.96 9.564-21.88 216.328-47.36 340.611-50.74 124.28-3.37 30.02 18.49-5.27 66.71-45.331 61.96 10.13 142.81 86.9 143.35 50.64.36 91.06 1.57 93.3 4.38 1.17 1.46 2.71 12.41 4.44 29.21 10.68 103.94-121.25 100.77-191.57 178.04z" fill="#6BF6FF"/></g><g opacity=".4" filter="url(#filter3_f_401_9623)"><path d="M528.718 2405.46c-6.66 7.32-30.215 45.6-57.866 92.06-56.211 94.43-161.601 148.74-270.896 137.25-62.47-6.58-122.203-33-163.02-80.75-13.308-15.57-23.694-29.34-26.482-37.08-8.993-24.99-102.484-22.96-237.289-123.65s-46.134-206.48-32.253-197.55c13.88 8.92 161.827 13.53 243.169-16.69 81.342-30.23 141.87-189.58 153.267-215.65 11.397-26.08 257.797-56.44 405.905-60.46 148.107-4.02 35.774 22.02-6.275 79.49-54.026 73.84 12.061 170.19 103.549 170.83 60.347.43 108.52 1.87 111.192 5.22 1.389 1.74 3.224 14.79 5.283 34.82 12.734 123.85-144.485 120.07-228.284 212.16z" fill="#FFCF54"/></g><g opacity=".4" filter="url(#filter4_f_401_9623)"><path d="M2122.66 1893.53c-7.36 8.09-33.4 50.4-63.96 101.74-62.13 104.38-178.62 164.41-299.42 151.7-69.05-7.26-135.07-36.47-180.18-89.25-14.71-17.2-26.19-32.42-29.27-40.98-9.94-27.62-113.28-25.37-262.28-136.67-148.99-111.29-50.99-228.22-35.65-218.35 15.35 9.86 178.87 14.96 268.78-18.45 89.9-33.4 156.8-209.54 169.4-238.36 12.6-28.81 284.94-62.37 448.64-66.82 163.7-4.44 39.54 24.35-6.93 87.86-59.72 81.61 13.33 188.11 114.45 188.82 66.7.47 119.94 2.07 122.9 5.77 1.53 1.93 3.56 16.35 5.84 38.48 14.07 136.9-159.7 132.72-252.32 234.51z" fill="#37279C"/></g><g opacity=".4" filter="url(#filter5_f_401_9623)"><path d="M1192.72 4884.64c-5.59 6.14-25.35 38.27-48.55 77.25-47.17 79.24-135.61 124.82-227.324 115.17-52.422-5.52-102.545-27.69-136.797-67.76-11.167-13.06-19.882-24.62-22.221-31.12-7.547-20.96-85.999-19.26-199.119-103.75-113.12-84.5-38.713-173.27-27.065-165.78 11.648 7.49 135.795 11.36 204.053-14 68.257-25.36 119.049-159.09 128.612-180.96 9.564-21.88 216.331-47.36 340.611-50.74 124.28-3.37 30.02 18.49-5.27 66.71-45.33 61.96 10.13 142.81 86.9 143.35 50.64.36 91.06 1.57 93.3 4.38 1.17 1.46 2.71 12.41 4.44 29.21 10.68 103.94-121.25 100.77-191.57 178.04z" fill="#6BF6FF"/></g><g opacity=".4" filter="url(#filter6_f_401_9623)"><path d="M2280.66 3769.53c-7.36 8.09-33.4 50.4-63.96 101.74-62.13 104.38-178.62 164.41-299.42 151.7-69.05-7.26-135.07-36.47-180.18-89.25-14.71-17.2-26.19-32.42-29.27-40.98-9.94-27.62-113.28-25.37-262.28-136.67-148.99-111.29-50.99-228.22-35.65-218.35 15.35 9.86 178.87 14.96 268.78-18.45 89.9-33.4 156.8-209.54 169.4-238.36 12.6-28.81 284.94-62.37 448.64-66.82 163.7-4.44 39.54 24.35-6.93 87.86-59.72 81.61 13.33 188.11 114.45 188.82 66.7.47 119.94 2.07 122.9 5.77 1.53 1.93 3.56 16.35 5.84 38.48 14.07 136.9-159.7 132.72-252.32 234.51z" fill="#37279C" fill-opacity=".5"/></g><g opacity=".4" filter="url(#filter7_f_401_9623)"><path d="M274.718 4211.46c-6.66 7.32-30.215 45.6-57.866 92.06-56.211 94.43-161.601 148.74-270.896 137.25-62.47-6.58-122.203-33-163.02-80.75-13.308-15.57-23.694-29.34-26.482-37.08-8.993-24.99-102.484-22.96-237.289-123.65s-46.134-206.48-32.253-197.55c13.88 8.92 161.827 13.53 243.169-16.69 81.342-30.23 141.87-189.58 153.267-215.65 11.397-26.08 257.797-56.44 405.905-60.46 148.107-4.02 35.774 22.02-6.275 79.49-54.026 73.84 12.061 170.19 103.549 170.83 60.347.43 108.52 1.87 111.192 5.22 1.389 1.74 3.224 14.79 5.283 34.82 12.734 123.85-144.485 120.07-228.284 212.16z" fill="#FFCF54" fill-opacity=".6"/></g><g opacity=".4" filter="url(#filter8_f_401_9623)"><path d="M1307.72 4791.46c-6.66 7.32-30.22 45.6-57.87 92.06-56.21 94.43-161.6 148.74-270.894 137.25-62.47-6.58-122.203-33-163.02-80.75-13.308-15.57-23.694-29.34-26.482-37.08-8.993-24.99-102.484-22.96-237.289-123.65s-46.134-206.48-32.253-197.55c13.88 8.92 161.827 13.53 243.169-16.69 81.342-30.23 141.87-189.58 153.267-215.65 11.397-26.08 257.802-56.44 405.902-60.46 148.11-4.02 35.78 22.02-6.27 79.49-54.03 73.84 12.06 170.19 103.55 170.83 60.34.43 108.52 1.87 111.19 5.22 1.39 1.74 3.22 14.79 5.28 34.82 12.74 123.85-144.48 120.07-228.28 212.16z" fill="#FFCF54" fill-opacity=".6"/></g><defs><filter id="filter0_f_401_9623" x="1124.2" y="-590.311" width="1789.11" height="2188.34" filterUnits="userSpaceOnUse" color-interpolation-filters="sRGB"><feFlood flood-opacity="0" result="BackgroundImageFix"/><feBlend in="SourceGraphic" in2="BackgroundImageFix" result="shape"/><feGaussianBlur stdDeviation="171.5" result="effect1_foregroundBlur_401_9623"/></filter><filter id="filter1_f_401_9623" x="-878.312" y="-339.459" width="1573.73" height="1859.14" filterUnits="userSpaceOnUse" color-interpolation-filters="sRGB"><feFlood flood-opacity="0" result="BackgroundImageFix"/><feBlend in="SourceGraphic" in2="BackgroundImageFix" result="shape"/><feGaussianBlur stdDeviation="171.5" result="effect1_foregroundBlur_401_9623"/></filter><filter id="filter2_f_401_9623" x="-4.127" y="2243.62" width="1574.02" height="1301.72" filterUnits="userSpaceOnUse" color-interpolation-filters="sRGB"><feFlood flood-opacity="0" result="BackgroundImageFix"/><feBlend in="SourceGraphic" in2="BackgroundImageFix" result="shape"/><feGaussianBlur stdDeviation="171.5" result="effect1_foregroundBlur_401_9623"/></filter><filter id="filter3_f_401_9623" x="-643.524" y="1559.54" width="1744.26" height="1419.75" filterUnits="userSpaceOnUse" color-interpolation-filters="sRGB"><feFlood flood-opacity="0" result="BackgroundImageFix"/><feBlend in="SourceGraphic" in2="BackgroundImageFix" result="shape"/><feGaussianBlur stdDeviation="171.5" result="effect1_foregroundBlur_401_9623"/></filter><filter id="filter4_f_401_9623" x="863.105" y="994.648" width="1855.68" height="1497.01" filterUnits="userSpaceOnUse" color-interpolation-filters="sRGB"><feFlood flood-opacity="0" result="BackgroundImageFix"/><feBlend in="SourceGraphic" in2="BackgroundImageFix" result="shape"/><feGaussianBlur stdDeviation="171.5" result="effect1_foregroundBlur_401_9623"/></filter><filter id="filter5_f_401_9623" x="153.873" y="4119.62" width="1574.02" height="1301.72" filterUnits="userSpaceOnUse" color-interpolation-filters="sRGB"><feFlood flood-opacity="0" result="BackgroundImageFix"/><feBlend in="SourceGraphic" in2="BackgroundImageFix" result="shape"/><feGaussianBlur stdDeviation="171.5" result="effect1_foregroundBlur_401_9623"/></filter><filter id="filter6_f_401_9623" x="1021.11" y="2870.65" width="1855.68" height="1497.01" filterUnits="userSpaceOnUse" color-interpolation-filters="sRGB"><feFlood flood-opacity="0" result="BackgroundImageFix"/><feBlend in="SourceGraphic" in2="BackgroundImageFix" result="shape"/><feGaussianBlur stdDeviation="171.5" result="effect1_foregroundBlur_401_9623"/></filter><filter id="filter7_f_401_9623" x="-897.524" y="3365.54" width="1744.26" height="1419.75" filterUnits="userSpaceOnUse" color-interpolation-filters="sRGB"><feFlood flood-opacity="0" result="BackgroundImageFix"/><feBlend in="SourceGraphic" in2="BackgroundImageFix" result="shape"/><feGaussianBlur stdDeviation="171.5" result="effect1_foregroundBlur_401_9623"/></filter><filter id="filter8_f_401_9623" x="135.476" y="3945.54" width="1744.26" height="1419.75" filterUnits="userSpaceOnUse" color-interpolation-filters="sRGB"><feFlood flood-opacity="0" result="BackgroundImageFix"/><feBlend in="SourceGraphic" in2="BackgroundImageFix" result="shape"/><feGaussianBlur stdDeviation="171.5" result="effect1_foregroundBlur_401_9623"/></filter></defs></svg>