<svg width="33" height="33" fill="none" xmlns="http://www.w3.org/2000/svg"><rect x="1.153" y="1.154" width="31.346" height="30.634" rx="5.343" stroke="#F6F6F6" stroke-width=".712"/><path d="M22.454 12.84c-.24-2.014-1.995-2.668-4.198-2.833l-.063-2.797-1.703.022.062 2.723c-.448.006-.905.02-1.36.035l-.061-2.741-1.702.02.062 2.797c-.368.012-.73.024-1.083.028v-.008l-2.35.028.042 1.819s1.257-.04 1.236-.017c.69-.008.924.39.997.734l.071 3.186c.048 0 .11.001.18.01l-.18.003.1 4.463c-.025.218-.145.566-.627.572.023.02-1.238.016-1.238.016l-.292 2.037 2.216-.028c.412-.004.818-.002 1.217-.005l.064 2.829 1.7-.021-.062-2.8c.467.005.92.003 1.36-.003l.062 2.786 1.703-.022-.063-2.824c2.86-.2 4.847-.946 5.036-3.637.152-2.167-.888-3.12-2.522-3.49.977-.515 1.573-1.409 1.396-2.882zm-2.247 6.079c.048 2.114-3.578 1.919-4.732 1.934l-.083-3.748c1.154-.014 4.765-.391 4.815 1.814zm-.91-5.279c.042 1.924-2.983 1.737-3.944 1.75l-.076-3.4c.961-.012 3.974-.355 4.02 1.65z" fill="#F6F6F6"/></svg>