<svg width="82" height="82" fill="none" xmlns="http://www.w3.org/2000/svg"><path d="M35.89 9.323a7.083 7.083 0 0110.22 0l.514.536a7.083 7.083 0 006.737 1.989l.71-.168a7.083 7.083 0 018.573 5.508l.173.866a7.083 7.083 0 004.551 5.28l.807.29a7.083 7.083 0 014.212 9.22l-.355.918a7.083 7.083 0 00.98 6.857l.594.776a7.083 7.083 0 01-1.44 10.018l-.75.549a7.083 7.083 0 00-2.873 6.322l.082.945a7.083 7.083 0 01-6.656 7.68l-.781.044a7.083 7.083 0 00-5.88 3.799l-.373.715a7.083 7.083 0 01-9.798 2.876l-.62-.355a7.083 7.083 0 00-7.034 0l-.62.355a7.083 7.083 0 01-9.798-2.876l-.372-.715a7.083 7.083 0 00-5.88-3.8l-.782-.044a7.083 7.083 0 01-6.656-7.679l.082-.945a7.083 7.083 0 00-2.872-6.322l-.75-.55a7.083 7.083 0 01-1.441-10.017l.594-.776a7.083 7.083 0 00.98-6.857l-.355-.919a7.083 7.083 0 014.212-9.22l.807-.289a7.083 7.083 0 004.551-5.28l.173-.866a7.083 7.083 0 018.573-5.508l.71.168a7.083 7.083 0 006.737-1.989l.514-.536z" fill="url(#paint0_linear_247_3510)"/><path d="M35.89 9.323a7.083 7.083 0 0110.22 0l.514.536a7.083 7.083 0 006.737 1.989l.71-.168a7.083 7.083 0 018.573 5.508l.173.866a7.083 7.083 0 004.551 5.28l.807.29a7.083 7.083 0 014.212 9.22l-.355.918a7.083 7.083 0 00.98 6.857l.594.776a7.083 7.083 0 01-1.44 10.018l-.75.549a7.083 7.083 0 00-2.873 6.322l.082.945a7.083 7.083 0 01-6.656 7.68l-.781.044a7.083 7.083 0 00-5.88 3.799l-.373.715a7.083 7.083 0 01-9.798 2.876l-.62-.355a7.083 7.083 0 00-7.034 0l-.62.355a7.083 7.083 0 01-9.798-2.876l-.372-.715a7.083 7.083 0 00-5.88-3.8l-.782-.044a7.083 7.083 0 01-6.656-7.679l.082-.945a7.083 7.083 0 00-2.872-6.322l-.75-.55a7.083 7.083 0 01-1.441-10.017l.594-.776a7.083 7.083 0 00.98-6.857l-.355-.919a7.083 7.083 0 014.212-9.22l.807-.289a7.083 7.083 0 004.551-5.28l.173-.866a7.083 7.083 0 018.573-5.508l.71.168a7.083 7.083 0 006.737-1.989l.514-.536z" fill="url(#paint1_linear_247_3510)" fill-opacity=".1"/><path d="M15.346 41.5c0-14.167 11.485-25.652 25.653-25.652S66.652 27.332 66.652 41.5v.527c0 14.168-11.485 25.654-25.653 25.654S15.346 56.196 15.346 42.028v-.527z" fill="#000" fill-opacity=".04"/><path d="M17.99 41.5c0-12.707 10.302-23.008 23.009-23.008s23.009 10.301 23.009 23.009v.527c0 12.708-10.302 23.009-23.009 23.009S17.99 54.736 17.99 42.028v-.527z" stroke="#fff" stroke-opacity=".3" stroke-width="5.289"/><path opacity=".8" d="M36.772 46.448l-4.926-4.976a1.407 1.407 0 00-2.001 0 1.439 1.439 0 000 2.022l5.934 5.995a1.403 1.403 0 002.001 0l15.018-15.173a1.439 1.439 0 000-2.023 1.407 1.407 0 00-2.001 0L36.772 46.449z" fill="#F6F6F6" stroke="#FDFDFD" stroke-width="1.058"/><path opacity=".3" d="M41 18.676c0-1.478 1.201-2.69 2.672-2.538a26 26 0 11-27.47 18.05c.444-1.41 2.033-2.032 3.39-1.445 1.357.587 1.963 2.16 1.556 3.58A20.647 20.647 0 1043.67 21.527c-1.467-.192-2.67-1.373-2.67-2.851z" fill="url(#paint2_linear_247_3510)"/><path d="M41 18.676c0-1.478 1.201-2.69 2.672-2.538A26 26 0 1122.958 60.72c-1.065-1.026-.913-2.726.217-3.68 1.13-.953 2.808-.794 3.899.203a20.645 20.645 0 0032.65-6.544A20.647 20.647 0 0043.67 21.526c-1.467-.191-2.67-1.372-2.67-2.85z" fill="url(#paint3_linear_247_3510)"/><defs><linearGradient id="paint0_linear_247_3510" x1="12.1" y1="4.837" x2="65.529" y2="81.409" gradientUnits="userSpaceOnUse"><stop stop-color="#FFD979"/><stop offset="1" stop-color="#ECAF17"/></linearGradient><linearGradient id="paint1_linear_247_3510" x1="-8.708" y1="-1.781" x2="47.505" y2="98.554" gradientUnits="userSpaceOnUse"><stop stop-color="#fff"/><stop offset="1" stop-color="#fff" stop-opacity="0"/></linearGradient><linearGradient id="paint2_linear_247_3510" x1="15" y1="41.766" x2="67" y2="41.766" gradientUnits="userSpaceOnUse"><stop stop-color="#FFC208"/><stop offset="1" stop-color="#565656" stop-opacity="0"/></linearGradient><linearGradient id="paint3_linear_247_3510" x1="15" y1="41.766" x2="67" y2="41.766" gradientUnits="userSpaceOnUse"><stop stop-color="#FFC208"/><stop offset="1" stop-color="#FF8E75"/></linearGradient></defs></svg>