<svg width="924" height="541" fill="none" xmlns="http://www.w3.org/2000/svg"><path stroke="#707070" d="M26 489.5h890"/><path d="M8.064 535H6.688l3.616-5.152c-1.68-.272-2.64-1.424-2.64-3.008 0-1.84 1.328-3.04 3.52-3.04h5.024V535h-1.184v-5.04H11.6L8.064 535zm3.2-6.112h3.76v-4.016h-3.76c-1.536 0-2.432.736-2.432 2.016s.896 2 2.432 2zm9.03 6.112H19.14v-7.728h1.152v3.248h4.752v-3.248h1.152V535h-1.152v-3.44h-4.752V535zm12.964 0h-4.336v-7.728h4.064c1.489 0 2.337.8 2.337 1.968 0 .832-.32 1.392-.96 1.696.976.288 1.471.944 1.471 1.984 0 1.28-.928 2.08-2.576 2.08zm-3.184-3.488v2.48h2.945c1.04 0 1.648-.448 1.648-1.232s-.608-1.248-1.648-1.248h-2.944zm0-3.232v2.272h2.592c.96 0 1.52-.416 1.52-1.136 0-.752-.56-1.136-1.52-1.136h-2.591zm10.69 5.872c1.105 0 2.129-.592 2.689-1.296v-1.072c-.784-.512-1.632-.768-2.512-.768-1.408 0-2.288.592-2.288 1.552 0 1.04.912 1.584 2.112 1.584zm-.32 1.04c-.815 0-1.52-.224-2.095-.672-.56-.464-.848-1.088-.848-1.888 0-.784.304-1.408.896-1.872.608-.464 1.36-.688 2.272-.688 1.008 0 1.936.256 2.784.752v-.768c0-1.296-.848-1.936-2.544-1.936-.912 0-1.744.256-2.528.784v-1.12c.752-.464 1.664-.704 2.768-.704 2.064 0 3.456.992 3.456 2.864v3.184c0 .592.288.96.736.96.176 0 .32-.032.448-.096v.896c-.16.112-.416.176-.768.176-.752 0-1.328-.4-1.456-1.232-.784.912-1.824 1.36-3.12 1.36zm8.365-1.424v4.432h-1.152v-10.928h1.152v1.232c.72-.944 1.712-1.424 2.992-1.424 1.136 0 2.08.4 2.8 1.184.72.784 1.088 1.744 1.088 2.864 0 1.136-.368 2.096-1.088 2.88-.72.784-1.664 1.184-2.8 1.184-1.28 0-2.272-.48-2.992-1.424zm0-3.904v2.544c.448 1.024 1.552 1.744 2.72 1.744.848 0 1.568-.288 2.128-.864.56-.592.848-1.312.848-2.16 0-.848-.288-1.568-.848-2.144-.56-.576-1.28-.864-2.128-.864-1.168 0-2.256.736-2.72 1.744zM61.733 535h-3.904v-7.728h1.152v2.592h2.704c1.808 0 2.944 1.008 2.944 2.56 0 1.52-1.056 2.576-2.896 2.576zm-2.752-4.128v3.12h2.544c1.216 0 1.936-.576 1.936-1.552 0-1.008-.72-1.568-1.936-1.568H58.98zm30.891 4.464h-1.184v-1.152c-1.824-.032-3.216-.512-4.16-1.424-.944-.912-1.408-2.048-1.408-3.376 0-1.328.464-2.448 1.408-3.392s2.336-1.424 4.16-1.456v-1.024h1.184v1.024c1.824.032 3.216.512 4.16 1.44.944.928 1.424 2.064 1.424 3.392 0 1.328-.48 2.448-1.424 3.376-.944.928-2.336 1.408-4.16 1.44v1.152zm-1.184-2.224v-7.504c-1.472.016-2.56.384-3.28 1.104-.72.72-1.072 1.616-1.072 2.656s.352 1.92 1.072 2.64c.72.72 1.808 1.088 3.28 1.104zm1.184-7.504v7.504c3.2-.048 4.368-1.872 4.368-3.744 0-1.04-.352-1.936-1.072-2.656-.72-.72-1.808-1.088-3.296-1.104zm11.778 9.584c-1.2 0-2.224-.384-3.04-1.136-.816-.752-1.216-1.728-1.216-2.912 0-1.168.368-2.128 1.088-2.896.736-.784 1.68-1.168 2.832-1.168 2.592 0 3.616 2.272 3.616 4.016v.32h-6.352c.128 1.664 1.44 2.736 3.296 2.736a4.53 4.53 0 002.48-.72v1.024c-.64.496-1.536.736-2.704.736zm-3.056-4.72h5.168a2.642 2.642 0 00-.672-1.616c-.4-.496-1.008-.736-1.824-.736-.784 0-1.408.24-1.888.704-.464.464-.736 1.008-.784 1.648zM111.43 535h-4.336v-7.728h4.064c1.488 0 2.336.8 2.336 1.968 0 .832-.32 1.392-.96 1.696.976.288 1.472.944 1.472 1.984 0 1.28-.928 2.08-2.576 2.08zm-3.184-3.488v2.48h2.944c1.04 0 1.648-.448 1.648-1.232s-.608-1.248-1.648-1.248h-2.944zm0-3.232v2.272h2.592c.96 0 1.52-.416 1.52-1.136 0-.752-.56-1.136-1.52-1.136h-2.592zm9.235 5.488v4.432h-1.152v-10.928h1.152v1.232c.72-.944 1.712-1.424 2.992-1.424 1.136 0 2.08.4 2.8 1.184.72.784 1.088 1.744 1.088 2.864 0 1.136-.368 2.096-1.088 2.88-.72.784-1.664 1.184-2.8 1.184-1.28 0-2.272-.48-2.992-1.424zm0-3.904v2.544c.448 1.024 1.552 1.744 2.72 1.744.848 0 1.568-.288 2.128-.864.56-.592.848-1.312.848-2.16 0-.848-.288-1.568-.848-2.144-.56-.576-1.28-.864-2.128-.864-1.168 0-2.256.736-2.72 1.744zm11.628 4.288c1.104 0 2.128-.592 2.688-1.296v-1.072c-.784-.512-1.632-.768-2.512-.768-1.408 0-2.288.592-2.288 1.552 0 1.04.912 1.584 2.112 1.584zm-.32 1.04c-.816 0-1.52-.224-2.096-.672-.56-.464-.848-1.088-.848-1.888 0-.784.304-1.408.896-1.872.608-.464 1.36-.688 2.272-.688 1.008 0 1.936.256 2.784.752v-.768c0-1.296-.848-1.936-2.544-1.936-.912 0-1.744.256-2.528.784v-1.12c.752-.464 1.664-.704 2.768-.704 2.064 0 3.456.992 3.456 2.864v3.184c0 .592.288.96.736.96.176 0 .32-.032.448-.096v.896c-.16.112-.416.176-.768.176-.752 0-1.328-.4-1.456-1.232-.784.912-1.824 1.36-3.12 1.36zm6.188-.192v-1.056c.08.016.176.016.304.016.688 0 1.136-.448 1.376-1.28.256-.848.336-1.68.384-2.944l.064-2.464h5.776V535h-1.152v-6.72h-3.52l-.048 1.488c-.016.48-.032.896-.064 1.248-.064.704-.192 1.68-.464 2.304-.352.928-1.104 1.76-2.32 1.696-.144 0-.256 0-.336-.016zm14.521 0h-3.904v-7.728h1.152v2.592h2.704c1.808 0 2.944 1.008 2.944 2.56 0 1.52-1.056 2.576-2.896 2.576zm-2.752-4.128v3.12h2.544c1.216 0 1.936-.576 1.936-1.552 0-1.008-.72-1.568-1.936-1.568h-2.544zM172.752 535h-1.168v-11.2h1.168l4.048 5.424 4.048-5.424H182V535h-1.168v-9.408l-3.664 4.896h-.72l-3.696-4.896V535zm14.779-.848c1.104 0 2.128-.592 2.688-1.296v-1.072c-.784-.512-1.632-.768-2.512-.768-1.408 0-2.288.592-2.288 1.552 0 1.04.912 1.584 2.112 1.584zm-.32 1.04c-.816 0-1.52-.224-2.096-.672-.56-.464-.848-1.088-.848-1.888 0-.784.304-1.408.896-1.872.608-.464 1.36-.688 2.272-.688 1.008 0 1.936.256 2.784.752v-.768c0-1.296-.848-1.936-2.545-1.936-.911 0-1.743.256-2.527.784v-1.12c.752-.464 1.664-.704 2.768-.704 2.064 0 3.456.992 3.456 2.864v3.184c0 .592.288.96.736.96.176 0 .32-.032.448-.096v.896c-.16.112-.416.176-.769.176-.751 0-1.327-.4-1.455-1.232-.784.912-1.824 1.36-3.12 1.36zm8.364-1.424v4.432h-1.152v-10.928h1.152v1.232c.72-.944 1.711-1.424 2.992-1.424 1.136 0 2.08.4 2.8 1.184.72.784 1.088 1.744 1.088 2.864 0 1.136-.368 2.096-1.088 2.88-.72.784-1.664 1.184-2.8 1.184-1.281 0-2.272-.48-2.992-1.424zm0-3.904v2.544c.448 1.024 1.552 1.744 2.72 1.744.848 0 1.568-.288 2.128-.864.56-.592.848-1.312.848-2.16 0-.848-.288-1.568-.848-2.144-.56-.576-1.28-.864-2.128-.864-1.168 0-2.256.736-2.72 1.744zM207.337 535h-1.152v-6.72h-2.8v-1.008h6.752v1.008h-2.8V535zm21.375 0h-1.232l4.992-11.264h1.104L238.584 535h-1.248l-1.392-3.088h-5.872l-1.36 3.088zm4.304-9.776l-2.544 5.648h5.088l-2.544-5.648zm8.543 9.776h-1.152v-7.728h6.944V535h-1.152v-6.72h-4.64V535zm9.656-1.232v4.432h-1.152v-10.928h1.152v1.232c.72-.944 1.712-1.424 2.992-1.424 1.136 0 2.08.4 2.8 1.184.72.784 1.088 1.744 1.088 2.864 0 1.136-.368 2.096-1.088 2.88-.72.784-1.664 1.184-2.8 1.184-1.28 0-2.272-.48-2.992-1.424zm0-3.904v2.544c.448 1.024 1.552 1.744 2.72 1.744.848 0 1.568-.288 2.128-.864.56-.592.848-1.312.848-2.16 0-.848-.288-1.568-.848-2.144-.56-.576-1.28-.864-2.128-.864-1.168 0-2.256.736-2.72 1.744zm12.716 5.328c-1.2 0-2.224-.384-3.04-1.136-.816-.752-1.216-1.728-1.216-2.912 0-1.168.368-2.128 1.088-2.896.736-.784 1.68-1.168 2.832-1.168 2.592 0 3.616 2.272 3.616 4.016v.32h-6.352c.128 1.664 1.44 2.736 3.296 2.736a4.53 4.53 0 002.48-.72v1.024c-.64.496-1.536.736-2.704.736zm-3.056-4.72h5.168a2.642 2.642 0 00-.672-1.616c-.4-.496-1.008-.736-1.824-.736-.784 0-1.408.24-1.888.704-.464.464-.736 1.008-.784 1.648zm7.367 4.528v-1.056c.08.016.176.016.304.016.688 0 1.136-.448 1.376-1.28.256-.848.336-1.68.384-2.944l.064-2.464h5.776V535h-1.152v-6.72h-3.52l-.048 1.488c-.016.48-.032.896-.064 1.248-.064.704-.192 1.68-.464 2.304-.352.928-1.104 1.76-2.32 1.696-.144 0-.256 0-.336-.016zm14.522 0h-3.904v-7.728h1.152v2.592h2.704c1.808 0 2.944 1.008 2.944 2.56 0 1.52-1.056 2.576-2.896 2.576zm-2.752-4.128v3.12h2.544c1.216 0 1.936-.576 1.936-1.552 0-1.008-.72-1.568-1.936-1.568h-2.544zm25.74 4.128h-1.168v-11.2h1.168l4.048 5.424 4.048-5.424H315V535h-1.168v-9.408l-3.664 4.896h-.72l-3.696-4.896V535zm14.779-.848c1.104 0 2.128-.592 2.688-1.296v-1.072c-.784-.512-1.632-.768-2.512-.768-1.408 0-2.288.592-2.288 1.552 0 1.04.912 1.584 2.112 1.584zm-.32 1.04c-.816 0-1.52-.224-2.096-.672-.56-.464-.848-1.088-.848-1.888 0-.784.304-1.408.896-1.872.608-.464 1.36-.688 2.272-.688 1.008 0 1.936.256 2.784.752v-.768c0-1.296-.848-1.936-2.545-1.936-.911 0-1.743.256-2.527.784v-1.12c.752-.464 1.664-.704 2.768-.704 2.064 0 3.456.992 3.456 2.864v3.184c0 .592.288.96.736.96.176 0 .32-.032.448-.096v.896c-.16.112-.416.176-.769.176-.751 0-1.327-.4-1.455-1.232-.784.912-1.824 1.36-3.12 1.36zm8.284-.192h-1.072v-7.728h1.152v6.032l4.944-6.032h1.072V535h-1.152v-6.016L328.495 535zm2.528-9.04c-1.552 0-2.609-.96-2.624-2.432h1.024c0 .88.624 1.504 1.584 1.504.944 0 1.568-.624 1.584-1.504h1.008c-.016 1.472-1.104 2.432-2.576 2.432zm23.553 9.04h-.992v-11.2h1.168v9.216l6.96-9.216h1.04V535h-1.168v-9.248L354.576 535zm17.945.192c-1.024 0-1.888-.336-2.592-1.008-.704-.672-1.104-1.52-1.2-2.56h-1.904V535h-1.152v-7.728h1.152v3.312h1.92c.096-1.008.496-1.856 1.2-2.512.704-.656 1.568-.992 2.576-.992 1.12 0 2.048.384 2.768 1.168.736.784 1.104 1.744 1.104 2.896 0 1.136-.368 2.096-1.104 2.88-.72.784-1.648 1.168-2.768 1.168zm0-1.04c.8 0 1.456-.288 1.968-.864.512-.576.768-1.296.768-2.144 0-.864-.256-1.584-.768-2.16-.512-.576-1.168-.864-1.968-.864-.784 0-1.44.288-1.952.864-.512.576-.768 1.296-.768 2.16 0 .848.256 1.568.768 2.144.512.576 1.168.864 1.952.864zm7.163.848h-1.152v-7.728h1.152v3.248h4.752v-3.248h1.152V535h-1.152v-3.44h-4.752V535zm12.533 0h-3.904v-7.728h1.152v2.592h2.704c1.808 0 2.944 1.008 2.944 2.56 0 1.52-1.056 2.576-2.896 2.576zm-2.752-4.128v3.12h2.544c1.216 0 1.936-.576 1.936-1.552 0-1.008-.72-1.568-1.936-1.568h-2.544zM414.576 535h-.992v-11.2h1.168v9.216l6.96-9.216h1.04V535h-1.168v-9.248L414.576 535zm17.945.192c-1.024 0-1.888-.336-2.592-1.008-.704-.672-1.104-1.52-1.2-2.56h-1.904V535h-1.152v-7.728h1.152v3.312h1.92c.096-1.008.496-1.856 1.2-2.512.704-.656 1.568-.992 2.576-.992 1.12 0 2.048.384 2.768 1.168.736.784 1.104 1.744 1.104 2.896 0 1.136-.368 2.096-1.104 2.88-.72.784-1.648 1.168-2.768 1.168zm0-1.04c.8 0 1.456-.288 1.968-.864.512-.576.768-1.296.768-2.144 0-.864-.256-1.584-.768-2.16-.512-.576-1.168-.864-1.968-.864-.784 0-1.44.288-1.952.864-.512.576-.768 1.296-.768 2.16 0 .848.256 1.568.768 2.144.512.576 1.168.864 1.952.864zm4.753.848v-1.056c.08.016.176.016.304.016.688 0 1.136-.448 1.376-1.28.256-.848.335-1.68.384-2.944l.064-2.464h5.776V535h-1.152v-6.72h-3.52l-.048 1.488c-.016.48-.032.896-.064 1.248-.064.704-.192 1.68-.464 2.304-.352.928-1.104 1.76-2.32 1.696-.145 0-.256 0-.336-.016zm14.521 0h-3.904v-7.728h1.152v2.592h2.704c1.808 0 2.944 1.008 2.944 2.56 0 1.52-1.056 2.576-2.896 2.576zm-2.752-4.128v3.12h2.544c1.216 0 1.936-.576 1.936-1.552 0-1.008-.72-1.568-1.936-1.568h-2.544zM474.576 535h-.992v-11.2h1.168v9.216l6.96-9.216h1.04V535h-1.168v-9.248L474.576 535zm17.945.192c-1.024 0-1.888-.336-2.592-1.008-.704-.672-1.104-1.52-1.2-2.56h-1.904V535h-1.152v-7.728h1.152v3.312h1.92c.096-1.008.496-1.856 1.2-2.512.704-.656 1.568-.992 2.576-.992 1.12 0 2.048.384 2.768 1.168.736.784 1.104 1.744 1.104 2.896 0 1.136-.368 2.096-1.104 2.88-.72.784-1.648 1.168-2.768 1.168zm0-1.04c.8 0 1.456-.288 1.968-.864.512-.576.768-1.296.768-2.144 0-.864-.256-1.584-.768-2.16-.512-.576-1.168-.864-1.968-.864-.784 0-1.44.288-1.952.864-.512.576-.768 1.296-.768 2.16 0 .848.256 1.568.768 2.144.512.576 1.168.864 1.952.864zm4.753.848v-1.056c.08.016.176.016.304.016.688 0 1.136-.448 1.376-1.28.256-.848.335-1.68.384-2.944l.064-2.464h5.776V535h-1.152v-6.72h-3.52l-.048 1.488c-.016.48-.032.896-.064 1.248-.064.704-.192 1.68-.464 2.304-.352.928-1.104 1.76-2.32 1.696-.145 0-.256 0-.336-.016zm14.521 0h-3.904v-7.728h1.152v2.592h2.704c1.808 0 2.944 1.008 2.944 2.56 0 1.52-1.056 2.576-2.896 2.576zm-2.752-4.128v3.12h2.544c1.216 0 1.936-.576 1.936-1.552 0-1.008-.72-1.568-1.936-1.568h-2.544zM533.712 535h-1.232l4.992-11.264h1.104L543.584 535h-1.248l-1.392-3.088h-5.872l-1.36 3.088zm4.304-9.776l-2.544 5.648h5.088l-2.544-5.648zM549.743 535h-4.336v-7.728h4.064c1.488 0 2.336.8 2.336 1.968 0 .832-.32 1.392-.96 1.696.976.288 1.472.944 1.472 1.984 0 1.28-.928 2.08-2.576 2.08zm-3.184-3.488v2.48h2.944c1.04 0 1.648-.448 1.648-1.232s-.608-1.248-1.648-1.248h-2.944zm0-3.232v2.272h2.592c.96 0 1.52-.416 1.52-1.136 0-.752-.56-1.136-1.52-1.136h-2.592zm9.234 6.72h-1.152v-7.728h5.808v1.008h-4.656V535zm7.03 3.264c-.56 0-.976-.08-1.232-.224v-1.072c.336.176.688.256 1.056.256.96 0 1.568-.768 2.288-2.512l-3.44-7.44h1.28l2.736 6.08 2.656-6.08h1.248l-3.824 8.592c-.688 1.6-1.616 2.4-2.768 2.4zm11.792-3.072c-1.168 0-2.16-.384-2.944-1.152-.784-.784-1.168-1.744-1.168-2.912 0-1.152.4-2.112 1.184-2.88.784-.784 1.776-1.168 2.944-1.168.896 0 1.68.192 2.336.56v1.072a4.326 4.326 0 00-2.176-.592c-.88 0-1.632.288-2.224.864-.592.56-.88 1.28-.88 2.16 0 .864.288 1.584.88 2.16.592.56 1.344.848 2.224.848.864 0 1.632-.224 2.32-.672v1.056c-.72.432-1.552.656-2.496.656zm7.737-.192H581.2v-6.72h-2.8v-1.008h6.752v1.008h-2.8V535zm26.512.192c-1.648 0-3.008-.544-4.112-1.632-1.088-1.088-1.632-2.48-1.632-4.16 0-1.68.544-3.056 1.632-4.144 1.104-1.104 2.464-1.648 4.112-1.648 1.216 0 2.256.272 3.136.832v1.216c-.976-.624-2.016-.944-3.12-.944-1.296 0-2.368.448-3.248 1.344-.88.88-1.312 2-1.312 3.344 0 1.36.432 2.48 1.312 3.36.88.88 1.984 1.328 3.28 1.328 1.296 0 2.4-.368 3.328-1.12v1.232c-.912.656-2.032.992-3.376.992zm9.239 0c-1.2 0-2.224-.384-3.04-1.136-.816-.752-1.216-1.728-1.216-2.912 0-1.168.368-2.128 1.088-2.896.736-.784 1.68-1.168 2.832-1.168 2.592 0 3.616 2.272 3.616 4.016v.32h-6.352c.128 1.664 1.44 2.736 3.296 2.736a4.53 4.53 0 002.48-.72v1.024c-.64.496-1.536.736-2.704.736zm-3.056-4.72h5.168a2.642 2.642 0 00-.672-1.616c-.4-.496-1.008-.736-1.824-.736-.784 0-1.408.24-1.888.704-.464.464-.736 1.008-.784 1.648zM624.7 535h-1.152v-7.728h1.152v3.248h4.752v-3.248h1.152V535h-1.152v-3.44H624.7V535zm11.637 0h-1.152v-6.72h-2.8v-1.008h6.752v1.008h-2.8V535zm5.274 0h-1.312l2.304-3.088c-1.264-.208-1.952-1.056-1.952-2.288 0-1.392.976-2.352 2.768-2.352h3.984V535h-1.152v-2.88h-2.48l-2.16 2.88zm1.984-3.888h2.656v-2.832h-2.656c-1.136 0-1.76.512-1.76 1.424 0 .912.624 1.408 1.76 1.408zm10.307 4.08c-1.328 0-2.352-.464-3.088-1.376-.736-.912-1.104-2.16-1.104-3.744 0-2.192.576-3.568 1.552-4.464.432-.432 1.248-.816 1.84-1.056.304-.112.688-.24 1.152-.352.48-.128.896-.224 1.264-.304.368-.08.848-.16 1.424-.272v1.072a53.186 53.186 0 00-2.544.528c-1.168.272-2.048.704-2.64 1.328-.592.624-.912 1.568-.96 2.864.64-1.104 1.888-1.792 3.424-1.792 1.008 0 1.856.336 2.544 1.024.688.672 1.024 1.536 1.024 2.592 0 1.168-.368 2.112-1.12 2.848-.752.736-1.664 1.104-2.768 1.104zm0-1.04c.752 0 1.392-.256 1.92-.784s.8-1.216.8-2.048c0-.8-.256-1.44-.768-1.92-.512-.496-1.136-.736-1.888-.736-.688 0-1.312.208-1.872.624-.56.4-.96.88-1.2 1.44.112 2.16 1.168 3.424 3.008 3.424zm7.188-.384v4.432h-1.152v-10.928h1.152v1.232c.72-.944 1.712-1.424 2.992-1.424 1.136 0 2.08.4 2.8 1.184.72.784 1.088 1.744 1.088 2.864 0 1.136-.368 2.096-1.088 2.88-.72.784-1.664 1.184-2.8 1.184-1.28 0-2.272-.48-2.992-1.424zm0-3.904v2.544c.448 1.024 1.552 1.744 2.72 1.744.848 0 1.568-.288 2.128-.864.56-.592.848-1.312.848-2.16 0-.848-.288-1.568-.848-2.144-.56-.576-1.28-.864-2.128-.864-1.168 0-2.256.736-2.72 1.744zM674.014 535h-3.904v-7.728h1.152v2.592h2.704c1.808 0 2.944 1.008 2.944 2.56 0 1.52-1.056 2.576-2.896 2.576zm-2.752-4.128v3.12h2.544c1.216 0 1.936-.576 1.936-1.552 0-1.008-.72-1.568-1.936-1.568h-2.544zm25.458-5.6c1.072-1.104 2.416-1.664 4.032-1.664s2.944.56 4.016 1.664c1.072 1.104 1.616 2.48 1.616 4.128 0 1.648-.544 3.04-1.616 4.144s-2.4 1.648-4.016 1.648-2.96-.544-4.032-1.648c-1.072-1.104-1.6-2.496-1.6-4.144 0-1.648.528-3.024 1.6-4.128zm.88 7.472c.848.896 1.904 1.344 3.152 1.344 1.248 0 2.304-.448 3.152-1.344.848-.896 1.28-2.016 1.28-3.344 0-1.328-.432-2.448-1.28-3.344-.848-.896-1.904-1.344-3.152-1.344-1.248 0-2.304.448-3.152 1.344-.848.896-1.28 2.016-1.28 3.344 0 1.328.432 2.448 1.28 3.344zm11.276-5.472h1.152v3.184l3.68-3.184h1.568l-4.08 3.488 4.656 4.24h-1.648l-4.176-3.808V535h-1.152v-7.728zM720.337 535h-1.152v-6.72h-2.8v-1.008h6.752v1.008h-2.8V535zm5.274 0h-1.312l2.304-3.088c-1.264-.208-1.952-1.056-1.952-2.288 0-1.392.976-2.352 2.768-2.352h3.984V535h-1.152v-2.88h-2.48l-2.16 2.88zm1.984-3.888h2.656v-2.832h-2.656c-1.136 0-1.76.512-1.76 1.424 0 .912.624 1.408 1.76 1.408zm10.307 4.08c-1.328 0-2.352-.464-3.088-1.376-.736-.912-1.104-2.16-1.104-3.744 0-2.192.576-3.568 1.552-4.464.432-.432 1.248-.816 1.84-1.056.304-.112.688-.24 1.152-.352.48-.128.896-.224 1.264-.304.368-.08.848-.16 1.424-.272v1.072a53.186 53.186 0 00-2.544.528c-1.168.272-2.048.704-2.64 1.328-.592.624-.912 1.568-.96 2.864.64-1.104 1.888-1.792 3.424-1.792 1.008 0 1.856.336 2.544 1.024.688.672 1.024 1.536 1.024 2.592 0 1.168-.368 2.112-1.12 2.848-.752.736-1.664 1.104-2.768 1.104zm0-1.04c.752 0 1.392-.256 1.92-.784s.8-1.216.8-2.048c0-.8-.256-1.44-.768-1.92-.512-.496-1.136-.736-1.888-.736-.688 0-1.312.208-1.872.624-.56.4-.96.88-1.2 1.44.112 2.16 1.168 3.424 3.008 3.424zm7.188-.384v4.432h-1.152v-10.928h1.152v1.232c.72-.944 1.712-1.424 2.992-1.424 1.136 0 2.08.4 2.8 1.184.72.784 1.088 1.744 1.088 2.864 0 1.136-.368 2.096-1.088 2.88-.72.784-1.664 1.184-2.8 1.184-1.28 0-2.272-.48-2.992-1.424zm0-3.904v2.544c.448 1.024 1.552 1.744 2.72 1.744.848 0 1.568-.288 2.128-.864.56-.592.848-1.312.848-2.16 0-.848-.288-1.568-.848-2.144-.56-.576-1.28-.864-2.128-.864-1.168 0-2.256.736-2.72 1.744zM758.014 535h-3.904v-7.728h1.152v2.592h2.704c1.808 0 2.944 1.008 2.944 2.56 0 1.52-1.056 2.576-2.896 2.576zm-2.752-4.128v3.12h2.544c1.216 0 1.936-.576 1.936-1.552 0-1.008-.72-1.568-1.936-1.568h-2.544zM780.768 535h-1.184v-11.2h1.184v4.656h6.656V523.8h1.184V535h-1.184v-5.472h-6.656V535zm11.372-6.72c.784-.8 1.776-1.2 3.008-1.2s2.224.4 3.008 1.2c.784.784 1.168 1.744 1.168 2.864 0 1.12-.384 2.08-1.168 2.864-.784.784-1.776 1.184-3.008 1.184s-2.224-.4-3.008-1.184c-.784-.784-1.168-1.744-1.168-2.864 0-1.12.384-2.08 1.168-2.864zm6 2.864c0-.864-.288-1.584-.848-2.16-.56-.576-1.28-.864-2.144-.864-.864 0-1.584.288-2.144.864-.56.576-.848 1.296-.848 2.16 0 .848.288 1.568.848 2.144.56.576 1.28.864 2.144.864.864 0 1.584-.288 2.144-.864.56-.576.848-1.296.848-2.144zm4.033 3.856h-1.312l2.304-3.088c-1.264-.208-1.952-1.056-1.952-2.288 0-1.392.976-2.352 2.768-2.352h3.984V535h-1.152v-2.88h-2.48l-2.16 2.88zm1.984-3.888h2.656v-2.832h-2.656c-1.136 0-1.76.512-1.76 1.424 0 .912.624 1.408 1.76 1.408zm10.307 4.08c-1.328 0-2.352-.464-3.088-1.376-.736-.912-1.104-2.16-1.104-3.744 0-2.192.576-3.568 1.552-4.464.432-.432 1.248-.816 1.84-1.056.304-.112.688-.24 1.152-.352.48-.128.896-.224 1.264-.304.368-.08.848-.16 1.424-.272v1.072a53.186 53.186 0 00-2.544.528c-1.168.272-2.048.704-2.64 1.328-.592.624-.912 1.568-.96 2.864.64-1.104 1.888-1.792 3.424-1.792 1.008 0 1.856.336 2.544 1.024.688.672 1.024 1.536 1.024 2.592 0 1.168-.368 2.112-1.12 2.848-.752.736-1.664 1.104-2.768 1.104zm0-1.04c.752 0 1.392-.256 1.92-.784s.8-1.216.8-2.048c0-.8-.256-1.44-.768-1.92-.512-.496-1.136-.736-1.888-.736-.688 0-1.312.208-1.872.624-.56.4-.96.88-1.2 1.44.112 2.16 1.168 3.424 3.008 3.424zm7.189-.384v4.432h-1.152v-10.928h1.152v1.232c.72-.944 1.712-1.424 2.992-1.424 1.136 0 2.08.4 2.8 1.184.72.784 1.088 1.744 1.088 2.864 0 1.136-.368 2.096-1.088 2.88-.72.784-1.664 1.184-2.8 1.184-1.28 0-2.272-.48-2.992-1.424zm0-3.904v2.544c.448 1.024 1.552 1.744 2.72 1.744.848 0 1.568-.288 2.128-.864.56-.592.848-1.312.848-2.16 0-.848-.288-1.568-.848-2.144-.56-.576-1.28-.864-2.128-.864-1.168 0-2.256.736-2.72 1.744zM834.577 535h-3.904v-7.728h1.152v2.592h2.704c1.808 0 2.944 1.008 2.944 2.56 0 1.52-1.056 2.576-2.896 2.576zm-2.752-4.128v3.12h2.544c1.216 0 1.936-.576 1.936-1.552 0-1.008-.72-1.568-1.936-1.568h-2.544zm24.551 6.624h-1.104v-3.568h1.056c.688-.976 1.184-2.112 1.488-3.408.304-1.296.464-3.088.464-5.376V523.8h6.912v10.128h1.696v3.568h-1.104V535h-9.408v2.496zm1.28-3.568h6.352v-9.056h-4.56v.752c0 3.808-.592 6.576-1.792 8.304zm14.713 1.264c-1.2 0-2.224-.384-3.04-1.136-.816-.752-1.216-1.728-1.216-2.912 0-1.168.368-2.128 1.088-2.896.736-.784 1.68-1.168 2.832-1.168 2.592 0 3.616 2.272 3.616 4.016v.32h-6.352c.127 1.664 1.44 2.736 3.296 2.736a4.53 4.53 0 002.48-.72v1.024c-.64.496-1.536.736-2.704.736zm-3.057-4.72h5.169a2.642 2.642 0 00-.672-1.616c-.4-.496-1.008-.736-1.824-.736-.784 0-1.408.24-1.888.704-.464.464-.736 1.008-.785 1.648zm8.501-3.2h1.152v3.184l3.68-3.184h1.568l-4.08 3.488 4.656 4.24h-1.648l-4.176-3.808V535h-1.152v-7.728zm11.108 6.88c1.104 0 2.128-.592 2.688-1.296v-1.072c-.784-.512-1.632-.768-2.512-.768-1.408 0-2.288.592-2.288 1.552 0 1.04.912 1.584 2.112 1.584zm-.32 1.04c-.816 0-1.52-.224-2.096-.672-.56-.464-.848-1.088-.848-1.888 0-.784.304-1.408.896-1.872.608-.464 1.36-.688 2.272-.688 1.008 0 1.936.256 2.784.752v-.768c0-1.296-.848-1.936-2.544-1.936-.912 0-1.744.256-2.528.784v-1.12c.752-.464 1.664-.704 2.768-.704 2.064 0 3.456.992 3.456 2.864v3.184c0 .592.288.96.736.96.176 0 .32-.032.448-.096v.896c-.16.112-.416.176-.768.176-.752 0-1.328-.4-1.456-1.232-.784.912-1.824 1.36-3.12 1.36zm10.988 0c-1.328 0-2.352-.464-3.088-1.376-.736-.912-1.104-2.16-1.104-3.744 0-2.192.576-3.568 1.552-4.464.432-.432 1.248-.816 1.84-1.056.304-.112.688-.24 1.152-.352.48-.128.896-.224 1.264-.304.368-.08.848-.16 1.424-.272v1.072a53.186 53.186 0 00-2.544.528c-1.168.272-2.048.704-2.64 1.328-.592.624-.912 1.568-.96 2.864.64-1.104 1.888-1.792 3.424-1.792 1.008 0 1.856.336 2.544 1.024.688.672 1.024 1.536 1.024 2.592 0 1.168-.368 2.112-1.12 2.848-.752.736-1.664 1.104-2.768 1.104zm0-1.04c.752 0 1.392-.256 1.92-.784s.8-1.216.8-2.048c0-.8-.256-1.44-.768-1.92-.512-.496-1.136-.736-1.888-.736-.688 0-1.312.208-1.872.624-.56.4-.96.88-1.2 1.44.112 2.16 1.168 3.424 3.008 3.424zm7.189-.384v4.432h-1.152v-10.928h1.152v1.232c.72-.944 1.712-1.424 2.992-1.424 1.136 0 2.08.4 2.8 1.184.72.784 1.088 1.744 1.088 2.864 0 1.136-.368 2.096-1.088 2.88-.72.784-1.664 1.184-2.8 1.184-1.28 0-2.272-.48-2.992-1.424zm0-3.904v2.544c.448 1.024 1.552 1.744 2.72 1.744.848 0 1.568-.288 2.128-.864.56-.592.848-1.312.848-2.16 0-.848-.288-1.568-.848-2.144-.56-.576-1.28-.864-2.128-.864-1.168 0-2.256.736-2.72 1.744zM919.702 535h-3.904v-7.728h1.152v2.592h2.704c1.808 0 2.944 1.008 2.944 2.56 0 1.52-1.056 2.576-2.896 2.576zm-2.752-4.128v3.12h2.544c1.216 0 1.936-.576 1.936-1.552 0-1.008-.72-1.568-1.936-1.568h-2.544z" fill="#2F2F2F"/><path stroke="#707070" d="M26 409.5h890m-890-80h890m-890-80h890m-890-80h890m-890-80h890"/><path d="M7.744 488.4c0-1.643.421-3.013 1.264-4.112.853-1.12 1.963-1.68 3.328-1.68 1.354 0 2.458.555 3.312 1.664.843 1.099 1.264 2.475 1.264 4.128s-.421 3.029-1.264 4.128c-.854 1.109-1.957 1.664-3.312 1.664-1.366 0-2.475-.555-3.328-1.664-.843-1.099-1.264-2.475-1.264-4.128zm8 0c0-1.333-.32-2.448-.96-3.344-.64-.896-1.456-1.344-2.448-1.344s-1.808.448-2.448 1.344c-.64.896-.96 2.011-.96 3.344 0 1.333.315 2.453.944 3.36.64.885 1.461 1.328 2.464 1.328 1.002 0 1.819-.443 2.448-1.328.64-.896.96-2.016.96-3.36zm1.389-74.4H9.5v-.88l3.776-3.6c.832-.789 1.413-1.424 1.744-1.904a2.917 2.917 0 00.512-1.68c0-.661-.235-1.195-.704-1.6-.47-.416-1.083-.624-1.84-.624-1.184 0-2.262.501-3.232 1.504v-1.328a4.843 4.843 0 013.344-1.28c1.034 0 1.893.293 2.576.88.693.597 1.04 1.365 1.04 2.304 0 .747-.187 1.429-.56 2.048-.373.608-1.014 1.339-1.92 2.192l-3.008 2.896h5.904V414zm-.514-80h-1.152v-3.088H9.451v-.944l6.032-7.168h1.136v7.04h1.856v1.072h-1.856V334zm-1.152-9.632l-4.64 5.472h4.64v-5.472zm-1.341-70.176c-1.312 0-2.347-.459-3.104-1.376-.757-.939-1.136-2.229-1.136-3.872-.032-1.792.4-3.296 1.296-4.512.896-1.227 2.085-1.835 3.568-1.824.928 0 1.717.229 2.368.688v1.136c-.704-.48-1.461-.72-2.272-.72-.843 0-1.557.24-2.144.72a4.057 4.057 0 00-1.264 1.76 7.436 7.436 0 00-.4 2.304c.299-.512.73-.917 1.296-1.216.576-.299 1.237-.448 1.984-.448 1.024 0 1.877.336 2.56 1.008.704.651 1.056 1.504 1.056 2.56 0 1.099-.368 2.005-1.104 2.72-.715.715-1.616 1.072-2.704 1.072zm-.064-1.104c.757 0 1.397-.251 1.92-.752.523-.512.784-1.157.784-1.936 0-.768-.261-1.381-.784-1.84-.523-.459-1.173-.688-1.952-.688-.661 0-1.27.208-1.824.624a3.164 3.164 0 00-1.136 1.552c.096.971.4 1.723.912 2.256.523.523 1.216.784 2.08.784zm1.633-84.992c.747.192 1.334.539 1.76 1.04.427.501.64 1.104.64 1.808 0 .992-.405 1.781-1.215 2.368-.811.587-1.824.88-3.04.88s-2.23-.293-3.04-.88c-.811-.587-1.216-1.376-1.216-2.368 0-.704.213-1.307.64-1.808.437-.501 1.029-.848 1.775-1.04-.575-.235-1.029-.571-1.36-1.008a2.543 2.543 0 01-.495-1.552c0-.864.351-1.568 1.056-2.112.704-.544 1.584-.816 2.64-.816 1.066 0 1.951.272 2.655.816.704.544 1.056 1.248 1.056 2.112 0 .587-.165 1.104-.495 1.552-.331.437-.785.773-1.36 1.008zm-4.431-2.464c0 .597.245 1.077.736 1.44.49.363 1.104.544 1.84.544.746 0 1.365-.187 1.855-.56.491-.373.736-.848.736-1.424 0-.597-.25-1.083-.752-1.456-.5-.373-1.114-.56-1.84-.56-.725 0-1.338.187-1.84.56-.49.363-.736.848-.736 1.456zm.384 6.896c.597.437 1.328.656 2.191.656.864 0 1.595-.219 2.193-.656.597-.448.895-.997.895-1.648 0-.672-.293-1.216-.88-1.632-.597-.416-1.333-.624-2.208-.624-.874 0-1.605.208-2.191.624-.587.416-.88.96-.88 1.632 0 .651.293 1.2.88 1.648zM4.927 94H3.76v-9.92l-2.512 1.44v-1.136l2.64-1.584h1.04V94zm2.817-5.6c0-1.643.421-3.013 1.264-4.112.853-1.12 1.963-1.68 3.328-1.68 1.354 0 2.458.555 3.312 1.664.843 1.099 1.264 2.475 1.264 4.128s-.421 3.03-1.264 4.128c-.854 1.11-1.957 1.664-3.312 1.664-1.366 0-2.475-.555-3.328-1.664-.843-1.099-1.264-2.475-1.264-4.128zm8 0c0-1.333-.32-2.448-.96-3.344-.64-.896-1.456-1.344-2.448-1.344s-1.808.448-2.448 1.344c-.64.896-.96 2.01-.96 3.344 0 1.333.315 2.453.944 3.36.64.885 1.461 1.328 2.464 1.328 1.002 0 1.819-.443 2.448-1.328.64-.896.96-2.016.96-3.36zM7.052 14H5.884V4.08L3.372 5.52V4.384L6.012 2.8h1.04V14zm10.08 0h-7.63v-.88l3.776-3.6c.832-.79 1.413-1.424 1.744-1.904a2.918 2.918 0 00.512-1.68c0-.661-.235-1.195-.704-1.6-.47-.416-1.083-.624-1.84-.624-1.184 0-2.262.501-3.232 1.504V3.888a4.841 4.841 0 013.344-1.28c1.034 0 1.893.293 2.576.88.693.597 1.04 1.365 1.04 2.304a3.89 3.89 0 01-.56 2.048c-.373.608-1.014 1.339-1.92 2.192l-3.008 2.896h5.904V14z" fill="#2F2F2F"/><path stroke="#707070" d="M26 9.5h890"/><path d="M28 487l110.248-178.5 146.33 61.5 109.747-251.5 61.639 263L523.616 44l76.172 425.5L666.939 152l67.652 229.5L851.856 152 916 308.5" stroke="#795AA0"/><circle cx="138" cy="309" r="11.5" fill="#F1E4F8" stroke="#F6F6F6"/><circle cx="285" cy="369" r="11.5" fill="#F1E4F8" stroke="#F6F6F6"/><circle cx="394" cy="118" r="11.5" fill="#F1E4F8" stroke="#F6F6F6"/><circle cx="456" cy="381" r="11.5" fill="#F1E4F8" stroke="#F6F6F6"/><circle cx="524" cy="44" r="11.5" fill="#F1E4F8" stroke="#F6F6F6"/><circle cx="600" cy="468" r="11.5" fill="#F1E4F8" stroke="#F6F6F6"/><circle cx="667" cy="152" r="12" fill="#795AA0"/><path d="M670.232 115.048c1.848.672 3.12 2.256 3.12 4.176 0 1.584-.648 2.832-1.944 3.744-1.272.912-2.856 1.368-4.752 1.368s-3.48-.456-4.776-1.368c-1.296-.912-1.944-2.16-1.944-3.744 0-1.92 1.272-3.504 3.12-4.176-1.464-.672-2.352-1.968-2.352-3.528 0-1.368.552-2.496 1.68-3.36 1.128-.864 2.568-1.296 4.272-1.296 1.704 0 3.096.432 4.224 1.296 1.128.864 1.704 1.992 1.704 3.36 0 1.56-.888 2.856-2.352 3.528zm-6.192-3.192c0 1.224 1.152 2.088 2.616 2.088 1.464 0 2.592-.864 2.592-2.088 0-1.248-1.128-2.112-2.592-2.112-1.464 0-2.616.864-2.616 2.112zm5.736 7.152c0-1.416-1.32-2.448-3.12-2.448s-3.144 1.032-3.144 2.448c0 1.368 1.344 2.424 3.144 2.424s3.12-1.056 3.12-2.424z" fill="#2F2F2F"/><circle cx="735" cy="382" r="11.5" fill="#F1E4F8" stroke="#F6F6F6"/><circle cx="852" cy="150" r="11.5" fill="#F1E4F8" stroke="#F6F6F6"/></svg>