<svg width="868" height="568" fill="none" xmlns="http://www.w3.org/2000/svg"><path d="M205 226l212 68.5m0 0v-223m0 223L629 226m-212 68.5l131.5 181M417 294.5l-131.5 181m101.654-190.198L417 263.618l29.846 21.684-11.4 35.087h-36.892l-11.4-35.087z" stroke="#2F2F2F"/><path d="M356.72 275.414L417 231.618l60.28 43.796-23.025 70.863h-74.51l-23.025-70.863z" stroke="#2F2F2F"/><path d="M326.286 265.525L417 199.618l90.714 65.907-34.65 106.641H360.936l-34.65-106.641z" stroke="#2F2F2F"/><path d="M295.853 255.637L417 167.618l121.147 88.019-46.274 142.417H342.127l-46.274-142.417z" stroke="#2F2F2F"/><path d="M265.419 245.748L417 135.618l151.581 110.13-57.899 178.195H323.318l-57.899-178.195z" stroke="#2F2F2F"/><path d="M234.985 235.86L417 103.618 599.015 235.86l-69.524 213.971H304.508L234.985 235.86z" stroke="#2F2F2F"/><path d="M204.551 225.971L417 71.618l212.449 154.353-81.148 249.749H285.699l-81.148-249.749z" stroke="#2F2F2F"/><rect x="539.5" y="466.5" width="17" height="17" rx="8.5" fill="#1B1B1B" fill-opacity=".7" stroke="#2F2F2F"/><rect x="619.5" y="217.5" width="17" height="17" rx="8.5" fill="#1B1B1B" fill-opacity=".7" stroke="#2F2F2F"/><rect x="408.5" y="63.5" width="17" height="17" rx="8.5" fill="#1B1B1B" fill-opacity=".7" stroke="#2F2F2F"/><rect x="195.5" y="217.5" width="17" height="17" rx="8.5" fill="#1B1B1B" fill-opacity=".7" stroke="#2F2F2F"/><rect x="276.5" y="467.5" width="17" height="17" rx="8.5" fill="#1B1B1B" fill-opacity=".7" stroke="#2F2F2F"/><path d="M538.5 463l7-210-129-127-181 110L332 411l206.5 52z" stroke="#2F2F2F" stroke-width="2"/><path d="M538.5 463l7-210-129-127-181 110L332 411l206.5 52z" fill="url(#paint0_angular_401_11011)" fill-opacity=".7"/><rect x="412.5" y="119.5" width="9" height="9" rx="4.5" fill="#2F2F2F" stroke="#DEDEDE"/><rect x="231.5" y="231.5" width="9" height="9" rx="4.5" fill="#2F2F2F" stroke="#DEDEDE"/><rect x="534.5" y="458.5" width="9" height="9" rx="4.5" fill="#2F2F2F" stroke="#DEDEDE"/><rect x="325.5" y="405.5" width="9" height="9" rx="4.5" fill="#2F2F2F" stroke="#fff"/><rect x="540.5" y="247.5" width="9" height="9" rx="4.5" fill="#2F2F2F" stroke="#fff"/><path d="M357.572 30.203c0-.427.245-.64.734-.64h3.61c.937 0 1.687.505 2.25 1.515l2.422 4.313c.625 1.114 1.281 1.922 1.968 2.422.698.5 1.505.75 2.422.75h.703v-7.485c0-.406.141-.76.422-1.062a1.405 1.405 0 011.047-.453h2.953c.406 0 .75.15 1.031.453.292.302.438.656.438 1.062v7.485h.703c.917 0 1.719-.25 2.406-.75.698-.5 1.354-1.308 1.969-2.422l2.438-4.313c.552-1.01 1.296-1.515 2.234-1.515h3.625c.406 0 .651.14.734.421v.22c0 .26-.083.551-.25.874l-3.39 6.14c-.5.897-1.052 1.636-1.657 2.22-.604.583-1.401.994-2.39 1.234.687.146 1.39.578 2.109 1.297a14.89 14.89 0 011.938 2.343l3.89 6.22c.282.458.36.817.235 1.077-.115.26-.37.391-.766.391h-3.594c-.406 0-.843-.14-1.312-.422-.469-.292-.828-.64-1.078-1.047l-2.766-4.36c-.656-1.062-1.318-1.858-1.984-2.39-.657-.541-1.453-.812-2.391-.812h-.703v7.593c0 .407-.146.75-.438 1.032a1.43 1.43 0 01-1.031.406h-2.953c-.406 0-.755-.135-1.047-.406a1.404 1.404 0 01-.422-1.032V42.97h-.703c-.937 0-1.739.27-2.406.812-.656.532-1.318 1.328-1.984 2.39l-2.75 4.36c-.25.407-.61.755-1.079 1.047-.468.281-.906.422-1.312.422h-3.594c-.406 0-.661-.14-.765-.422a.818.818 0 01-.063-.36c0-.166.094-.395.281-.687l3.907-6.218a15.351 15.351 0 011.921-2.344c.73-.719 1.433-1.151 2.11-1.297-.979-.24-1.776-.651-2.391-1.234-.604-.584-1.151-1.323-1.64-2.22l-3.391-6.14c-.167-.323-.25-.614-.25-.875z" fill="#FFC208"/><path d="M394.606 51.047V35.844c0-.282.088-.51.265-.688a.937.937 0 01.688-.281h3.265c.282 0 .511.094.688.281a.905.905 0 01.281.688v10.265l5.5-10.109c.167-.323.422-.589.766-.797.344-.219.677-.328 1-.328h4.375c.281 0 .51.094.687.281a.902.902 0 01.282.688v15.203a.9.9 0 01-.282.687.93.93 0 01-.687.266h-3.266a.93.93 0 01-.687-.266.965.965 0 01-.266-.687v-10.25l-5.5 10.078a2.314 2.314 0 01-.766.797c-.343.219-.677.328-1 .328h-4.39a.932.932 0 01-.688-.266c-.177-.177-.265-.406-.265-.687zm20.783-3.438a.93.93 0 01.266-.687.966.966 0 01.688-.266h2.343c.709 0 1.261.354 1.657 1.063.406.698 1.177 1.047 2.312 1.047h3.172c1.51 0 2.266-.62 2.266-1.86 0-1.24-.756-1.854-2.266-1.843h-3.875a.983.983 0 01-.703-.266.985.985 0 01-.266-.703v-1.625c0-.282.089-.51.266-.688a.954.954 0 01.703-.281h3.578c.688 0 1.203-.151 1.547-.453.354-.313.531-.724.531-1.234s-.177-.922-.531-1.235c-.344-.312-.859-.469-1.547-.469h-2.875c-.365 0-.74.094-1.125.282a1.8 1.8 0 00-.859.78c-.407.71-.964 1.058-1.672 1.048h-2.328a.982.982 0 01-.703-.266c-.178-.177-.266-.406-.266-.687 0-1.407.682-2.542 2.047-3.407 1.375-.864 3.031-1.297 4.969-1.297h3.14c2.198 0 3.938.407 5.219 1.22 1.292.801 1.937 2.025 1.937 3.671s-.744 2.833-2.234 3.563c1.813.916 2.719 2.364 2.719 4.343 0 1.73-.615 2.99-1.844 3.782-1.219.78-3.036 1.172-5.453 1.172h-3.484c-2.094 0-3.839-.428-5.235-1.282-1.396-.854-2.094-1.995-2.094-3.422zm21.284 3.438V35.844a.933.933 0 01.953-.969h3.5c.282 0 .511.094.688.281.177.177.265.407.265.688v5.593h6.844v-5.593c0-.282.089-.51.266-.688a.954.954 0 01.703-.281h3.484c.282 0 .511.094.688.281.177.177.265.407.265.688v15.203c0 .281-.088.51-.265.687a.93.93 0 01-.688.266h-3.484a.983.983 0 01-.703-.266.965.965 0 01-.266-.687v-5.828h-6.844v5.828a.9.9 0 01-.281.687.91.91 0 01-.672.266h-3.5a.93.93 0 01-.687-.266.931.931 0 01-.266-.687zm21.94 0V35.844a.933.933 0 01.953-.969h3.5c.271 0 .495.094.672.281a.901.901 0 01.281.688v4.703h4.735c2.219 0 3.937.437 5.156 1.312 1.219.875 1.828 2.35 1.828 4.422 0 2.063-.609 3.532-1.828 4.407-1.219.874-2.937 1.312-5.156 1.312h-9.188a.962.962 0 01-.687-.266.965.965 0 01-.266-.687zm5.406-2.594h4.25c.646 0 1.146-.187 1.5-.562.365-.375.547-.912.547-1.61 0-.708-.182-1.25-.547-1.625-.354-.375-.854-.562-1.5-.562h-4.25v4.36z" fill="#2F2F2F"/><path d="M651.234 235.5v-19.391c0-.427.141-.786.422-1.078a1.381 1.381 0 011.032-.437h6.359c.406 0 .792.146 1.156.437.365.292.609.641.735 1.047l4.609 13.344 4.609-13.344a2.13 2.13 0 01.735-1.047c.364-.291.75-.437 1.156-.437h6.359c.406 0 .745.146 1.016.437.281.292.422.651.422 1.078V235.5c0 .427-.146.786-.438 1.078a1.403 1.403 0 01-1.031.422h-2.813c-.406 0-.755-.141-1.046-.422a1.49 1.49 0 01-.422-1.078v-15.266l-5.516 15.36a2.279 2.279 0 01-.766 1c-.364.271-.75.406-1.156.406h-2.234c-.406 0-.792-.135-1.156-.406a2.438 2.438 0 01-.766-1l-5.5-15.36V235.5c0 .427-.146.786-.438 1.078a1.402 1.402 0 01-1.031.422h-2.812a1.465 1.465 0 01-1.485-1.5z" fill="#FF1717"/><path d="M685.893 235.031c-1.604-1.521-2.406-3.708-2.406-6.562 0-2.865.807-5.063 2.422-6.594 1.614-1.542 3.854-2.313 6.718-2.313 2.865 0 5.099.75 6.704 2.25 1.604 1.49 2.406 3.631 2.406 6.422v.891a.932.932 0 01-.969.969h-11.766c.105 1.281.469 2.213 1.094 2.797.636.583 1.646.875 3.031.875 1.386 0 2.334-.313 2.844-.938.511-.625 1.141-.943 1.891-.953h2.328c.281 0 .51.094.687.281a.902.902 0 01.282.688c0 2.989-2.849 4.479-8.547 4.468-2.875 0-5.115-.76-6.719-2.281zm3.078-8.234h7.266c-.104-2.458-1.313-3.688-3.625-3.688-2.302 0-3.516 1.23-3.641 3.688zm15.112-5.953a.93.93 0 01.266-.688.955.955 0 01.703-.281h3.484c.282 0 .511.094.688.281a.904.904 0 01.281.688v4.609c0 .781.198 1.354.594 1.719.406.364.932.547 1.578.547h3.969v-6.875c0-.282.088-.511.265-.688a.939.939 0 01.688-.281h3.484c.281 0 .511.094.688.281a.904.904 0 01.281.688v15.203a.935.935 0 01-.969.953h-3.484a.966.966 0 01-.688-.266.962.962 0 01-.265-.687V231.5h-3.969c-2.604 0-4.521-.453-5.75-1.359-1.229-.907-1.844-2.469-1.844-4.688v-4.609zm19.643 1.859v-1.859a.93.93 0 01.266-.688.955.955 0 01.703-.281h15.391c.281 0 .51.094.687.281a.93.93 0 01.266.688v1.859c0 .271-.089.5-.266.688-.177.177-.406.265-.687.265h-4.985v12.391a.935.935 0 01-.969.953h-3.484a.984.984 0 01-.703-.266.962.962 0 01-.266-.687v-12.391h-4.984a.983.983 0 01-.703-.265.966.966 0 01-.266-.688zm20.018 13.344v-15.203a.93.93 0 01.266-.688.939.939 0 01.688-.281h3.5c.281 0 .51.094.687.281a.93.93 0 01.266.688v4.703h3.718c2.219 0 3.933.437 5.141 1.312 1.219.875 1.828 2.349 1.828 4.422 0 2.063-.609 3.531-1.828 4.407-1.208.874-2.922 1.312-5.141 1.312h-8.171a.93.93 0 01-.688-.266.93.93 0 01-.266-.687zm5.313-2.531h3.328c1.365 0 2.047-.745 2.047-2.235 0-1.5-.682-2.25-2.047-2.25h-3.328v4.485zm12.984 2.531v-15.203a.93.93 0 01.266-.688.955.955 0 01.703-.281h3.484c.282 0 .511.094.688.281a.93.93 0 01.266.688v15.203a.93.93 0 01-.266.687.93.93 0 01-.688.266h-3.484a.984.984 0 01-.703-.266.93.93 0 01-.266-.687z" fill="#2F2F2F"/><path d="M98.724 235.531v-19.453c0-.406.141-.755.422-1.047a1.38 1.38 0 011.031-.437h11.922c6.302 0 9.453 2.906 9.453 8.718 0 5.803-3.151 8.704-9.453 8.704h-7.484v3.515c0 .407-.146.755-.438 1.047a1.403 1.403 0 01-1.031.422h-2.937c-.407 0-.755-.141-1.047-.422a1.428 1.428 0 01-.438-1.047zm5.891-7.937h5.703c1.75 0 3.078-.292 3.984-.875.907-.594 1.36-1.729 1.36-3.407 0-1.687-.453-2.822-1.36-3.406-.906-.594-2.234-.89-3.984-.89h-5.703v8.578z" fill="#17FF58"/><path d="M124.571 236.047v-15.203c0-.282.088-.511.265-.688a.939.939 0 01.688-.281h3.265c.282 0 .511.094.688.281a.904.904 0 01.281.688v10.265l5.5-10.109c.167-.323.422-.589.766-.797.343-.219.677-.328 1-.328h4.375c.281 0 .51.094.687.281a.9.9 0 01.281.688v15.203a.9.9 0 01-.281.687.93.93 0 01-.687.266h-3.266a.93.93 0 01-.687-.266.962.962 0 01-.266-.687v-10.25l-5.5 10.078a2.314 2.314 0 01-.766.797c-.343.219-.677.328-1 .328h-4.39a.93.93 0 01-.688-.266c-.177-.177-.265-.406-.265-.687zm30.346 1.265c-2.917 0-5.188-.75-6.813-2.25s-2.437-3.703-2.437-6.609c0-2.917.807-5.125 2.422-6.625 1.614-1.51 3.859-2.266 6.734-2.266 2.886 0 5.099.459 6.641 1.376 1.552.916 2.328 2.27 2.328 4.062 0 .281-.094.51-.281.688-.177.177-.407.265-.688.265h-2.328c-.708 0-1.307-.38-1.797-1.141-.614-.979-1.703-1.468-3.266-1.468-1.552 0-2.64.401-3.265 1.203-.615.792-.922 2.088-.922 3.891 0 1.802.318 3.104.953 3.906.646.802 1.761 1.203 3.344 1.203 1.594 0 2.698-.49 3.312-1.469.49-.771 1.089-1.156 1.797-1.156h2.328c.282 0 .511.094.688.281a.886.886 0 01.281.672c0 1.792-.776 3.146-2.328 4.063-1.542.916-3.776 1.374-6.703 1.374zm29.299-1c0 .459-.271.688-.812.688h-2.953c-1 0-1.797-.49-2.391-1.469l-1.984-3.234c-.855-1.386-2.094-2.078-3.719-2.078v5.828c0 .281-.094.51-.281.687a.911.911 0 01-.672.266h-3.5a.93.93 0 01-.688-.266c-.177-.177-.265-.406-.265-.687v-15.203c0-.282.088-.511.265-.688a.939.939 0 01.688-.281h3.5c.281 0 .51.094.687.281a.93.93 0 01.266.688v5.812c1.812 0 3.052-.703 3.719-2.109l1.5-3.188c.208-.448.515-.807.921-1.078a2.323 2.323 0 011.313-.406h2.953c.521 0 .781.203.781.609 0 .23-.083.521-.25.875l-2.015 4.25a5.626 5.626 0 01-1.407 1.829c-.593.51-1.234.838-1.921.984 1.281.385 2.39 1.323 3.328 2.812l2.656 4.297c.177.302.271.563.281.781z" fill="#2F2F2F"/><path d="M487.422 519.312c0 .459-.271.688-.813.688h-3.578c-.406 0-.843-.141-1.312-.422-.469-.292-.834-.64-1.094-1.047l-2.75-4.359c-.656-1.063-1.318-1.86-1.984-2.391-.667-.541-1.469-.812-2.407-.812h-3.359v7.593c0 .407-.146.75-.437 1.032a1.433 1.433 0 01-1.032.406h-2.937c-.407 0-.755-.146-1.047-.438a1.479 1.479 0 01-.438-1.062v-19.422c0-.406.146-.76.438-1.062.292-.302.64-.454 1.047-.454h2.937c.406 0 .75.152 1.032.454.291.302.437.656.437 1.062v7.484h3.359c.917 0 1.719-.25 2.407-.75.698-.5 1.359-1.307 1.984-2.421l2.422-4.313c.552-1 1.302-1.505 2.25-1.516h3.609c.5 0 .75.219.75.657 0 .239-.088.526-.265.859l-3.391 6.141c-.49.896-1.042 1.635-1.656 2.219-.604.583-1.396.994-2.375 1.234.687.146 1.39.578 2.109 1.297.729.719 1.37 1.5 1.922 2.343l3.906 6.219c.177.302.266.563.266.781z" fill="#A244FF"/><path d="M491.268 518.062c-1.625-1.5-2.437-3.708-2.437-6.624 0-2.928.812-5.136 2.437-6.626 1.625-1.5 3.958-2.25 7-2.25 3.052 0 5.391.75 7.016 2.25 1.625 1.49 2.437 3.698 2.437 6.626 0 2.916-.812 5.124-2.437 6.624-1.625 1.5-3.964 2.25-7.016 2.25-3.042 0-5.375-.75-7-2.25zm3.953-10.687c-.646.844-.968 2.193-.968 4.047 0 1.854.322 3.208.968 4.062.646.855 1.662 1.282 3.047 1.282 1.396 0 2.417-.427 3.063-1.282.656-.854.984-2.208.984-4.062s-.328-3.203-.984-4.047c-.646-.844-1.667-1.266-3.063-1.266-1.385 0-2.401.422-3.047 1.266zm15.831 11.672v-15.203a.935.935 0 01.953-.969h3.5c.281 0 .51.094.688.281.177.177.265.406.265.688v5.594h6.844v-5.594c0-.282.088-.511.266-.688a.953.953 0 01.703-.281h3.484c.281 0 .51.094.688.281.177.177.265.406.265.688v15.203c0 .281-.088.51-.265.687a.934.934 0 01-.688.266h-3.484a.982.982 0 01-.703-.266.958.958 0 01-.266-.687v-5.828h-6.844v5.828c0 .281-.094.51-.281.687a.911.911 0 01-.672.266h-3.5a.93.93 0 01-.687-.266c-.178-.177-.266-.406-.266-.687zm23.08-1.328c-1.614-1.448-2.421-3.547-2.421-6.297 0-2.75.807-4.839 2.421-6.266 1.625-1.427 3.974-2.187 7.047-2.281v-4.313a.93.93 0 01.266-.687.955.955 0 01.703-.281h3.484c.282 0 .511.094.688.281a.93.93 0 01.266.687v4.313c3.073.083 5.416.844 7.031 2.281 1.625 1.427 2.437 3.516 2.437 6.266s-.812 4.849-2.437 6.297c-1.615 1.437-3.958 2.198-7.031 2.281v4.312a.902.902 0 01-.282.688.882.882 0 01-.672.281h-3.484a.951.951 0 01-.703-.281.93.93 0 01-.266-.688V520c-3.073-.083-5.422-.844-7.047-2.281zm4-10.172c-.677.812-1.015 2.104-1.015 3.875s.338 3.068 1.015 3.89c.688.823 1.735 1.245 3.141 1.266v-10.281c-1.406.021-2.453.437-3.141 1.25zm8.36 9.031c1.406-.021 2.448-.443 3.125-1.266.687-.822 1.031-2.119 1.031-3.89s-.344-3.057-1.031-3.86c-.677-.812-1.719-1.234-3.125-1.265v10.281zm11.002 2.391l2.813-11.36c.792-3.156 3.406-4.734 7.844-4.734h7.39c.271 0 .495.094.672.281a.9.9 0 01.281.688v15.203a.93.93 0 01-.281.687.911.911 0 01-.672.266h-3.5a.962.962 0 01-.687-.266.962.962 0 01-.266-.687v-12.391h-2.937c-1.459 0-2.381.766-2.766 2.297l-2.453 9.891a1.562 1.562 0 01-.563.844c-.27.208-.562.312-.875.312h-3.203c-.281 0-.495-.083-.64-.25-.136-.177-.203-.328-.203-.453s.015-.235.046-.328zm23.284.078v-15.203a.935.935 0 01.953-.969h3.266c.281 0 .51.094.687.281a.902.902 0 01.282.688v10.265l5.5-10.109c.166-.323.421-.589.765-.797.344-.219.677-.328 1-.328h4.375c.281 0 .511.094.688.281a.904.904 0 01.281.688v15.203c0 .281-.094.51-.281.687a.932.932 0 01-.688.266h-3.265a.93.93 0 01-.688-.266.962.962 0 01-.266-.687v-10.25l-5.5 10.078c-.166.302-.421.568-.765.797-.344.219-.677.328-1 .328h-4.391a.93.93 0 01-.687-.266.93.93 0 01-.266-.687zm39.331.265c0 .459-.271.688-.813.688h-2.953c-1 0-1.797-.49-2.391-1.469l-1.984-3.234c-.854-1.386-2.094-2.078-3.719-2.078v5.828a.9.9 0 01-.281.687.911.911 0 01-.672.266h-3.5a.93.93 0 01-.687-.266.93.93 0 01-.266-.687v-15.203a.935.935 0 01.953-.969h3.5c.281 0 .511.094.688.281.177.177.265.406.265.688v5.812c1.813 0 3.052-.703 3.719-2.109l1.5-3.188c.208-.448.516-.807.922-1.078a2.32 2.32 0 011.312-.406h2.954c.52 0 .781.203.781.609 0 .23-.083.521-.25.875l-2.016 4.25a5.623 5.623 0 01-1.406 1.829c-.594.51-1.234.838-1.922.984 1.281.385 2.391 1.323 3.328 2.812l2.656 4.297c.178.302.271.563.282.781zm1.096-13.609v-1.859a.93.93 0 01.266-.688.955.955 0 01.703-.281h15.39c.282 0 .511.094.688.281a.93.93 0 01.266.688v1.859c0 .271-.089.5-.266.688-.177.177-.406.265-.688.265h-4.984v12.391a.935.935 0 01-.969.953h-3.484a.984.984 0 01-.703-.266.962.962 0 01-.266-.687v-12.391h-4.984a.983.983 0 01-.703-.265.966.966 0 01-.266-.688zm20.018 13.344v-15.203a.935.935 0 01.953-.969h3.5c.282 0 .511.094.688.281.177.177.265.406.265.688v4.703h3.719c2.219 0 3.932.437 5.141 1.312 1.219.875 1.828 2.349 1.828 4.422 0 2.063-.609 3.531-1.828 4.407-1.209.874-2.922 1.312-5.141 1.312h-8.172a.93.93 0 01-.687-.266.93.93 0 01-.266-.687zm5.313-2.531h3.328c1.364 0 2.047-.745 2.047-2.235 0-1.5-.683-2.25-2.047-2.25h-3.328v4.485zm12.984 2.531v-15.203a.93.93 0 01.266-.688.955.955 0 01.703-.281h3.484c.281 0 .511.094.688.281.177.177.265.406.265.688v15.203c0 .281-.088.51-.265.687a.932.932 0 01-.688.266h-3.484a.984.984 0 01-.703-.266.93.93 0 01-.266-.687z" fill="#2F2F2F"/><path d="M191.371 518.531v-19.453c0-.406.14-.755.421-1.047a1.381 1.381 0 011.032-.437h20.281c.406 0 .75.146 1.031.437.292.292.438.641.438 1.047v19.453c0 .407-.151.755-.453 1.047a1.458 1.458 0 01-1.047.422h-2.907c-.406 0-.755-.141-1.046-.422a1.427 1.427 0 01-.438-1.047v-16.515h-11.422v16.515c0 .407-.146.755-.437 1.047a1.406 1.406 0 01-1.032.422h-2.937c-.406 0-.755-.141-1.047-.422a1.426 1.426 0 01-.437-1.047z" fill="#5D3EFE"/><path d="M220.623 518.031c-1.604-1.521-2.406-3.708-2.406-6.562 0-2.865.807-5.063 2.422-6.594 1.614-1.542 3.854-2.313 6.718-2.313 2.865 0 5.099.75 6.704 2.25 1.604 1.49 2.406 3.631 2.406 6.422v.891a.932.932 0 01-.969.969h-11.766c.105 1.281.469 2.213 1.094 2.797.636.583 1.646.875 3.031.875 1.386 0 2.334-.313 2.844-.938.511-.625 1.141-.943 1.891-.953h2.328c.281 0 .51.094.687.281a.902.902 0 01.282.688c0 2.989-2.849 4.479-8.547 4.468-2.875 0-5.115-.76-6.719-2.281zm3.078-8.234h7.266c-.104-2.458-1.313-3.688-3.625-3.688-2.302 0-3.516 1.23-3.641 3.688zm16.081 14.515v-20.468c0-.282.088-.511.265-.688a.939.939 0 01.688-.281h3.016c.27 0 .494.094.671.281a.902.902 0 01.282.688v.468c1.646-1.166 3.557-1.75 5.734-1.75s3.995.771 5.453 2.313c1.459 1.531 2.188 3.729 2.188 6.594 0 2.854-.755 5.041-2.266 6.562-1.51 1.521-3.547 2.281-6.109 2.281-1.323 0-2.828-.265-4.516-.796v4.796a.904.904 0 01-.281.688.882.882 0 01-.672.281h-3.5a.935.935 0 01-.688-.281c-.177-.177-.265-.406-.265-.688zm5.406-8.406c1.344.427 2.474.641 3.391.641 1.427 0 2.437-.406 3.031-1.219.604-.812.906-2.109.906-3.89 0-1.782-.286-3.073-.859-3.876-.563-.812-1.412-1.218-2.547-1.218-1.125 0-2.432.468-3.922 1.406v8.156zm17.659 2.125c-1.604-1.521-2.406-3.708-2.406-6.562 0-2.865.807-5.063 2.421-6.594 1.615-1.542 3.855-2.313 6.719-2.313 2.865 0 5.099.75 6.703 2.25 1.605 1.49 2.407 3.631 2.407 6.422v.891a.952.952 0 01-.282.703.93.93 0 01-.687.266h-11.766c.104 1.281.469 2.213 1.094 2.797.635.583 1.646.875 3.031.875 1.386 0 2.334-.313 2.844-.938.51-.625 1.141-.943 1.891-.953h2.328c.281 0 .51.094.687.281a.9.9 0 01.281.688c0 2.989-2.848 4.479-8.546 4.468-2.875 0-5.115-.76-6.719-2.281zm3.078-8.234h7.266c-.105-2.458-1.313-3.688-3.625-3.688-2.302 0-3.516 1.23-3.641 3.688zm16.081 9.25v-15.203c0-.282.088-.511.265-.688a.939.939 0 01.688-.281h5.375c.614 0 1.083.385 1.406 1.156l3.812 9.313 3.813-9.313c.323-.771.792-1.156 1.406-1.156h5.375c.281 0 .511.094.688.281a.904.904 0 01.281.688v15.203c0 .281-.094.51-.281.687a.932.932 0 01-.688.266h-3.39a.93.93 0 01-.688-.266.962.962 0 01-.266-.687v-9.766l-4 9.625c-.322.729-.817 1.094-1.484 1.094h-1.531c-.656 0-1.146-.365-1.469-1.094l-4-9.625v9.766c0 .281-.094.51-.281.687a.93.93 0 01-.688.266h-3.39a.93.93 0 01-.688-.266c-.177-.177-.265-.406-.265-.687zm28.815-1.016c-1.605-1.521-2.407-3.708-2.407-6.562 0-2.865.808-5.063 2.422-6.594 1.615-1.542 3.854-2.313 6.719-2.313s5.099.75 6.703 2.25c1.604 1.49 2.406 3.631 2.406 6.422v.891a.951.951 0 01-.281.703.93.93 0 01-.687.266H313.93c.104 1.281.469 2.213 1.094 2.797.635.583 1.646.875 3.031.875 1.385 0 2.333-.313 2.844-.938.51-.625 1.14-.943 1.89-.953h2.328c.282 0 .511.094.688.281a.904.904 0 01.281.688c0 2.989-2.849 4.479-8.547 4.468-2.875 0-5.114-.76-6.718-2.281zm3.078-8.234h7.265c-.104-2.458-1.312-3.688-3.625-3.688-2.302 0-3.515 1.23-3.64 3.688zm16.08 9.25v-15.203a.93.93 0 01.266-.688.936.936 0 01.687-.281h3.5c.282 0 .511.094.688.281a.93.93 0 01.266.688v5.594h6.843v-5.594a.93.93 0 01.266-.688.955.955 0 01.703-.281h3.484c.282 0 .511.094.688.281a.93.93 0 01.266.688v15.203a.93.93 0 01-.266.687.93.93 0 01-.688.266h-3.484a.984.984 0 01-.703-.266.962.962 0 01-.266-.687v-5.828h-6.843v5.828a.9.9 0 01-.282.687.911.911 0 01-.672.266h-3.5a.93.93 0 01-.687-.266.93.93 0 01-.266-.687zm21.94 0v-15.203a.93.93 0 01.266-.688.936.936 0 01.687-.281h3.5c.282 0 .511.094.688.281a.93.93 0 01.266.688v4.703h3.718c2.219 0 3.933.437 5.141 1.312 1.219.875 1.828 2.349 1.828 4.422 0 2.063-.609 3.531-1.828 4.407-1.208.874-2.922 1.312-5.141 1.312h-8.172a.93.93 0 01-.687-.266.93.93 0 01-.266-.687zm5.313-2.531h3.328c1.365 0 2.047-.745 2.047-2.235 0-1.5-.682-2.25-2.047-2.25h-3.328v4.485zm12.984 2.531v-15.203a.93.93 0 01.266-.688.955.955 0 01.703-.281h3.484c.282 0 .511.094.688.281.177.177.265.406.265.688v15.203c0 .281-.088.51-.265.687a.93.93 0 01-.688.266h-3.484a.984.984 0 01-.703-.266.93.93 0 01-.266-.687zm183.726-53.891c-1.339 0-2.444-.442-3.341-1.326-.884-.884-1.326-2.015-1.326-3.38 0-1.365.442-2.483 1.326-3.367.897-.897 2.002-1.339 3.341-1.339.988 0 1.833.221 2.548.676v.988c-.793-.507-1.638-.767-2.535-.767-1.053 0-1.924.364-2.639 1.092-.715.715-1.066 1.625-1.066 2.717 0 1.105.351 2.015 1.066 2.73.715.715 1.612 1.079 2.665 1.079s1.95-.299 2.704-.91v1.001c-.741.533-1.651.806-2.743.806zm5.438-5.616c.637-.65 1.443-.975 2.444-.975s1.807.325 2.444.975c.637.637.949 1.417.949 2.327 0 .91-.312 1.69-.949 2.327s-1.443.962-2.444.962-1.807-.325-2.444-.962-.949-1.417-.949-2.327c0-.91.312-1.69.949-2.327zm4.875 2.327c0-.702-.234-1.287-.689-1.755-.455-.468-1.04-.702-1.742-.702s-1.287.234-1.742.702c-.455.468-.689 1.053-.689 1.755 0 .689.234 1.274.689 1.742.455.468 1.04.702 1.742.702s1.287-.234 1.742-.702c.455-.468.689-1.053.689-1.742zm5.373 3.133h-.936v-5.46h-2.275v-.819h5.486v.819h-2.275V465zm5.089-1.001v3.601h-.936v-8.879h.936v1.001c.585-.767 1.391-1.157 2.431-1.157.923 0 1.69.325 2.275.962s.884 1.417.884 2.327c0 .923-.299 1.703-.884 2.34-.585.637-1.352.962-2.275.962-1.04 0-1.846-.39-2.431-1.157zm0-3.172v2.067c.364.832 1.261 1.417 2.21 1.417.689 0 1.274-.234 1.729-.702a2.465 2.465 0 00.689-1.755c0-.689-.234-1.274-.689-1.742-.455-.468-1.04-.702-1.729-.702-.949 0-1.833.598-2.21 1.417zm7.955 6.825c-.455 0-.793-.065-1.001-.182v-.871c.273.143.559.208.858.208.78 0 1.274-.624 1.859-2.041l-2.795-6.045h1.04l2.223 4.94 2.158-4.94h1.014l-3.107 6.981c-.559 1.3-1.313 1.95-2.249 1.95zm6.895-.793h-.897v-2.678h.793c.702-.923 1.053-2.457 1.066-4.576l.013-.884h4.667v5.46h1.17v2.678h-.91V465h-5.902v1.859zm.936-2.678h3.77v-4.641h-2.86v.377c0 1.872-.299 3.289-.91 4.264zm8.792.819h-.936v-6.279h.936v2.639h3.861v-2.639h.936V465h-.936v-2.795h-3.861V465zm8.322 0h-.871v-6.279h.936v4.901l4.017-4.901h.871V465h-.936v-4.888L607.617 465zm12.715 0h-.936v-2.509c-.611.26-1.248.39-1.937.39-1.729 0-2.548-.715-2.548-2.587v-1.573h.936v1.495c0 1.352.494 1.82 1.794 1.82.637 0 1.222-.143 1.755-.416v-2.899h.936V465zm4.775-.689c.897 0 1.729-.481 2.184-1.053v-.871a3.688 3.688 0 00-2.041-.624c-1.144 0-1.859.481-1.859 1.261 0 .845.741 1.287 1.716 1.287zm-.26.845c-.663 0-1.235-.182-1.703-.546-.455-.377-.689-.884-.689-1.534 0-.637.247-1.144.728-1.521.494-.377 1.105-.559 1.846-.559.819 0 1.573.208 2.262.611v-.624c0-1.053-.689-1.573-2.067-1.573-.741 0-1.417.208-2.054.637v-.91c.611-.377 1.352-.572 2.249-.572 1.677 0 2.808.806 2.808 2.327v2.587c0 .481.234.78.598.78.143 0 .26-.026.364-.078v.728c-.13.091-.338.143-.624.143-.611 0-1.079-.325-1.183-1.001-.637.741-1.482 1.105-2.535 1.105zm11.863 0c-.832 0-1.534-.273-2.106-.819-.572-.546-.897-1.235-.975-2.08h-1.547V465h-.936v-6.279h.936v2.691h1.56c.078-.819.403-1.508.975-2.041.572-.533 1.274-.806 2.093-.806.91 0 1.664.312 2.249.949.598.637.897 1.417.897 2.353 0 .923-.299 1.703-.897 2.34-.585.637-1.339.949-2.249.949zm0-.845c.65 0 1.183-.234 1.599-.702.416-.468.624-1.053.624-1.742 0-.702-.208-1.287-.624-1.755-.416-.468-.949-.702-1.599-.702-.637 0-1.17.234-1.586.702-.416.468-.624 1.053-.624 1.755 0 .689.208 1.274.624 1.742.416.468.949.702 1.586.702zm13.866.689h-8.541v-6.279h.936v5.46h2.86v-5.46h.936v5.46h2.873v-5.46h.936V465zm3.523 0h-.871v-6.279h.936v4.901l4.017-4.901h.871V465h-.936v-4.888L654.099 465zm8.476 0h-.871v-6.279h.936v4.901l4.017-4.901h.871V465h-.936v-4.888L662.575 465zm2.054-7.345c-1.261 0-2.119-.78-2.132-1.976h.832c0 .715.507 1.222 1.287 1.222.767 0 1.274-.507 1.287-1.222h.819c-.013 1.196-.897 1.976-2.093 1.976zm-415.081-32.499c-.481 0-.858-.065-1.144-.182v-.897c.299.117.637.182.988.182.455 0 .806-.156 1.118-.572.156-.208.273-.39.364-.546.091-.156.208-.39.364-.702l-3.666-6.539h1.066l3.068 5.551 2.561-5.551h1.027l-3.354 7.176c-.715 1.521-1.469 2.08-2.392 2.08zm7.645-.156h-.91v-6.279h.91l2.509 2.912 2.522-2.912h.91V425h-.91v-4.992l-2.34 2.717h-.364l-2.327-2.717V425zm11.597.156c-.975 0-1.807-.312-2.47-.923-.663-.611-.988-1.404-.988-2.366 0-.949.299-1.729.884-2.353.598-.637 1.365-.949 2.301-.949 2.106 0 2.938 1.846 2.938 3.263v.26h-5.161c.104 1.352 1.17 2.223 2.678 2.223a3.68 3.68 0 002.015-.585v.832c-.52.403-1.248.598-2.197.598zm-2.483-3.835h4.199a2.146 2.146 0 00-.546-1.313c-.325-.403-.819-.598-1.482-.598-.637 0-1.144.195-1.534.572-.377.377-.598.819-.637 1.339zm8.283 2.678v3.601h-.936v-8.879h.936v1.001c.585-.767 1.391-1.157 2.431-1.157.923 0 1.69.325 2.275.962s.884 1.417.884 2.327c0 .923-.299 1.703-.884 2.34-.585.637-1.352.962-2.275.962-1.04 0-1.846-.39-2.431-1.157zm0-3.172v2.067c.364.832 1.261 1.417 2.21 1.417.689 0 1.274-.234 1.729-.702a2.465 2.465 0 00.689-1.755c0-.689-.234-1.274-.689-1.742-.455-.468-1.04-.702-1.729-.702-.949 0-1.833.598-2.21 1.417zm10.771 4.329c-.975 0-1.807-.312-2.47-.923-.663-.611-.988-1.404-.988-2.366 0-.949.299-1.729.884-2.353.598-.637 1.365-.949 2.301-.949 2.106 0 2.938 1.846 2.938 3.263v.26h-5.161c.104 1.352 1.17 2.223 2.678 2.223a3.68 3.68 0 002.015-.585v.832c-.52.403-1.248.598-2.197.598zm-2.483-3.835h4.199a2.146 2.146 0 00-.546-1.313c-.325-.403-.819-.598-1.482-.598-.637 0-1.144.195-1.534.572-.377.377-.598.819-.637 1.339zm8.283 3.679h-.936v-6.279h.936v2.639h3.861v-2.639h.936V425h-.936v-2.795h-3.861V425zm8.387 0h-.936v-6.279h.936v2.639h3.861v-2.639h.936V425h-.936v-2.795h-3.861V425zm14.628 0h-.936v-6.279h.936V425zm-4.329 0H307v-6.279h.936v2.106h1.872c1.469 0 2.392.819 2.392 2.08 0 1.235-.858 2.093-2.353 2.093zm-1.911-3.354v2.535h1.742c.988 0 1.573-.468 1.573-1.261 0-.819-.585-1.274-1.573-1.274h-1.742zm9.757 3.354h-.871v-6.279h.936v4.901l4.017-4.901h.871V425h-.936v-4.888L317.693 425zm2.054-7.345c-1.261 0-2.119-.78-2.132-1.976h.832c0 .715.507 1.222 1.287 1.222.767 0 1.274-.507 1.287-1.222h.819c-.013 1.196-.897 1.976-2.093 1.976zm240.149-154.499c-.481 0-.858-.065-1.144-.182v-.897c.299.117.637.182.988.182.455 0 .806-.156 1.118-.572.156-.208.273-.39.364-.546.091-.156.208-.39.364-.702l-3.666-6.539h1.066l3.068 5.551 2.561-5.551h1.027l-3.354 7.176c-.715 1.521-1.469 2.08-2.392 2.08zm12.021-.156h-.936v-2.509c-.611.26-1.248.39-1.937.39-1.729 0-2.548-.715-2.548-2.587v-1.573h.936v1.495c0 1.352.494 1.82 1.794 1.82.637 0 1.222-.143 1.755-.416v-2.899h.936V263zm3.007 2.652c-.455 0-.793-.065-1.001-.182v-.871c.273.143.559.208.858.208.78 0 1.274-.624 1.859-2.041l-2.795-6.045h1.04l2.223 4.94 2.158-4.94h1.014l-3.107 6.981c-.559 1.3-1.313 1.95-2.249 1.95zm10.021-2.496c-.949 0-1.755-.312-2.392-.936-.637-.637-.949-1.417-.949-2.366 0-.936.325-1.716.962-2.34.637-.637 1.443-.949 2.392-.949.728 0 1.365.156 1.898.455v.871a3.515 3.515 0 00-1.768-.481c-.715 0-1.326.234-1.807.702-.481.455-.715 1.04-.715 1.755 0 .702.234 1.287.715 1.755.481.455 1.092.689 1.807.689a3.37 3.37 0 001.885-.546v.858c-.585.351-1.261.533-2.028.533zm7.543-.156h-3.172v-6.279h.936v2.106h2.197c1.469 0 2.392.819 2.392 2.08 0 1.235-.858 2.093-2.353 2.093zm-2.236-3.354v2.535h2.067c.988 0 1.573-.468 1.573-1.261 0-.819-.585-1.274-1.573-1.274h-2.067zM601.808 263h-.91v-6.279h.91l2.509 2.912 2.522-2.912h.91V263h-.91v-4.992l-2.34 2.717h-.364l-2.327-2.717V263zm11.598.156c-.975 0-1.807-.312-2.47-.923-.663-.611-.988-1.404-.988-2.366 0-.949.299-1.729.884-2.353.598-.637 1.365-.949 2.301-.949 2.106 0 2.938 1.846 2.938 3.263v.26h-5.161c.104 1.352 1.17 2.223 2.678 2.223a3.68 3.68 0 002.015-.585v.832c-.52.403-1.248.598-2.197.598zm-2.483-3.835h4.199a2.146 2.146 0 00-.546-1.313c-.325-.403-.819-.598-1.482-.598-.637 0-1.144.195-1.534.572-.377.377-.598.819-.637 1.339zM623.379 263h-.936v-2.509c-.611.26-1.248.39-1.937.39-1.729 0-2.548-.715-2.548-2.587v-1.573h.936v1.495c0 1.352.494 1.82 1.794 1.82.637 0 1.222-.143 1.755-.416v-2.899h.936V263zm5.1 0h-.936v-5.46h-2.275v-.819h5.486v.819h-2.275V263zm6.272-.689c.897 0 1.729-.481 2.184-1.053v-.871a3.688 3.688 0 00-2.041-.624c-1.144 0-1.859.481-1.859 1.261 0 .845.741 1.287 1.716 1.287zm-.26.845c-.663 0-1.235-.182-1.703-.546-.455-.377-.689-.884-.689-1.534 0-.637.247-1.144.728-1.521.494-.377 1.105-.559 1.846-.559.819 0 1.573.208 2.262.611v-.624c0-1.053-.689-1.573-2.067-1.573-.741 0-1.417.208-2.054.637v-.91c.611-.377 1.352-.572 2.249-.572 1.677 0 2.808.806 2.808 2.327v2.587c0 .481.234.78.598.78.143 0 .26-.026.364-.078v.728c-.13.091-.338.143-.624.143-.611 0-1.079-.325-1.183-1.001-.637.741-1.482 1.105-2.535 1.105zm8.591-.156h-.936v-5.46h-2.275v-.819h5.486v.819h-2.275V263zm7.326 0h-3.172v-6.279h.936v2.106h2.197c1.469 0 2.392.819 2.392 2.08 0 1.235-.858 2.093-2.353 2.093zm-2.236-3.354v2.535h2.067c.988 0 1.573-.468 1.573-1.261 0-.819-.585-1.274-1.573-1.274h-2.067zM158.303 256h-.962v-9.1h3.822c1.82 0 2.912 1.014 2.912 2.522 0 1.547-1.092 2.561-2.912 2.561h-2.86V256zm0-8.229v3.341h2.795c1.287 0 2.028-.611 2.028-1.664 0-1.079-.741-1.677-2.028-1.677h-2.795zm8.812 8.229h-.871v-6.279h.936v4.901l4.017-4.901h.871V256h-.936v-4.888L167.115 256zm10.492.156c-.949 0-1.755-.312-2.392-.936-.637-.637-.949-1.417-.949-2.366 0-.936.325-1.716.962-2.34.637-.637 1.443-.949 2.392-.949.728 0 1.365.156 1.898.455v.871a3.515 3.515 0 00-1.768-.481c-.715 0-1.326.234-1.807.702-.481.455-.715 1.04-.715 1.755 0 .702.234 1.287.715 1.755.481.455 1.092.689 1.807.689a3.37 3.37 0 001.885-.546v.858c-.585.351-1.261.533-2.028.533zm4.371-6.435h.936v2.587l2.99-2.587h1.274l-3.315 2.834 3.783 3.445h-1.339l-3.393-3.094V256h-.936v-6.279zm7.697 8.931c-.455 0-.793-.065-1.001-.182v-.871c.273.143.559.208.858.208.78 0 1.274-.624 1.859-2.041l-2.795-6.045h1.04l2.223 4.94 2.158-4.94h1.014l-3.107 6.981c-.559 1.3-1.313 1.95-2.249 1.95zm12.864-2.496c-.832 0-1.534-.273-2.106-.819-.572-.546-.897-1.235-.975-2.08h-1.547V256h-.936v-6.279h.936v2.691h1.56c.078-.819.403-1.508.975-2.041.572-.533 1.274-.806 2.093-.806.91 0 1.664.312 2.249.949.598.637.897 1.417.897 2.353 0 .923-.299 1.703-.897 2.34-.585.637-1.339.949-2.249.949zm0-.845c.65 0 1.183-.234 1.599-.702.416-.468.624-1.053.624-1.742 0-.702-.208-1.287-.624-1.755-.416-.468-.949-.702-1.599-.702-.637 0-1.17.234-1.586.702-.416.468-.624 1.053-.624 1.755 0 .689.208 1.274.624 1.742.416.468.949.702 1.586.702zm15.022 2.548h-.845V256h-8.853v-6.279h.936v5.46h2.86v-5.46h.936v5.46h2.873v-5.46h.936v5.46h1.157v2.678zM220.41 256h-.871v-6.279h.936v4.901l4.017-4.901h.871V256h-.936v-4.888L220.41 256zm8.476 0h-.871v-6.279h.936v4.901l4.017-4.901h.871V256h-.936v-4.888L228.886 256zm2.054-7.345c-1.261 0-2.119-.78-2.132-1.976h.832c0 .715.507 1.222 1.287 1.222.767 0 1.274-.507 1.287-1.222h.819c-.013 1.196-.897 1.976-2.093 1.976zm206.365-120.499c-1.339 0-2.444-.442-3.341-1.326-.884-.884-1.326-2.015-1.326-3.38 0-1.365.442-2.483 1.326-3.367.897-.897 2.002-1.339 3.341-1.339.988 0 1.833.221 2.548.676v.988c-.793-.507-1.638-.767-2.535-.767-1.053 0-1.924.364-2.639 1.092-.715.715-1.066 1.625-1.066 2.717 0 1.105.351 2.015 1.066 2.73.715.715 1.612 1.079 2.665 1.079s1.95-.299 2.704-.91v1.001c-.741.533-1.651.806-2.743.806zm7.134-.156h-.936v-5.46h-2.275v-.819h5.486v.819h-2.275V128zm5.089-1.001v3.601h-.936v-8.879h.936v1.001c.585-.767 1.391-1.157 2.431-1.157.923 0 1.69.325 2.275.962s.884 1.417.884 2.327c0 .923-.299 1.703-.884 2.34-.585.637-1.352.962-2.275.962-1.04 0-1.846-.39-2.431-1.157zm0-3.172v2.067c.364.832 1.261 1.417 2.21 1.417.689 0 1.274-.234 1.729-.702a2.465 2.465 0 00.689-1.755c0-.689-.234-1.274-.689-1.742-.455-.468-1.04-.702-1.729-.702-.949 0-1.833.598-2.21 1.417zm10.772 4.329c-.975 0-1.807-.312-2.47-.923-.663-.611-.988-1.404-.988-2.366 0-.949.299-1.729.884-2.353.598-.637 1.365-.949 2.301-.949 2.106 0 2.938 1.846 2.938 3.263v.26h-5.161c.104 1.352 1.17 2.223 2.678 2.223a3.68 3.68 0 002.015-.585v.832c-.52.403-1.248.598-2.197.598zm-2.483-3.835h4.199a2.146 2.146 0 00-.546-1.313c-.325-.403-.819-.598-1.482-.598-.637 0-1.144.195-1.534.572-.377.377-.598.819-.637 1.339zm8.256 3.679h-.91v-6.279h.91l2.509 2.912 2.522-2.912h.91V128h-.91v-4.992l-2.34 2.717h-.364l-2.327-2.717V128zm7.763 0v-.858c.065.013.143.013.247.013.559 0 .923-.364 1.118-1.04.208-.689.273-1.365.312-2.392l.052-2.002h4.693V128h-.936v-5.46h-2.86l-.039 1.209c-.013.39-.026.728-.052 1.014-.052.572-.156 1.365-.377 1.872-.286.754-.897 1.43-1.885 1.378-.117 0-.208 0-.273-.013zm12.07.156c-.975 0-1.807-.312-2.47-.923-.663-.611-.988-1.404-.988-2.366 0-.949.299-1.729.884-2.353.598-.637 1.365-.949 2.301-.949 2.106 0 2.938 1.846 2.938 3.263v.26h-5.161c.104 1.352 1.17 2.223 2.678 2.223a3.68 3.68 0 002.015-.585v.832c-.52.403-1.248.598-2.197.598zm-2.483-3.835h4.199a2.146 2.146 0 00-.546-1.313c-.325-.403-.819-.598-1.482-.598-.637 0-1.144.195-1.534.572-.377.377-.598.819-.637 1.339zm8.282 3.679h-.936v-6.279h.936v2.639h3.861v-2.639h.936V128h-.936v-2.795h-3.861V128zm8.323 0h-.871v-6.279h.936v4.901l4.017-4.901h.871V128h-.936v-4.888L500.028 128zm10.608.156c-.975 0-1.807-.312-2.47-.923-.663-.611-.988-1.404-.988-2.366 0-.949.299-1.729.884-2.353.598-.637 1.365-.949 2.301-.949 2.106 0 2.938 1.846 2.938 3.263v.26h-5.161c.104 1.352 1.17 2.223 2.678 2.223a3.68 3.68 0 002.015-.585v.832c-.52.403-1.248.598-2.197.598zm-2.483-3.835h4.199a2.146 2.146 0 00-.546-1.313c-.325-.403-.819-.598-1.482-.598-.637 0-1.144.195-1.534.572-.377.377-.598.819-.637 1.339zm11.214-2.6h.936v2.587l2.99-2.587h1.274l-3.315 2.834 3.783 3.445h-1.339l-3.393-3.094V128h-.936v-6.279zm11.692 8.931c-.455 0-.793-.065-1.001-.182v-.871c.273.143.559.208.858.208.78 0 1.274-.624 1.859-2.041l-2.795-6.045h1.04l2.223 4.94 2.158-4.94h1.014l-3.107 6.981c-.559 1.3-1.313 1.95-2.249 1.95zm10.021-2.496c-.949 0-1.755-.312-2.392-.936-.637-.637-.949-1.417-.949-2.366 0-.936.325-1.716.962-2.34.637-.637 1.443-.949 2.392-.949.728 0 1.365.156 1.898.455v.871a3.515 3.515 0 00-1.768-.481c-.715 0-1.326.234-1.807.702-.481.455-.715 1.04-.715 1.755 0 .702.234 1.287.715 1.755.481.455 1.092.689 1.807.689a3.37 3.37 0 001.885-.546v.858c-.585.351-1.261.533-2.028.533zm5.308-.156h-.936v-6.279h5.642V128h-.936v-5.46h-3.77V128zm10.352.156c-.975 0-1.807-.312-2.47-.923-.663-.611-.988-1.404-.988-2.366 0-.949.299-1.729.884-2.353.598-.637 1.365-.949 2.301-.949 2.106 0 2.938 1.846 2.938 3.263v.26h-5.161c.104 1.352 1.17 2.223 2.678 2.223a3.68 3.68 0 002.015-.585v.832c-.52.403-1.248.598-2.197.598zm-2.483-3.835h4.199a2.146 2.146 0 00-.546-1.313c-.325-.403-.819-.598-1.482-.598-.637 0-1.144.195-1.534.572-.377.377-.598.819-.637 1.339zm7.598 3.679h-1.079l2.639-3.315-2.327-2.964h1.105l1.794 2.236 1.794-2.236h1.092l-2.34 2.938 2.639 3.341h-1.105l-2.093-2.626-2.119 2.626zm7.662 2.652c-.455 0-.793-.065-1.001-.182v-.871c.273.143.559.208.858.208.78 0 1.274-.624 1.859-2.041l-2.795-6.045h1.04l2.223 4.94 2.158-4.94h1.014l-3.107 6.981c-.559 1.3-1.313 1.95-2.249 1.95z" fill="#2F2F2F"/><defs><radialGradient id="paint0_angular_401_11011" cx="0" cy="0" r="1" gradientUnits="userSpaceOnUse" gradientTransform="matrix(-25.99997 168 -154.54024 -23.91691 416.5 295)"><stop offset=".066" stop-color="#5D3EFE" stop-opacity=".7"/><stop offset=".295" stop-color="#17FF58" stop-opacity=".7"/><stop offset=".5" stop-color="#EAB020" stop-opacity=".7"/><stop offset=".717" stop-color="#FF5356"/><stop offset=".935" stop-color="#9A19FF"/></radialGradient></defs></svg>