<svg width="31" height="31" fill="none" xmlns="http://www.w3.org/2000/svg"><path d="M.018 15.684C.018 7.318 6.808.535 15.175.535s15.158 6.783 15.158 15.15c0 8.366-6.791 15.149-15.158 15.149-8.367 0-15.157-6.783-15.157-15.15z" fill="url(#paint0_linear_39_7745)"/><path d="M1.84 15.684c0-7.358 5.974-13.326 13.335-13.326 7.361 0 13.335 5.968 13.335 13.326 0 7.359-5.974 13.327-13.335 13.327-7.361 0-13.335-5.968-13.335-13.327z" stroke="#fff" stroke-opacity=".2" stroke-width="3.646"/><path d="M3.558 15.87c0-6.514 5.288-11.796 11.803-11.796 6.515 0 11.803 5.282 11.803 11.797 0 6.515-5.288 11.796-11.803 11.796-6.515 0-11.803-5.281-11.803-11.796z" fill="url(#paint1_linear_39_7745)"/><defs><linearGradient id="paint0_linear_39_7745" x1="5.34" y1="3.372" x2="21.955" y2="29.575" gradientUnits="userSpaceOnUse"><stop stop-color="#FFE092"/><stop offset="1" stop-color="#E3A302"/></linearGradient><linearGradient id="paint1_linear_39_7745" x1="7.702" y1="6.284" x2="20.64" y2="26.687" gradientUnits="userSpaceOnUse"><stop stop-color="#FFE092"/><stop offset="1" stop-color="#E3A302"/></linearGradient></defs></svg>