<svg width="162" height="40" fill="none" xmlns="http://www.w3.org/2000/svg"><g filter="url(#filter0_b_13_224)"><rect width="162" height="40" rx="8" fill="#fff" fill-opacity=".4"/><g clip-path="url(#clip0_13_224)"><path d="M28.974 11.145c-.77.62-1.315 1.167-1.957 1.771" stroke="#B38C8B" stroke-width=".122"/><path d="M20.237 17.304l.035.034a.03.03 0 01.009.03c-.028.16-.047.321-.055.483-.005.078-.042.165-.023.258a.06.06 0 01-.001.03.558.558 0 00-.016.213c.001.01 0 .021-.004.031-.037.098-.011.202-.012.279-.004.171-.005.342-.006.513 0 .097.007.18.021.25.002.007.007.011.014.011s.014.002.02.004c.013.004.012.006-.002.006a.102.102 0 00-.044.007" stroke="#7566D2" stroke-width=".122"/><path d="M30.026 27.19c.644-.463 1.267-1 1.87-1.61a.293.293 0 00.062-.08" stroke="#B38C8B" stroke-width=".122"/><path d="M37.575 19.598c-.047.018-.054.041-.02.068.069.054.136.2.185.276.007.01.01.022.01.034-.002.021.009.03.03.026.013-.003.022 0 .03.012.385.62.52 1.252.489 1.978-.003.063-.029.119-.034.185-.032.423-.279.932-.507 1.287a.05.05 0 00-.008.03l.001.03" stroke="#7566D2" stroke-width=".122"/><path d="M38.758 20.217c-.065.065-.007.205.017.285.001.005.003.005.005 0l.003-.011c.003-.01.006-.01.007 0 .017.133.071.253.086.384.02.161.07.329.077.493.005.106.013.212.024.318.007.078-.025.148-.029.214a5.649 5.649 0 01-.008.13c-.006.087-.037.175-.04.288a2.461 2.461 0 01-.12.556c-.013.043 0 .088.041.135" stroke="#8D75B7" stroke-width=".122"/><path d="M41.31 22.755l.02-.01c.005-.003.006-.007.003-.012a.02.02 0 00-.006-.008.013.013 0 01-.006-.012c.018-.125.053-.257.068-.372.078-.63.024-1.218-.079-1.842m-17.256.36c.02-.149.02-.278.003-.387a1.612 1.612 0 01-.024-.374.08.08 0 00-.005-.031c-.05-.14-.022-.418-.033-.65-.02-.434-.013-.848-.004-1.272.003-.14.041-.309.034-.471-.005-.098.04-.18.038-.289a1.244 1.244 0 01.02-.243c.024-.13.017-.248.04-.397.012-.083-.002-.157.02-.24.056-.211.033-.343.082-.535.011-.045-.005-.085-.05-.12" stroke="#F0B245" stroke-width=".122"/><path d="M21.526 19.565c.015-.711-.017-1.42.064-2.13.01-.086.009-.173-.002-.26" stroke="#AF8A90" stroke-width=".122"/><path d="M22.58 19.92c.01-.016.01-.03 0-.04-.007-.006-.007-.013-.002-.02a.05.05 0 00.011-.029c.003-.328.001-.844-.004-1.547a1.91 1.91 0 01.041-.386l-.008-.001c-.007-.002-.01-.006-.011-.013-.003-.07.005-.17.026-.298.023-.144-.006-.338.038-.509a.855.855 0 00.023-.295" stroke="#D6A263" stroke-width=".122"/><path d="M21.228 19.51c.034-.54-.018-1.151.022-1.575.016-.17.022-.313.018-.426-.003-.095.024-.183.032-.277" stroke="#9F80A3" stroke-width=".122"/><path d="M20.868 19.471a.111.111 0 00.044-.079.2.2 0 00-.02-.082.266.266 0 01-.02-.119c.01-.147-.008-.291.01-.438.016-.133.024-.228.024-.285.002-.322-.035-.572.022-.817a.056.056 0 00-.001-.03c-.035-.107.015-.16.011-.252 0-.03-.003-.06-.006-.09" stroke="#8D75B7" stroke-width=".122"/><path d="M21.948 19.677a1.24 1.24 0 00.026-.303 2.25 2.25 0 01-.011-.402.05.05 0 00-.007-.029c-.033-.058-.002-.12-.003-.165a6.151 6.151 0 01.035-.729c.014-.137 0-.26-.01-.395a2.599 2.599 0 01.012-.446.868.868 0 00.007-.143" stroke="#C1957B" stroke-width=".122"/><path d="M39.306 20.392c.017.024.02.051.008.082a.048.048 0 000 .033c.044.126.054.287.07.38.02.124.034.248.041.373.004.06.024.114.025.172.002.316.006.637-.051.949a6.495 6.495 0 00-.069.469" stroke="#9F80A3" stroke-width=".122"/><path d="M40.24 20.543a.594.594 0 00-.007.356.861.861 0 01.031.284c-.003.055.03.101.03.143l.002.743c0 .01-.003.02-.008.03a.16.16 0 00-.023.069 35.24 35.24 0 00-.04.467.039.039 0 00.011.031l.009.01c.01.01.009.017-.006.02a.06.06 0 00-.032.016" stroke="#C1957B" stroke-width=".122"/><path d="M40.53 22.696c.017-.131.033-.262.047-.394.032-.304.014-.627.019-.94.001-.106-.041-.223-.033-.316.014-.162-.05-.274-.027-.423.006-.037-.006-.067-.047-.068" stroke="#D6A263" stroke-width=".122"/><path d="M39.634 20.466c.036.101.025.208.053.303.035.119.048.24.038.364-.005.07.033.127.03.183a6.704 6.704 0 00-.002.442c.009.342-.02.681-.085 1.018" stroke="#AF8A90" stroke-width=".122"/><path d="M28.974 11.145c-.77.62-1.315 1.167-1.957 1.771a4.685 4.685 0 00-1.295-.647c-.862-.275-1.684-.047-2.42.444-.415.277-.807.58-1.178.91-.926.827-1.86 1.747-2.603 2.742-.128.172-.206.33-.233.474-.082.43.623.446.95.465l.034.034a.03.03 0 01.009.03c-.028.16-.046.32-.055.483-.005.078-.042.165-.023.258a.06.06 0 010 .03.558.558 0 00-.017.213c.001.01 0 .021-.004.031-.037.098-.011.202-.012.279l-.006.513c0 .097.007.18.021.25.002.007.007.01.015.011.006 0 .013.002.019.004.013.004.013.006-.001.006a.101.101 0 00-.045.007c-.232.016-.867.05-.919.362-.05.298.318.822.493 1.06a22.523 22.523 0 001.686 2.004 42.337 42.337 0 003.106 3.013c.716.622 1.574 1.275 2.483 1.681.782.35 1.552.395 2.334-.002.196-.1.419-.227.67-.381.644-.463 1.267-1 1.87-1.61a.294.294 0 00.062-.08 17.243 17.243 0 001.532-1.67c.274-.34.508-.707.702-1.098.459-.927.274-1.845-.214-2.706-1.013-1.785-2.544-3.195-3.966-4.646a.012.012 0 01-.002-.004.012.012 0 01-.001-.005v-.005l.003-.004c.584-.586 1.199-1.156 1.888-1.595.096-.06.248.135.309.195a45.227 45.227 0 012.227 2.353c.385.442.742.916 1.11 1.377a9.271 9.271 0 002.029 1.906c-.047.018-.054.041-.02.068.069.054.136.2.185.276.007.01.01.022.01.034-.002.021.009.03.03.026.013-.003.022 0 .03.012.385.62.52 1.252.49 1.978-.004.063-.03.119-.035.185-.032.423-.279.932-.507 1.287a.05.05 0 00-.008.03l.001.03a9.846 9.846 0 00-2.013 1.656c-.318.342-.665.752-.904 1.014a31.283 31.283 0 01-1.893 1.898c-1.694 1.566-3.704 2.814-6.125 2.114-1.342-.387-2.569-1.228-3.64-2.128-1.33-1.117-2.546-2.32-3.72-3.574-1.128-1.203-2.219-2.532-2.875-4.04-.432-.993-.571-2.152-.307-3.218.27-1.089.895-2.084 1.619-2.938a25.048 25.048 0 012.98-2.97c.65-.546 1.398-1.048 2.183-1.362 2.19-.876 4.118-.102 5.918 1.17z" fill="#675DE2"/><path d="M41.31 22.755l.02-.01c.005-.004.006-.007.004-.012a.02.02 0 00-.007-.008.013.013 0 01-.005-.012c.017-.125.052-.257.066-.372.079-.63.025-1.219-.077-1.842.178-.041.399-.111.434-.282.054-.262-.126-.57-.29-.819-.22-.33-.455-.65-.708-.956-.984-1.196-2.081-2.292-3.198-3.363a22.705 22.705 0 00-1.802-1.568c-.738-.57-1.571-1.125-2.444-1.314-1.255-.271-2.432.636-3.31 1.419a24.381 24.381 0 00-2.033 2.039c-.426.483-.808.981-1.108 1.574-.645 1.269-.093 2.386.613 3.443.277.415.66.899 1.146 1.451a40.735 40.735 0 003.347 3.377.294.294 0 01-.063.08 14.615 14.615 0 01-1.87 1.61c-1.562-1.416-3.07-2.96-4.356-4.63-.485-.63-1-1.192-1.615-1.701.02-.149.02-.278.003-.387a1.606 1.606 0 01-.024-.374.08.08 0 00-.005-.031c-.05-.14-.022-.418-.033-.65a19.288 19.288 0 01-.004-1.272c.003-.14.041-.309.034-.471-.005-.098.04-.18.038-.29a1.244 1.244 0 01.02-.242c.024-.13.017-.248.04-.397.012-.083-.002-.157.02-.24.056-.211.033-.343.082-.535.011-.045-.005-.085-.05-.12.433-.361.822-.726 1.167-1.095.365-.39.757-.862 1.143-1.273.175-.188.353-.376.532-.566.642-.604 1.188-1.151 1.957-1.77 1.724-1.374 3.652-2.01 5.798-1.158 1.483.589 2.824 1.661 3.992 2.737 1.616 1.486 3.294 3.144 4.606 4.952.91 1.252 1.598 2.708 1.5 4.284-.067 1.059-.521 2.054-1.123 2.916-.817 1.168-1.834 2.164-2.866 3.14-1.712 1.62-3.803 2.923-6.273 2.17a7.498 7.498 0 01-1.395-.59.021.021 0 01-.004-.009l.001-.01a34.612 34.612 0 001.974-1.869.023.023 0 01.026-.005c1.067.375 1.96-.002 2.818-.628.963-.7 1.812-1.569 2.627-2.431.283-.298 1.175-1.262 1.072-1.625-.048-.17-.254-.227-.416-.265z" fill="#FB3"/><path d="M24.175 15.85c.045.035.061.075.05.12-.05.192-.026.324-.082.536-.022.082-.008.156-.02.24-.023.148-.016.266-.04.396-.015.08-.022.161-.02.243.002.108-.043.191-.038.289.007.162-.03.331-.034.471-.009.424-.015.838.004 1.272.01.232-.018.51.033.65.004.01.005.02.005.03-.008.107 0 .232.024.375.018.11.017.238-.003.387a7.102 7.102 0 00-1.474-.94c.01-.015.01-.029 0-.039-.007-.006-.007-.013-.002-.02a.05.05 0 00.011-.029c.003-.328.001-.844-.004-1.547a1.902 1.902 0 01.041-.386l-.008-.001c-.007-.001-.01-.006-.011-.013-.003-.07.006-.17.026-.298.023-.144-.006-.338.038-.509a.853.853 0 00.023-.295 7.9 7.9 0 001.481-.932z" fill="#E0A857"/><path d="M22.694 16.782c.01.1.002.199-.023.295-.043.17-.015.365-.038.509-.02.128-.03.228-.026.298 0 .007.004.011.011.013l.009.001a1.916 1.916 0 00-.042.385c.005.704.007 1.22.004 1.548a.05.05 0 01-.01.029c-.006.007-.006.014 0 .02.01.01.01.024.001.04l-.632-.243a1.19 1.19 0 00.026-.303 2.24 2.24 0 01-.01-.402.06.06 0 00-.008-.029c-.033-.058-.002-.12-.003-.166a6.172 6.172 0 01.035-.728c.014-.137 0-.26-.01-.396a2.61 2.61 0 01.012-.445.868.868 0 00.007-.143 7.07 7.07 0 00.697-.283z" fill="#CB9B6F"/><path d="M21.997 17.064a.868.868 0 01-.007.144c-.016.13-.02.314-.011.445.009.136.023.259.009.396a6.171 6.171 0 00-.035.729c.001.045-.03.107.003.165a.051.051 0 01.007.03c-.008.134-.005.268.011.401a1.19 1.19 0 01-.026.303l-.422-.112c.015-.711-.017-1.42.064-2.13a1.11 1.11 0 00-.002-.26l.41-.11z" fill="#B78F86"/><path d="M21.588 17.174c.01.088.011.175.002.26-.08.711-.049 1.42-.064 2.131l-.298-.056c.034-.538-.018-1.15.022-1.574.016-.17.022-.313.018-.426-.003-.095.024-.183.033-.277l.287-.058z" fill="#A6849A"/><path d="M21.3 17.232c-.008.094-.035.182-.032.277.004.113-.002.255-.018.426-.04.424.012 1.036-.022 1.574l-.36-.038a.11.11 0 00.044-.079.196.196 0 00-.02-.082.266.266 0 01-.02-.119c.01-.147-.008-.291.01-.438.016-.133.024-.228.024-.285.002-.322-.035-.573.022-.817a.057.057 0 000-.03c-.036-.107.014-.16.01-.252 0-.03-.003-.06-.006-.09l.369-.047z" fill="#977BAB"/><path d="M20.932 17.278a.969.969 0 01.006.091c.004.093-.046.145-.01.252a.06.06 0 010 .03c-.057.245-.02.495-.022.817 0 .057-.008.152-.024.285-.018.147 0 .29-.01.438-.003.04.004.08.02.12a.198.198 0 01.02.081.11.11 0 01-.044.08 4.904 4.904 0 00-.695-.02.103.103 0 01.045-.006c.014 0 .014-.002 0-.006a.064.064 0 00-.018-.004c-.008 0-.013-.004-.015-.011a1.22 1.22 0 01-.02-.25c0-.17.002-.342.005-.513 0-.077-.025-.18.012-.279.004-.01.005-.02.004-.031a.556.556 0 01.016-.213.059.059 0 00.001-.03c-.02-.093.018-.18.023-.258.008-.162.027-.323.055-.484a.03.03 0 00-.01-.029l-.034-.034c.23.003.462-.006.695-.026zm16.643 2.32a6.67 6.67 0 001.183.619c-.065.065-.007.205.017.285.002.005.003.005.005 0l.003-.011c.004-.01.006-.01.007 0 .017.133.071.253.087.384.019.161.069.329.076.493.005.106.013.212.024.318.007.078-.025.148-.029.214a5.127 5.127 0 01-.008.13c-.006.087-.037.175-.04.288-.003.116-.043.302-.12.556-.013.043.001.088.041.135a7.011 7.011 0 00-1.07.515l-.001-.03c0-.011.002-.021.008-.03.228-.355.475-.864.507-1.287.005-.066.031-.122.034-.185.03-.726-.104-1.358-.49-1.978-.007-.011-.016-.015-.029-.012-.021.004-.032-.005-.03-.026a.057.057 0 00-.01-.034c-.049-.077-.116-.222-.185-.276-.034-.027-.027-.05.02-.068z" fill="#836EC2"/><path d="M38.758 20.217l.548.175c.017.024.02.051.008.082a.048.048 0 000 .033c.044.126.054.287.07.38.02.124.034.248.041.373.004.06.024.114.025.172.002.316.006.637-.051.949a6.494 6.494 0 00-.069.469l-.509.16c-.04-.048-.054-.093-.04-.136.076-.254.116-.44.119-.556.003-.113.034-.201.04-.288l.008-.13c.004-.066.036-.136.029-.214a5.63 5.63 0 01-.023-.318c-.008-.164-.058-.332-.078-.493-.015-.13-.069-.25-.086-.383-.001-.01-.003-.01-.007-.001l-.003.01c-.002.005-.004.005-.005 0-.024-.079-.082-.22-.017-.284z" fill="#977BAB"/><path d="M39.306 20.392l.328.074c.036.101.025.208.053.303.035.119.048.24.038.364-.005.07.033.126.03.183a6.776 6.776 0 00-.002.442c.009.342-.02.681-.085 1.018l-.338.074a6.55 6.55 0 01.069-.469c.057-.312.053-.634.05-.95 0-.057-.02-.11-.024-.17a3.695 3.695 0 00-.041-.374c-.016-.093-.026-.254-.07-.38a.048.048 0 010-.033.084.084 0 00-.008-.082z" fill="#A6849A"/><path d="M39.634 20.466l.605.077a.596.596 0 00-.006.356.857.857 0 01.031.284c-.003.055.03.101.03.143l.002.743c0 .01-.003.02-.008.03a.159.159 0 00-.023.068c-.014.156-.028.312-.04.468a.04.04 0 00.011.031l.009.01c.01.01.009.017-.006.02a.059.059 0 00-.032.016l-.539.064c.066-.337.094-.676.085-1.018a6.773 6.773 0 01.002-.442c.003-.057-.035-.113-.03-.183a.998.998 0 00-.038-.364c-.028-.095-.017-.202-.053-.303z" fill="#B78F86"/><path d="M41.31 20.499c.103.624.157 1.212.078 1.843-.014.114-.049.246-.066.37-.001.006 0 .01.005.014a.02.02 0 01.006.007c.003.005.002.009-.003.011l-.02.01a6.151 6.151 0 00-.78-.058c.017-.131.033-.262.047-.394.032-.304.014-.627.019-.94.002-.106-.041-.223-.033-.316.014-.162-.05-.274-.027-.423.006-.037-.006-.067-.047-.068.275 0 .549-.018.822-.056z" fill="#E0A857"/><path d="M40.24 20.543l.249.012c.04.001.053.031.047.068-.023.149.041.261.027.423-.008.093.034.21.033.316-.005.313.013.636-.02.94-.013.132-.029.263-.047.394l-.322.016a.059.059 0 01.032-.016c.015-.003.017-.01.006-.02l-.009-.01a.038.038 0 01-.011-.03c.012-.157.026-.313.04-.468a.16.16 0 01.023-.07.054.054 0 00.008-.03l-.002-.742c0-.042-.033-.088-.03-.143a.856.856 0 00-.031-.284.596.596 0 01.007-.356z" fill="#CB9B6F"/></g><path d="M63.3 25.613c0 .258-.152.387-.457.387H60.83c-.228 0-.474-.08-.738-.237a1.916 1.916 0 01-.615-.59l-1.547-2.451c-.37-.598-.742-1.046-1.117-1.345-.375-.305-.826-.457-1.353-.457h-1.89v4.271a.775.775 0 01-.246.58.805.805 0 01-.58.229h-1.652a.804.804 0 01-.59-.246.833.833 0 01-.245-.598V14.231c0-.228.082-.427.246-.597a.79.79 0 01.589-.255h1.652c.229 0 .422.085.58.255.164.17.246.369.246.597v4.21h1.89c.516 0 .967-.14 1.353-.421.393-.282.765-.736 1.117-1.363l1.362-2.426c.31-.562.732-.846 1.266-.852h2.03c.281 0 .422.123.422.369 0 .135-.05.296-.15.483l-1.907 3.455c-.275.503-.586.92-.931 1.248-.34.328-.786.56-1.337.694.387.082.783.325 1.187.73.41.404.77.843 1.081 1.318l2.197 3.498c.1.17.15.316.15.44zm1.916-.703c-.914-.844-1.371-2.086-1.371-3.726 0-1.647.457-2.89 1.37-3.727.915-.844 2.227-1.266 3.938-1.266 1.717 0 3.032.422 3.947 1.266.914.838 1.37 2.08 1.37 3.727 0 1.64-.456 2.882-1.37 3.726-.914.844-2.23 1.266-3.947 1.266-1.71 0-3.023-.422-3.937-1.266zm2.224-6.012c-.364.475-.546 1.234-.546 2.277 0 1.043.182 1.805.545 2.285.364.48.935.72 1.714.72.785 0 1.36-.24 1.723-.72.37-.48.554-1.242.554-2.285 0-1.043-.185-1.802-.554-2.277-.363-.474-.938-.712-1.723-.712-.779 0-1.35.238-1.714.712zm8.657 6.566V13.94a.523.523 0 01.536-.545h1.969c.152 0 .278.053.377.159.106.1.159.228.159.386v11.523a.526.526 0 01-.536.536h-1.97a.542.542 0 01-.386-.15.542.542 0 01-.15-.386zm5.203 0V13.94a.523.523 0 01.536-.545h1.969c.152 0 .278.053.378.159.105.1.158.228.158.386v11.523a.526.526 0 01-.536.536h-1.97a.542.542 0 01-.386-.15.542.542 0 01-.15-.386zm5.818-.097c-.773-.539-1.16-1.3-1.16-2.285 0-.984.387-1.74 1.16-2.268.78-.527 1.781-.79 3.006-.79h2.91c0-.686-.144-1.164-.431-1.433-.288-.27-.791-.405-1.512-.405-.715 0-1.219.18-1.512.537-.287.351-.641.527-1.063.527h-1.31a.554.554 0 01-.395-.15.542.542 0 01-.15-.386c0-1.682 1.597-2.523 4.79-2.523 1.395 0 2.514.314 3.358.94.843.622 1.265 1.586 1.265 2.892v5.44c0 .16-.05.288-.15.388a.52.52 0 01-.386.149h-1.696a.523.523 0 01-.387-.15.542.542 0 01-.15-.386v-.273c-.925.663-1.995.99-3.207.985-1.207 0-2.2-.27-2.98-.809zm3.217-3.348c-.41 0-.735.1-.976.298a.968.968 0 00-.351.774c0 .316.123.577.369.782.246.205.595.308 1.046.308.902 0 1.772-.264 2.61-.791v-1.371h-2.698zm7.91-8.078a.523.523 0 01.536-.545h1.969c.152 0 .278.053.378.159a.51.51 0 01.158.386v2.699c.949-.3 1.796-.449 2.54-.449 1.442 0 2.587.431 3.437 1.292.849.856 1.274 2.092 1.274 3.71 0 3.322-1.86 4.983-5.581 4.983-.85 0-1.731-.094-2.645-.281-.909-.194-1.597-.428-2.066-.704v-11.25zm3.041 4.729v5.185c.504.135 1.146.203 1.925.203.779 0 1.339-.226 1.679-.677.345-.451.518-1.18.518-2.189 0-1.007-.17-1.737-.51-2.188-.334-.457-.902-.686-1.705-.686-.515 0-1.151.117-1.907.352zm8.877-4.14v-.299c0-.31.088-.556.264-.738.181-.181.43-.272.747-.272h1.09c.31 0 .556.09.738.272.182.176.272.422.272.738v.3c0 .31-.09.556-.272.738-.176.181-.422.272-.738.272h-1.09c-.311 0-.557-.09-.738-.272-.182-.182-.273-.428-.273-.739zm.035 10.934v-8.341c0-.158.05-.287.15-.387a.54.54 0 01.386-.15h1.969a.51.51 0 01.387.16.512.512 0 01.149.377v8.34a.506.506 0 01-.158.388c-.1.1-.226.149-.378.149h-1.969a.521.521 0 01-.386-.15.522.522 0 01-.15-.386zm5.239-3.516v-5.036a.521.521 0 01.536-.545h1.968c.153 0 .279.053.378.158.106.1.159.229.159.387v5.036c0 1.407.556 2.11 1.669 2.11.733 0 1.521-.422 2.365-1.266v-5.88a.525.525 0 01.536-.545h1.96a.51.51 0 01.387.158.51.51 0 01.158.387v8.552a.528.528 0 01-.545.536h-1.96a.544.544 0 01-.387-.15.545.545 0 01-.149-.386V24.9c-1.008.85-2.083 1.275-3.226 1.275-1.137 0-2.062-.346-2.777-1.037-.715-.698-1.072-1.761-1.072-3.19zm12.462 3.208V14.25c0-.24.08-.442.238-.606a.774.774 0 01.58-.247h3.577c.228 0 .445.082.65.247.205.164.343.36.413.588l2.593 7.506 2.593-7.506c.07-.228.208-.424.413-.588.205-.165.422-.247.65-.247h3.578c.228 0 .419.082.571.247a.84.84 0 01.237.606v10.907c0 .24-.082.443-.246.607a.788.788 0 01-.58.237h-1.582a.818.818 0 01-.589-.237.84.84 0 01-.237-.607V16.57l-3.103 8.64a1.277 1.277 0 01-.43.563 1.074 1.074 0 01-.651.228h-1.257a1.07 1.07 0 01-.65-.229 1.375 1.375 0 01-.431-.562l-3.093-8.64v8.587c0 .24-.082.443-.247.607a.788.788 0 01-.58.237h-1.582a.817.817 0 01-.588-.237.821.821 0 01-.247-.607z" fill="#1E1E1E"/><rect x=".5" y=".5" width="161" height="39" rx="7.5" stroke="url(#paint0_linear_13_224)"/></g><defs><linearGradient id="paint0_linear_13_224" x1="0" y1="0" x2="2.307" y2="47.721" gradientUnits="userSpaceOnUse"><stop stop-color="#fff"/><stop offset=".505" stop-color="#fff" stop-opacity="0"/><stop offset="1" stop-color="#fff"/></linearGradient><clipPath id="clip0_13_224"><path fill="#fff" transform="translate(16 9.5)" d="M0 0h29v21H0z"/></clipPath><filter id="filter0_b_13_224" x="-20" y="-20" width="202" height="80" filterUnits="userSpaceOnUse" color-interpolation-filters="sRGB"><feFlood flood-opacity="0" result="BackgroundImageFix"/><feGaussianBlur in="BackgroundImageFix" stdDeviation="10"/><feComposite in2="SourceAlpha" operator="in" result="effect1_backgroundBlur_13_224"/><feBlend in="SourceGraphic" in2="effect1_backgroundBlur_13_224" result="shape"/></filter></defs></svg>