<svg width="55" height="40" fill="none" xmlns="http://www.w3.org/2000/svg"><g clip-path="url(#clip0_414_8996)"><path d="M24.605 3.134c-1.458 1.18-2.493 2.222-3.71 3.373" stroke="#B38C8B" stroke-width=".122"/><path d="M8.036 14.865l.066.066a.058.058 0 01.017.055 7.877 7.877 0 00-.105.921c-.008.148-.08.314-.043.492a.114.114 0 01-.001.056c-.037.135-.047.27-.031.406.002.02 0 .04-.007.06-.07.186-.022.385-.024.53-.006.327-.01.652-.01.978 0 .184.012.343.04.475.003.015.012.022.027.022.013 0 .025.003.036.007.025.01.024.013-.002.012a.194.194 0 00-.085.013" stroke="#7566D2" stroke-width=".122"/><path d="M26.6 33.695a27.763 27.763 0 003.546-3.065.563.563 0 00.12-.153" stroke="#B38C8B" stroke-width=".122"/><path d="M40.917 19.233c-.089.036-.101.08-.036.131.13.102.258.379.35.525.012.02.018.042.018.065-.002.041.017.057.058.049.024-.006.042.002.055.023.732 1.181.987 2.386.93 3.768-.006.12-.056.226-.065.352-.06.807-.529 1.776-.962 2.451a.095.095 0 00-.015.057l.002.058" stroke="#7566D2" stroke-width=".122"/><path d="M43.162 20.413c-.124.124-.013.392.032.543.003.009.006.009.01 0l.006-.02c.006-.019.01-.018.013 0 .032.253.134.482.164.73.036.308.131.627.146.94.009.202.023.403.044.605.014.148-.048.283-.055.409-.004.082-.009.165-.015.247-.01.165-.07.333-.076.548-.006.222-.082.575-.226 1.06-.025.082 0 .168.077.257" stroke="#8D75B7" stroke-width=".122"/><path d="M48.003 25.247l.037-.02c.009-.005.01-.012.006-.022a.036.036 0 00-.012-.014.025.025 0 01-.01-.024c.033-.237.1-.488.127-.707.148-1.2.047-2.322-.148-3.51m-32.728.686c.038-.283.04-.529.005-.737a3.073 3.073 0 01-.046-.713.144.144 0 00-.008-.059c-.097-.266-.043-.795-.063-1.238a36.442 36.442 0 01-.007-2.422c.006-.266.077-.589.063-.898-.008-.186.076-.344.072-.55-.002-.156.01-.31.038-.463.046-.248.033-.472.076-.755.024-.16-.003-.3.038-.457.107-.404.063-.654.156-1.02.022-.087-.01-.163-.095-.23" stroke="#F0B245" stroke-width=".122"/><path d="M10.48 19.172c.029-1.354-.031-2.705.12-4.058a2.123 2.123 0 00-.002-.496" stroke="#AF8A90" stroke-width=".122"/><path d="M12.48 19.847c.018-.03.017-.056-.002-.076-.011-.011-.012-.024-.002-.038a.093.093 0 00.02-.054c.005-.626.003-1.608-.007-2.948a3.635 3.635 0 01.082-.728c0-.003 0-.005-.003-.006a.178.178 0 01-.016-.003c-.014-.002-.021-.01-.022-.024a3.116 3.116 0 01.05-.569c.043-.273-.01-.643.072-.968.047-.184.062-.37.044-.562" stroke="#D6A263" stroke-width=".122"/><path d="M9.915 19.065c.064-1.026-.034-2.191.042-2.998.03-.325.042-.596.034-.812-.006-.18.046-.348.062-.528" stroke="#9F80A3" stroke-width=".122"/><path d="M9.232 18.993a.212.212 0 00.084-.15.379.379 0 00-.039-.157.507.507 0 01-.037-.227c.019-.28-.015-.555.019-.835.03-.252.045-.433.046-.542.003-.614-.067-1.09.042-1.556a.108.108 0 00-.003-.058c-.066-.203.028-.303.022-.479a1.986 1.986 0 00-.013-.174" stroke="#8D75B7" stroke-width=".122"/><path d="M11.28 19.385c.048-.27.064-.463.05-.577a4.294 4.294 0 01-.02-.766.097.097 0 00-.014-.055c-.062-.11-.004-.228-.005-.316-.006-.463.016-.926.065-1.387.028-.262 0-.497-.017-.754-.017-.25-.009-.6.022-.848.012-.093.016-.184.013-.274" stroke="#C1957B" stroke-width=".122"/><path d="M44.201 20.746a.161.161 0 01.015.157.092.092 0 00-.001.064c.085.24.105.545.133.723.039.236.065.473.08.711.006.114.045.217.046.327.003.601.013 1.214-.097 1.808-.054.296-.097.593-.13.893" stroke="#9F80A3" stroke-width=".122"/><path d="M45.971 21.035a1.138 1.138 0 00-.012.677c.05.178.07.358.06.541-.007.105.054.194.055.274l.004 1.414c0 .02-.005.039-.016.056a.306.306 0 00-.042.132c-.027.297-.053.594-.077.89a.072.072 0 00.022.06l.017.017c.02.02.016.033-.012.039a.111.111 0 00-.06.031" stroke="#C1957B" stroke-width=".122"/><path d="M46.52 25.135c.035-.25.065-.5.091-.75.06-.58.027-1.195.036-1.791.003-.202-.078-.425-.062-.602.027-.308-.095-.521-.051-.805.01-.07-.012-.128-.09-.13" stroke="#D6A263" stroke-width=".122"/><path d="M44.823 20.887c.068.193.047.397.1.577.067.226.092.458.073.694-.01.133.062.24.058.349-.011.28-.013.561-.006.84a8.91 8.91 0 01-.16 1.94" stroke="#AF8A90" stroke-width=".122"/><path d="M24.605 3.134c-1.458 1.18-2.493 2.222-3.71 3.373a8.874 8.874 0 00-2.456-1.232c-1.636-.525-3.195-.09-4.591.845a20.195 20.195 0 00-2.234 1.735c-1.755 1.574-3.528 3.327-4.936 5.221-.243.327-.39.628-.443.903-.154.819 1.184.85 1.801.886l.066.065a.058.058 0 01.017.055 7.876 7.876 0 00-.105.922c-.008.148-.08.313-.042.492a.114.114 0 01-.002.056 1.03 1.03 0 00-.03.405c.002.02 0 .04-.008.06-.07.187-.022.385-.024.531-.006.326-.009.652-.01.978 0 .184.013.342.04.475.003.014.012.022.027.022.013 0 .025.003.037.007.024.009.024.012-.003.011a.194.194 0 00-.085.014c-.439.03-1.643.095-1.742.69-.094.567.603 1.566.935 2.018a42.83 42.83 0 003.197 3.817c2.01 2.154 3.974 4.066 5.891 5.739 1.358 1.185 2.985 2.429 4.71 3.204 1.483.666 2.941.752 4.425-.005.372-.19.795-.432 1.27-.726a27.756 27.756 0 003.546-3.065.56.56 0 00.12-.154 32.781 32.781 0 002.904-3.18c.52-.65.964-1.347 1.332-2.092.87-1.765.52-3.515-.406-5.155-1.921-3.4-4.825-6.085-7.52-8.848a.026.026 0 01-.006-.008.025.025 0 01-.002-.01l.002-.01a.026.026 0 01.006-.007c1.106-1.117 2.272-2.203 3.58-3.038.182-.116.47.256.585.372 1.454 1.454 2.877 2.926 4.224 4.482.73.842 1.408 1.745 2.105 2.621 1.118 1.407 2.363 2.61 3.848 3.63-.09.037-.102.08-.037.131.13.102.258.38.35.525.013.02.019.042.018.065-.002.041.018.058.059.049a.049.049 0 01.055.023c.732 1.181.986 2.386.929 3.768-.006.12-.055.226-.065.353-.06.806-.528 1.775-.961 2.45a.095.095 0 00-.016.057l.003.058a18.686 18.686 0 00-3.818 3.155c-.604.65-1.263 1.433-1.715 1.93a59.525 59.525 0 01-3.59 3.617c-3.213 2.982-7.025 5.36-11.616 4.027-2.546-.739-4.873-2.34-6.905-4.055-2.52-2.127-4.828-4.418-7.056-6.807-2.137-2.291-4.206-4.822-5.45-7.695-.82-1.893-1.084-4.099-.583-6.13.511-2.074 1.697-3.969 3.07-5.596a47.618 47.618 0 015.653-5.656c1.231-1.042 2.651-1.997 4.14-2.595 4.152-1.668 7.81-.195 11.222 2.227z" fill="#675DE2"/><path d="M48.003 25.247l.036-.02c.01-.005.012-.012.007-.021a.038.038 0 00-.012-.014.025.025 0 01-.01-.025c.033-.236.1-.488.127-.707.148-1.2.047-2.321-.148-3.51.338-.078.757-.211.824-.537.102-.499-.239-1.087-.55-1.558a21.864 21.864 0 00-1.342-1.822c-1.867-2.278-3.948-4.365-6.066-6.406a43.124 43.124 0 00-3.418-2.986c-1.4-1.088-2.98-2.144-4.634-2.503-2.38-.517-4.614 1.211-6.277 2.702a46.356 46.356 0 00-3.857 3.884c-.809.92-1.532 1.87-2.103 2.998-1.221 2.417-.175 4.545 1.165 6.56.525.789 1.25 1.71 2.173 2.762a77.426 77.426 0 006.347 6.433.56.56 0 01-.119.153 27.756 27.756 0 01-3.546 3.065c-2.963-2.697-5.822-5.637-8.262-8.82-.92-1.2-1.897-2.27-3.063-3.239.038-.283.04-.529.005-.737a3.073 3.073 0 01-.046-.713.144.144 0 00-.008-.058c-.097-.267-.043-.796-.063-1.239a36.441 36.441 0 01-.007-2.421c.006-.267.077-.59.063-.898-.008-.186.076-.345.072-.55-.002-.156.01-.31.038-.464.046-.248.033-.471.076-.755.024-.159-.003-.3.038-.456.107-.405.063-.655.156-1.021.022-.086-.01-.162-.095-.229a24.902 24.902 0 002.213-2.084c.693-.742 1.437-1.642 2.168-2.427l1.01-1.077c1.217-1.15 2.252-2.192 3.71-3.373C27.876.518 31.533-.694 35.602.93c2.812 1.123 5.355 3.165 7.571 5.213 3.065 2.833 6.247 5.99 8.735 9.433 1.725 2.386 3.032 5.158 2.844 8.16-.125 2.018-.988 3.914-2.13 5.555-1.547 2.225-3.476 4.123-5.433 5.981-3.248 3.085-7.214 5.567-11.898 4.132a14.19 14.19 0 01-2.633-1.108.04.04 0 01-.02-.03.039.039 0 01.013-.035 65.72 65.72 0 003.733-3.543.043.043 0 01.049-.012c2.023.715 3.716-.004 5.345-1.196 1.825-1.335 3.436-2.989 4.982-4.63.536-.57 2.227-2.405 2.033-3.096-.092-.326-.482-.433-.79-.506z" fill="#FB3"/><path d="M15.505 12.095c.084.066.116.142.094.228-.093.367-.049.617-.156 1.021-.041.157-.014.298-.038.457-.043.283-.03.507-.076.755-.028.153-.04.307-.038.463.004.206-.08.364-.072.55.014.31-.057.632-.063.898a35.6 35.6 0 00.008 2.422c.019.443-.035.972.062 1.238.007.019.01.039.008.059-.014.202.001.44.046.713.034.208.033.454-.005.737a13.457 13.457 0 00-2.796-1.789c.019-.03.018-.056 0-.076-.012-.012-.013-.024-.003-.038a.093.093 0 00.02-.054c.005-.626.003-1.609-.007-2.948a3.635 3.635 0 01.082-.729c0-.002 0-.004-.003-.005a.223.223 0 01-.016-.003c-.014-.003-.021-.01-.022-.025a3.113 3.113 0 01.05-.568c.043-.273-.01-.643.072-.969.047-.183.062-.37.044-.561a14.974 14.974 0 002.809-1.776z" fill="#E0A857"/><path d="M12.696 13.871a1.63 1.63 0 01-.043.562c-.084.325-.03.695-.073.968a3.066 3.066 0 00-.05.569c.001.013.008.022.022.024l.016.003c.002 0 .004.003.003.006a3.635 3.635 0 00-.082.728c.01 1.34.013 2.322.008 2.948a.093.093 0 01-.021.054c-.01.014-.01.027.002.038.02.02.02.046.002.076l-1.2-.462c.048-.27.064-.463.05-.577a4.294 4.294 0 01-.02-.766.097.097 0 00-.014-.055c-.062-.11-.004-.228-.005-.315-.006-.464.016-.926.065-1.387.028-.263 0-.497-.017-.755-.017-.25-.009-.6.022-.848.012-.092.016-.183.013-.273a13.42 13.42 0 001.322-.538z" fill="#CB9B6F"/><path d="M11.374 14.408c.003.09-.001.181-.013.274a5.002 5.002 0 00-.022.848c.017.257.045.492.017.754-.05.461-.07.924-.065 1.387.001.088-.057.206.005.316.01.017.014.035.013.055-.016.256-.009.512.02.766.015.114-.002.306-.049.577l-.8-.213c.029-1.355-.031-2.706.12-4.06a2.123 2.123 0 00-.002-.495l.776-.209z" fill="#B78F86"/><path d="M10.598 14.618c.02.167.021.332.003.496-.153 1.353-.093 2.704-.12 4.058l-.566-.107c.064-1.025-.034-2.191.042-2.998.03-.325.042-.596.034-.812-.006-.18.046-.348.062-.527l.545-.11z" fill="#A6849A"/><path d="M10.053 14.727c-.016.18-.068.347-.062.528a6.34 6.34 0 01-.034.812c-.076.807.022 1.973-.042 2.998l-.683-.071a.212.212 0 00.084-.151.379.379 0 00-.039-.156.507.507 0 01-.037-.227c.019-.282-.015-.556.019-.836.03-.252.045-.432.046-.542.003-.614-.067-1.09.042-1.556a.108.108 0 00-.003-.058c-.066-.203.028-.303.022-.479a1.98 1.98 0 00-.013-.173l.7-.089z" fill="#977BAB"/><path d="M9.353 14.815c.007.06.011.117.013.174.006.176-.087.276-.021.479.006.02.006.039.002.058-.109.466-.04.942-.042 1.556 0 .11-.016.29-.046.542-.034.28 0 .554-.018.835a.507.507 0 00.036.227.378.378 0 01.039.156.212.212 0 01-.084.151 9.283 9.283 0 00-1.318-.035.194.194 0 01.085-.013c.026 0 .027-.003.002-.012a.119.119 0 00-.036-.007c-.015 0-.024-.008-.027-.022a2.342 2.342 0 01-.04-.475c0-.326.004-.652.01-.977.002-.147-.047-.345.024-.531.007-.02.01-.04.007-.06a1.067 1.067 0 01.03-.406.114.114 0 00.002-.056c-.036-.179.035-.344.043-.492.017-.309.052-.616.105-.921a.058.058 0 00-.017-.056l-.066-.065c.437.005.876-.011 1.317-.05zm31.564 4.418c.71.469 1.457.862 2.245 1.18-.124.123-.014.391.032.542.003.01.006.01.009 0l.007-.02c.006-.018.01-.018.012.001.033.253.135.482.164.73.037.308.132.627.146.94.01.201.024.403.044.604.015.149-.047.284-.054.41l-.015.246c-.011.166-.07.334-.077.548-.006.223-.081.576-.226 1.06-.025.082.001.168.078.257-.705.27-1.381.597-2.03.981l-.002-.058a.096.096 0 01.015-.057c.433-.675.901-1.644.962-2.45.01-.127.059-.233.064-.353.058-1.382-.197-2.587-.929-3.768-.013-.02-.031-.029-.055-.023-.04.008-.06-.008-.058-.05a.111.111 0 00-.018-.064c-.092-.146-.22-.423-.35-.525-.065-.051-.053-.095.036-.13z" fill="#836EC2"/><path d="M43.162 20.413l1.04.333a.16.16 0 01.014.156.091.091 0 00-.001.065c.085.24.105.545.134.723.038.235.064.472.078.71.007.115.046.217.047.328.004.6.013 1.213-.097 1.807a12.8 12.8 0 00-.13.893l-.965.304c-.076-.09-.102-.175-.077-.258.144-.484.22-.837.226-1.06.006-.214.065-.382.076-.547.006-.082.011-.165.015-.247.007-.126.07-.26.055-.41a11 11 0 01-.044-.604c-.015-.313-.11-.632-.146-.94-.03-.248-.132-.477-.164-.73-.002-.018-.007-.019-.013 0l-.007.02c-.003.009-.006.009-.009 0-.045-.151-.156-.42-.032-.543z" fill="#977BAB"/><path d="M44.201 20.746l.622.141c.068.194.047.397.1.578.067.226.092.457.073.694-.01.133.062.24.058.349-.011.28-.013.56-.006.84a8.917 8.917 0 01-.16 1.94l-.641.14c.033-.299.076-.596.13-.892.11-.594.1-1.207.097-1.808 0-.11-.04-.213-.047-.327a7.074 7.074 0 00-.078-.71c-.03-.18-.049-.484-.134-.724a.092.092 0 010-.064.161.161 0 00-.014-.157z" fill="#A6849A"/><path d="M44.823 20.887l1.149.148a1.138 1.138 0 00-.013.677c.05.177.07.358.06.541-.006.105.055.193.055.273l.004 1.415c0 .02-.005.038-.015.056a.306.306 0 00-.043.131 82.75 82.75 0 00-.077.891.073.073 0 00.023.06l.016.016c.02.02.017.034-.012.04a.113.113 0 00-.06.03l-1.022.122a8.91 8.91 0 00.16-1.94c-.007-.279-.005-.56.006-.84.004-.108-.068-.216-.058-.349a1.911 1.911 0 00-.072-.694c-.054-.18-.033-.384-.101-.577z" fill="#B78F86"/><path d="M48.003 20.95c.195 1.188.296 2.31.148 3.51-.027.219-.094.47-.128.707a.025.025 0 00.01.024c.006.004.01.009.013.014.005.01.002.017-.007.022l-.036.02a11.622 11.622 0 00-1.482-.112c.034-.25.064-.5.09-.75.06-.58.027-1.195.036-1.791.003-.202-.078-.425-.062-.602.027-.308-.095-.522-.051-.806.01-.07-.012-.127-.09-.129.522 0 1.042-.035 1.559-.107z" fill="#E0A857"/><path d="M45.971 21.035l.473.023c.078.002.1.06.09.129-.044.284.078.498.05.805-.015.177.066.4.063.602-.009.596.025 1.211-.036 1.792-.026.25-.056.5-.09.75l-.611.03a.111.111 0 01.06-.031c.028-.006.032-.019.012-.04l-.017-.016a.072.072 0 01-.022-.06c.024-.296.05-.593.077-.89a.306.306 0 01.042-.132.103.103 0 00.016-.056l-.004-1.414c0-.08-.062-.169-.056-.274.01-.183-.01-.363-.06-.54a1.138 1.138 0 01.013-.678z" fill="#CB9B6F"/></g><defs><clipPath id="clip0_414_8996"><path fill="#fff" d="M0 0h55v40H0z"/></clipPath></defs></svg>