<svg width="55" height="42" fill="none" xmlns="http://www.w3.org/2000/svg"><path d="M23.646 2.033c.525.388.525.388.773 1.183l-.508.427-.67.568-.663.559a20.53 20.53 0 00-1.632 1.628l-.4-.165c-2.152-.831-4.012-1.268-6.167-.238-.976.627-1.769 1.429-2.58 2.278-.527.51-.527.51-1.272.776l-.248.795-1.017.869a18.184 18.184 0 00-2.704 3.373v1.06l1.737.795c-.048 2.382-.048 2.382-.853 3.463-.636.514-.636.514-1.132.78-.162.536-.162.536-.248 1.06h.496c.284.391.549.798.807 1.21 1.028 1.558 2.197 2.922 3.43 4.3a38.99 38.99 0 012.213 2.708c.632.654 1.314 1.247 1.985 1.855l.74.703c3.224 3.04 3.224 3.04 7.229 4.417 2.852-.245 5.026-2.154 6.915-4.324l.51-.578c3.075-3.503 3.075-3.503 4.063-8.026-.428-2.68-2.218-4.788-3.83-6.772-.211-.277-.423-.555-.633-.834-1.103-1.458-2.198-2.78-3.583-3.938.207-1.226.905-1.797 1.752-2.585l.427-.407c.347-.33.696-.658 1.046-.985 1.332.621 2.23 1.764 3.24 2.85l.64.685a47.857 47.857 0 014 4.976c.694.963 1.456 1.8 2.29 2.624.593.616 1.028 1.116 1.489 1.855v.796l1.488-.265a30143.338 30143.338 0 00.218 2.537c.03.88-.053 1.64-.218 2.5l-.837.232c-.9.216-.9.216-1.395.828h-.496v.68c-.316 1.158-.802 1.515-1.659 2.259-1.352 1.194-2.56 2.57-3.706 3.987-2.73 3.367-6.288 7.099-10.635 7.462-4.08.112-6.906-1.408-10.048-4.049l-.734-.606c-.964-.807-1.913-1.605-2.739-2.575v-.53l-.441-.212c-.96-.555-1.663-1.418-2.427-2.24l-.534-.575C3.7 27.464.158 22.963 0 17.482.178 13.195 2.61 9.9 5.318 6.928a866 866 0 00.727-.836c5.192-5.874 10.597-8.056 17.6-4.06z" fill="#E9CDD0"/><path d="M41.976 4.595a54.44 54.44 0 011.806 1.727c.55.562.55.562 1.302 1.052v.527l.457.212c.572.324.912.64 1.35 1.138l.44.494.46.526.478.542.944 1.076c.361.41.73.814 1.099 1.216 1.48 1.628 2.563 3.4 3.639 5.331l.426.676c.58 1.115.537 2.292.587 3.538l.032.74c.107 4.92-1.916 8.207-5.075 11.68-2.04 2.201-4.057 4.214-6.61 5.753l-.589.374c-1.446.765-2.92.776-4.51.795L37.56 42c-1.452-.021-2.546-.311-3.878-.914v-.526l-.76-.264c.348-.526.348-.526.76-1.053h.507v-.527c.434-.446.434-.446.997-.938l.561-.495.469-.41.253-.264c.38-.006.76.002 1.14.016 1.287.018 2.435-.194 3.673-.543l.066-.475c.243-.749.553-.947 1.17-1.401 1.999-1.548 3.913-3.19 5.296-5.368.309-.394.309-.394 1.069-.657.085-.614.085-.614 0-1.317l-.523-.46c-.49-.593-.49-.593-.479-1.445l.178-.926.17-.934c.05-.235.097-.47.147-.712h.507c-.45-2.57-1.846-4.292-3.42-6.256l-.346-.433a13.97 13.97 0 00-1.895-1.941l-.673-.588v-.527l-.76-.264c-.432-.428-.853-.87-1.267-1.316-3.677-3.794-3.677-3.794-8.455-5.4-2.866.11-4.991 2.417-6.999 4.346l-.253.527h-.507v.527c-.287.307-.575.612-.87.911-1.786 1.824-2.76 3.296-3.04 5.92a7.534 7.534 0 001.804 4.56c.75.926.84 1.65.84 2.83l.455.086c.63.201.917.438 1.381.919l.4.4c.297.44.297.44.297 1.493l.49.082.523.181.254.79.76.264v.527l.57-.083c.696.083.696.083 1.235.708l.475.691.76.527-.554.445c-.714.59-.714.59-1.315 1.234-.776.807-1.598 1.54-2.438 2.272-.507-.264-.507-.264-.728-.906-.347-.82-.55-.823-1.299-1.201-.704-.616-1.345-1.299-1.995-1.976l-.553-.574c-1.1-1.167-2.04-2.302-2.761-3.767-.252-.552-.252-.552-.668-1.041-.437-.665-.48-1.129-.53-1.926l-.051-.712-.029-.54-.507.264c-.165.533-.165.533-.253 1.054-.355-.35-.702-.708-1.045-1.07l-.588-.602c-.394-.699-.394-.699-.21-1.529l.167-.476c.31-1.066.268-2.196.299-3.303.14-4.387.14-4.387 1.013-5.25l.617-.412.254.526c.359-.666.555-1.244.744-1.991.265-.892.404-1.1 1.03-1.696.417-.891.506-1.353.506-2.37h.76c.876-.36 1.492-.926 2.185-1.58l.596-.56c.346-.334.686-.674 1.02-1.02 5.909-5.24 12.097-3.407 17.666 1.434z" fill="#FCC51C"/><path d="M19 8v.792l-.31.33c-.41.474-.41.474-.431 1.37-.136 1.05-.323 1.346-.984 1.999l-.216-.529c-1.184 1.64-.922 4.06-.955 6.132-.042 1.494-.21 2.573-.77 3.906-1.294-1.585-1.294-1.585-1.334-2.476.021-1.783.05-3.637 1.119-4.92l.013-.958c.081-1.155.5-1.597 1.2-2.344l.586-.593C17.7 9.894 18.348 8.969 19 8z" fill="#F1BA4F"/><path d="M14.778 13c.153.447.153.447.222 1.059-.255.594-.491 1.114-.889 1.588-.336 1.66-.572 3.324-.444 5.03.305.497.305.497.666.794V22A14.823 14.823 0 0111 20.677l.667-.265.222-.794v1.059h.444c-.02-.195-.042-.39-.064-.59l-.075-.784-.078-.772c-.005-.836.165-1.33.44-2.09-.032-.847-.032-.847-.223-1.588l-.444-.265c.397-.266.796-.53 1.194-.794l.672-.447c.578-.347.578-.347 1.023-.347z" fill="#DFAD78"/><path d="M40.73 20c.943.42 1.873.869 2.803 1.323v.53H44l-.234 4.765-.7.264-.319.37c-.482.536-.986.805-1.594 1.136l-.637.35-.487.262c-.039-.625-.039-.625 0-1.323.814-.772 1.515-1.183 2.57-1.324.209-1.601.26-3.147.233-4.765l-1.401.265-.7-1.853z" fill="#977ADA"/><path d="M12.609 14c.434 1.487.602 2.112 0 3.546-.048.82-.03 1.633 0 2.454l-.783-.273a48.767 48.767 0 00-1.826 0l.522-.545c.12-.6.12-.6.163-1.261l.059-.676.039-.518h.522l-.261-2.181c.978-.546.978-.546 1.565-.546z" fill="#C28F94"/><path d="M43.78 21h4.936l-.26.538c-.775.161-1.55.2-2.338.27l-.52 3.769 2.182.158c.676.111.676.111 1.196.65.032.706.032.706 0 1.346l-.78.269.26-1.346c-.726-.376-1.334-.305-2.143-.303l-.881-.002c-.833.034-1.614.143-2.432.305l.52-1.077v.538h.52c.085-.266.17-.533.26-.807v.538h1.038v-4.308h-.78l-.259.539v-.808L43.78 21z" fill="#DABFBB"/><path d="M12 15.135l-.783.489c-.065.876-.065.876 0 1.71h-.521l.009.473.007.612.01.61c-.026.505-.026.505-.287.75a49.57 49.57 0 01-1.68.121c-1.158.035-1.158.035-2.233.367L6 21c.098-.596.098-.596.26-1.222 1.113-.52 2.716-.255 3.914-.244l.26-3.91H6.523l-.261-.489.885.009 1.153.006.583.007c1.105.004 2.099-.34 3.118-.022z" fill="#BFA0D2"/><path d="M48.714 22l.286.47h-.571l.01.43.007.57.01.563c-.027.555-.027.555-.19 1.066-.188.45-.188.45.163.901L47 25.765V22.47l1.714-.47z" fill="#F0B742"/><path d="M8 15h2l-.25 5h-1v-4.688L8 15z" fill="#976CC7"/><path d="M14 21c1.509.345 2.134 1.378 3.044 3.044l.217-1.218h.652l.017.612c.077 1.684.164 2.726 1.07 3.953l-.217.609-.36-.647c-.96-1.69-1.93-3.209-3.11-4.602A26.002 26.002 0 0114 21z" fill="#FBDA86"/><path d="M44.439 22H45v4h-.748c-.398-1.063-.268-2.418 0-3.516l.187-.484z" fill="#AB82AB"/><path d="M7 15l2 .313V20H7l.275-.523c.333-.816.41-1.479.475-2.368l.065-.844.042-.64L7 15z" fill="#7E57E1"/><path d="M41 35v.6c-.758.644-1.085.704-1.97.788l-.668.068c-.656.044-.656.044-1.273-.015-.743.078-.941.407-1.427 1.109-.252.36-.51.711-.78 1.05h-.47v.6c-.304.412-.618.813-.941 1.2l.47.6-.941-.3c.211-1.501.927-2.224 1.765-3.244l.419-.555c1.053-1.283 1.053-1.283 1.891-1.334.367.062.733.137 1.096.228.6.132.973 0 1.52-.326C40.53 35 40.53 35 41 35z" fill="#FDEFC3"/><path d="M46.333 22l.667.25V26l-1-.25a626.712 626.712 0 01.114-2.71c.053-.79.053-.79.22-1.04z" fill="#D2A179"/><path d="M23 24l.784.863c.24.265.483.528.726.79a40.54 40.54 0 012.45 2.922c.378.482.378.482 1.04.925v.5h-.682l-.227-.5h-.682c-.06-.16-.122-.32-.185-.484-.244-.599-.244-.599-.951-.766l-.043-.547c-.245-.934-.65-1.335-1.32-1.953-.495-.215-.495-.215-.91-.25V24z" fill="#FCD971"/><path d="M54.214 20c1.226 2.67.836 5.374.064 8.159-.326.807-.684 1.263-1.278 1.841.226-.774.451-1.534.743-2.28.559-1.7.502-3.487.486-5.27l-.004-.717L54.214 20z" fill="#FCE69F"/></svg>