<svg width="132" height="96" fill="none" xmlns="http://www.w3.org/2000/svg"><g clip-path="url(#clip0_496_14105)"><path d="M59.054 7.521c-3.5 2.833-5.984 5.333-8.906 8.096" stroke="#B38C8B" stroke-width=".122"/><path d="M19.288 35.676l.157.157a.14.14 0 01.04.132c-.127.733-.21 1.47-.25 2.212-.02.355-.19.752-.103 1.18a.274.274 0 01-.004.135 2.561 2.561 0 00-.074.974.302.302 0 01-.017.143c-.169.448-.052.924-.057 1.274-.014.782-.022 1.564-.024 2.346-.002.441.03.822.096 1.14.007.035.029.053.064.054.031 0 .06.006.088.016.06.021.058.03-.006.028a.464.464 0 00-.204.032" stroke="#7566D2" stroke-width=".122"/><path d="M63.844 80.868c2.932-2.116 5.769-4.568 8.51-7.356.154-.157.25-.28.285-.368" stroke="#B38C8B" stroke-width=".122"/><path d="M98.202 46.161c-.214.086-.244.191-.088.314.31.244.619.909.84 1.26.03.048.045.1.043.155-.004.1.043.138.14.118.057-.013.101.006.132.055 1.758 2.835 2.368 5.727 2.23 9.043-.013.289-.132.543-.154.847-.145 1.934-1.269 4.261-2.309 5.881a.227.227 0 00-.036.136l.005.14" stroke="#7566D2" stroke-width=".122"/><path d="M103.59 48.991c-.298.297-.032.94.076 1.302.007.023.014.023.022 0l.016-.048c.015-.044.025-.043.031.003.078.606.323 1.155.393 1.752.088.737.315 1.504.351 2.254.021.484.056.968.105 1.451.035.357-.114.681-.13.982-.01.198-.022.396-.037.593-.026.397-.169.8-.183 1.316-.015.533-.196 1.38-.543 2.542-.06.199.002.405.186.618" stroke="#8D75B7" stroke-width=".122"/><path d="M115.207 60.593l.088-.048c.022-.012.027-.03.016-.052a.087.087 0 00-.029-.033.059.059 0 01-.025-.06c.081-.567.24-1.17.305-1.696.356-2.882.113-5.572-.355-8.423m-78.545 1.645c.09-.68.093-1.27.011-1.768-.108-.656-.145-1.227-.11-1.712a.343.343 0 00-.02-.14c-.232-.64-.103-1.91-.15-2.973-.088-1.982-.058-3.874-.017-5.812.013-.64.184-1.413.15-2.155-.018-.446.183-.826.174-1.32a5.712 5.712 0 01.09-1.112c.11-.596.08-1.132.183-1.813.057-.381-.008-.719.092-1.095.257-.97.15-1.57.373-2.45.052-.206-.023-.39-.226-.549" stroke="#F0B245" stroke-width=".122"/><path d="M25.156 46.013c.068-3.252-.076-6.493.29-9.741a5.093 5.093 0 00-.008-1.189" stroke="#AF8A90" stroke-width=".122"/><path d="M29.952 47.633c.044-.074.043-.134-.003-.182-.029-.029-.03-.06-.006-.093a.225.225 0 00.05-.129c.011-1.502.005-3.86-.02-7.075-.005-.612.089-1.164.199-1.748 0-.007-.002-.012-.01-.014a.504.504 0 01-.037-.007c-.033-.006-.05-.025-.052-.059-.013-.322.026-.776.12-1.363.103-.656-.026-1.544.174-2.325a3.92 3.92 0 00.104-1.348" stroke="#D6A263" stroke-width=".122"/><path d="M23.797 45.756c.152-2.462-.082-5.26.1-7.196.074-.78.101-1.43.082-1.949-.015-.433.11-.835.148-1.265" stroke="#9F80A3" stroke-width=".122"/><path d="M22.156 45.584a.507.507 0 00.201-.363c.008-.078-.023-.203-.092-.374a1.217 1.217 0 01-.088-.545c.044-.675-.037-1.333.044-2.005.072-.605.11-1.038.111-1.3.006-1.474-.161-2.618.1-3.735a.26.26 0 00-.006-.14c-.158-.486.066-.726.051-1.148a4.726 4.726 0 00-.03-.417" stroke="#8D75B7" stroke-width=".122"/><path d="M27.074 46.525c.113-.65.152-1.111.119-1.385a10.29 10.29 0 01-.05-1.838.233.233 0 00-.03-.132c-.15-.264-.01-.548-.014-.758a28.26 28.26 0 01.156-3.329c.067-.63.001-1.192-.04-1.81-.041-.599-.022-1.44.053-2.036a4.01 4.01 0 00.03-.656" stroke="#C1957B" stroke-width=".122"/><path d="M106.082 49.79c.076.11.088.235.035.375a.227.227 0 00-.003.154c.206.575.253 1.308.322 1.736.091.565.154 1.134.189 1.706.016.275.11.52.111.784.009 1.443.031 2.914-.232 4.34-.13.71-.234 1.424-.312 2.142" stroke="#9F80A3" stroke-width=".122"/><path d="M110.332 50.484a2.728 2.728 0 00-.031 1.625c.12.426.168.859.144 1.3-.015.25.132.463.133.656.004 1.13.007 2.262.009 3.393a.242.242 0 01-.037.135.743.743 0 00-.101.316 215.01 215.01 0 00-.185 2.139.174.174 0 00.053.14l.04.042c.049.049.039.08-.028.094a.267.267 0 00-.145.075" stroke="#C1957B" stroke-width=".122"/><path d="M111.652 60.325c.082-.6.155-1.2.217-1.8.145-1.393.065-2.868.087-4.3.007-.484-.188-1.02-.15-1.444.066-.738-.229-1.252-.123-1.933.026-.167-.028-.306-.214-.31" stroke="#D6A263" stroke-width=".122"/><path d="M107.574 50.129c.164.464.115.953.242 1.386a4.57 4.57 0 01.175 1.666c-.025.318.148.577.138.836a30.888 30.888 0 00-.014 2.019 21.406 21.406 0 01-.384 4.654" stroke="#AF8A90" stroke-width=".122"/><path d="M59.052 7.522c-3.5 2.833-5.984 5.333-8.905 8.095a21.302 21.302 0 00-5.895-2.958c-3.925-1.259-7.666-.215-11.018 2.029a48.469 48.469 0 00-5.36 4.164c-4.212 3.777-8.467 7.984-11.848 12.532-.584.784-.938 1.506-1.062 2.166-.37 1.965 2.84 2.04 4.322 2.126l.157.157a.14.14 0 01.041.132 18.89 18.89 0 00-.25 2.212c-.02.355-.191.752-.103 1.18a.274.274 0 01-.004.135 2.56 2.56 0 00-.074.974.303.303 0 01-.017.143c-.169.448-.052.924-.058 1.275-.013.782-.021 1.563-.023 2.345-.002.442.03.822.095 1.14.008.035.03.053.065.054.031 0 .06.006.088.016.06.021.058.03-.006.028a.465.465 0 00-.204.032c-1.053.072-3.944.228-4.181 1.656-.226 1.36 1.447 3.76 2.245 4.844 2.172 2.953 4.73 6.007 7.672 9.161 4.824 5.168 9.537 9.759 14.139 13.773 3.259 2.843 7.163 5.83 11.302 7.689 3.56 1.6 7.06 1.805 10.62-.012a43.768 43.768 0 003.05-1.742c2.933-2.116 5.77-4.568 8.51-7.356.155-.156.25-.28.287-.368a78.733 78.733 0 006.97-7.632 27.412 27.412 0 003.196-5.023c2.09-4.236 1.25-8.434-.974-12.37-4.61-8.16-11.579-14.604-18.048-21.237a.06.06 0 01-.013-.065.06.06 0 01.013-.019c2.656-2.679 5.454-5.286 8.592-7.29.436-.28 1.129.614 1.404.892 3.491 3.49 6.904 7.023 10.138 10.756 1.753 2.022 3.38 4.188 5.051 6.292 2.684 3.376 5.672 6.265 9.236 8.713-.214.086-.243.19-.088.314.31.244.619.909.84 1.26.03.048.045.1.043.155-.004.1.043.138.14.118.057-.013.101.005.133.055 1.757 2.835 2.367 5.727 2.229 9.043-.013.289-.132.543-.154.847-.145 1.934-1.269 4.26-2.308 5.881a.227.227 0 00-.037.135l.006.141a44.853 44.853 0 00-9.163 7.572c-1.45 1.56-3.03 3.438-4.115 4.632a142.957 142.957 0 01-8.615 8.68C69.4 92.15 60.252 97.856 49.233 94.66c-6.112-1.774-11.695-5.617-16.572-9.732-6.05-5.106-11.588-10.603-16.934-16.337-5.13-5.498-10.095-11.572-13.083-18.467-1.967-4.543-2.6-9.838-1.398-14.711 1.228-4.98 4.073-9.527 7.369-13.433A114.285 114.285 0 0122.183 8.405c2.954-2.5 6.363-4.792 9.935-6.228 9.965-4.004 18.744-.468 26.934 5.345z" fill="#675DE2"/><path d="M115.208 60.593l.088-.048c.021-.012.026-.029.016-.052a.09.09 0 00-.03-.033.06.06 0 01-.025-.059c.081-.568.241-1.171.305-1.697.357-2.881.113-5.572-.354-8.423.811-.188 1.817-.509 1.977-1.29.245-1.198-.572-2.608-1.319-3.74a52.352 52.352 0 00-3.222-4.373c-4.479-5.466-9.475-10.476-14.558-15.373-2.831-2.726-5.565-5.115-8.203-7.166-3.36-2.612-7.152-5.147-11.122-6.008-5.713-1.24-11.072 2.906-15.064 6.483a111.212 111.212 0 00-9.256 9.323c-1.942 2.207-3.679 4.487-5.047 7.195-2.932 5.801-.421 10.908 2.794 15.742 1.26 1.896 3 4.106 5.217 6.632a185.814 185.814 0 0015.233 15.438c-.037.089-.132.212-.287.368-2.74 2.788-5.577 5.24-8.51 7.356-7.111-6.474-13.974-13.53-19.828-21.169-2.21-2.88-4.554-5.445-7.351-7.772.09-.68.093-1.27.011-1.769-.108-.656-.145-1.226-.11-1.712a.342.342 0 00-.02-.14c-.232-.639-.103-1.909-.15-2.973-.088-1.981-.058-3.874-.017-5.811.013-.64.184-1.414.15-2.155-.018-.446.183-.826.174-1.321a5.712 5.712 0 01.09-1.111c.11-.596.08-1.132.183-1.813.057-.382-.008-.72.092-1.095.257-.97.15-1.57.373-2.45.052-.207-.023-.39-.226-.55a59.726 59.726 0 005.31-5.002c1.662-1.78 3.447-3.941 5.203-5.823.8-.856 1.607-1.718 2.423-2.585 2.921-2.762 5.406-5.262 8.905-8.095 7.851-6.278 16.626-9.19 26.391-5.292 6.75 2.694 12.854 7.595 18.172 12.51 7.356 6.799 14.993 14.376 20.965 22.64 4.139 5.726 7.276 12.379 6.826 19.583-.302 4.843-2.372 9.393-5.111 13.332-3.716 5.34-8.344 9.895-13.042 14.356-7.795 7.402-17.313 13.36-28.555 9.917a34.038 34.038 0 01-6.318-2.662.095.095 0 01-.043-.117.092.092 0 01.025-.037 157.798 157.798 0 008.959-8.505.104.104 0 01.117-.028c4.856 1.716 8.919-.01 12.829-2.87 4.38-3.204 8.246-7.173 11.956-11.114 1.287-1.364 5.346-5.769 4.88-7.43-.22-.78-1.157-1.037-1.896-1.212z" fill="#FB3"/><path d="M37.212 29.027c.203.16.278.343.225.55-.222.879-.115 1.479-.372 2.45-.1.375-.035.713-.093 1.094-.102.681-.071 1.217-.181 1.813a5.712 5.712 0 00-.091 1.111c.008.495-.192.875-.173 1.321.033.742-.138 1.515-.151 2.155-.041 1.938-.07 3.83.017 5.812.047 1.064-.082 2.334.15 2.972a.344.344 0 01.02.141c-.035.485.002 1.056.11 1.712.082.499.078 1.088-.011 1.768a32.294 32.294 0 00-6.71-4.293c.044-.074.043-.134-.003-.182-.029-.029-.03-.06-.006-.093a.225.225 0 00.05-.129c.011-1.502.005-3.86-.02-7.075-.005-.612.089-1.164.199-1.748 0-.007-.002-.012-.01-.014a.504.504 0 01-.037-.007c-.033-.006-.05-.025-.052-.059-.013-.322.026-.776.12-1.363.103-.656-.026-1.544.174-2.325.112-.44.147-.889.104-1.348a35.944 35.944 0 006.74-4.263z" fill="#E0A857"/><path d="M30.471 33.29c.043.459.008.908-.104 1.348-.2.78-.07 1.669-.175 2.325-.093.587-.132 1.041-.118 1.363.002.034.019.053.05.06a.51.51 0 00.039.006c.007.002.01.007.009.014-.11.584-.204 1.136-.198 1.748.024 3.215.03 5.573.019 7.075 0 .04-.017.083-.05.13-.024.033-.023.063.006.092.046.048.047.108.003.182l-2.878-1.108c.113-.65.152-1.112.119-1.386a10.289 10.289 0 01-.05-1.838.233.233 0 00-.03-.132c-.15-.264-.01-.548-.014-.758a28.26 28.26 0 01.156-3.329c.067-.63.001-1.192-.04-1.81-.041-.599-.022-1.44.053-2.035a4.01 4.01 0 00.03-.657 32.106 32.106 0 003.173-1.29z" fill="#CB9B6F"/><path d="M27.297 34.58c.007.216-.003.435-.031.656a11.948 11.948 0 00-.053 2.036c.041.618.107 1.18.04 1.81a28.282 28.282 0 00-.156 3.33c.003.21-.136.492.013.757a.231.231 0 01.031.132 10.35 10.35 0 00.05 1.838c.033.274-.006.735-.119 1.385l-1.92-.512c.068-3.251-.076-6.492.29-9.74a5.093 5.093 0 00-.008-1.19l1.863-.502z" fill="#B78F86"/><path d="M25.435 35.083c.049.401.052.798.008 1.189-.366 3.248-.222 6.49-.29 9.74l-1.356-.256c.152-2.462-.082-5.26.1-7.196.074-.78.101-1.43.082-1.949-.015-.433.11-.835.148-1.265l1.308-.263z" fill="#A6849A"/><path d="M24.126 35.346c-.038.43-.163.832-.148 1.265.02.52-.008 1.17-.082 1.95-.182 1.935.052 4.733-.1 7.195l-1.64-.172a.507.507 0 00.201-.362c.008-.079-.023-.203-.092-.375a1.218 1.218 0 01-.088-.544c.044-.675-.037-1.333.044-2.005.072-.605.11-1.039.111-1.3.006-1.475-.161-2.618.1-3.735a.26.26 0 00-.006-.14c-.158-.487.066-.726.051-1.149a4.723 4.723 0 00-.03-.417l1.679-.211z" fill="#977BAB"/><path d="M22.448 35.557c.017.142.027.28.031.416.015.423-.21.663-.051 1.15a.26.26 0 01.006.14c-.262 1.116-.094 2.26-.1 3.734-.002.262-.04.695-.112 1.3-.08.672 0 1.33-.044 2.005-.012.186.017.368.088.545.07.171.1.296.093.374a.508.508 0 01-.201.363 22.248 22.248 0 00-3.164-.085.461.461 0 01.204-.033c.064.003.066-.006.006-.028a.287.287 0 00-.088-.016c-.035 0-.057-.018-.064-.052a5.626 5.626 0 01-.096-1.141c.002-.782.01-1.564.024-2.346.005-.35-.112-.826.057-1.274a.301.301 0 00.017-.144 2.56 2.56 0 01.074-.973.274.274 0 00.004-.135c-.088-.429.084-.825.103-1.18.04-.742.123-1.48.25-2.212a.14.14 0 00-.04-.132l-.157-.157a31.985 31.985 0 003.16-.12zm75.754 10.604a30.308 30.308 0 005.387 2.83c-.298.297-.032.94.076 1.302.007.023.014.023.022 0l.016-.048c.015-.044.025-.043.031.003.078.606.323 1.155.393 1.752.088.737.315 1.504.351 2.254.021.484.056.968.105 1.451.035.357-.114.681-.13.982-.01.198-.022.396-.037.593-.026.397-.169.8-.183 1.316-.015.533-.196 1.38-.543 2.542-.06.199.002.405.186.618a31.881 31.881 0 00-4.87 2.355L99 63.97a.227.227 0 01.036-.136c1.04-1.62 2.164-3.947 2.309-5.881.022-.304.141-.558.154-.847.138-3.316-.472-6.208-2.23-9.043-.03-.05-.075-.068-.132-.055-.097.02-.144-.019-.14-.118a.267.267 0 00-.043-.155c-.221-.351-.53-1.016-.84-1.26-.156-.123-.126-.228.088-.314z" fill="#836EC2"/><path d="M103.59 48.991l2.493.799c.076.11.088.236.035.376a.227.227 0 00-.003.154c.206.575.253 1.307.322 1.736.092.565.155 1.133.189 1.706.016.274.11.52.111.784.009 1.443.031 2.913-.231 4.339-.13.71-.235 1.425-.313 2.143l-2.316.728c-.184-.213-.246-.42-.186-.618.347-1.162.528-2.01.543-2.542.014-.516.157-.92.183-1.316.015-.197.027-.395.037-.593.016-.3.165-.625.13-.982a25.226 25.226 0 01-.105-1.451c-.036-.75-.263-1.517-.351-2.254-.07-.597-.315-1.146-.393-1.752-.006-.046-.016-.047-.031-.003l-.016.048c-.008.023-.015.023-.022 0-.108-.362-.374-1.005-.076-1.302z" fill="#977BAB"/><path d="M106.082 49.79l1.492.338c.164.464.114.953.242 1.386a4.59 4.59 0 01.174 1.666c-.025.318.148.577.138.837a30.883 30.883 0 00-.013 2.018 21.406 21.406 0 01-.384 4.655l-1.539.337c.078-.718.182-1.432.312-2.143.263-1.425.241-2.896.232-4.339-.001-.264-.095-.51-.111-.784a17.377 17.377 0 00-.189-1.706c-.069-.428-.116-1.16-.322-1.736a.227.227 0 01.003-.154.386.386 0 00-.035-.376z" fill="#A6849A"/><path d="M107.574 50.129l2.758.355a2.728 2.728 0 00-.031 1.625c.12.426.168.859.143 1.3-.014.25.132.463.134.655l.009 3.394a.242.242 0 01-.037.135.73.73 0 00-.101.316c-.066.712-.127 1.425-.185 2.138a.174.174 0 00.053.141l.039.041c.049.05.04.08-.027.094a.273.273 0 00-.146.075l-2.452.292c.298-1.54.426-3.091.384-4.654a30.888 30.888 0 01.014-2.019c.01-.26-.163-.518-.138-.836a4.57 4.57 0 00-.175-1.666c-.127-.433-.078-.922-.242-1.386z" fill="#B78F86"/><path d="M115.205 50.281c.468 2.85.711 5.541.355 8.423-.065.526-.225 1.129-.305 1.697a.059.059 0 00.025.059c.012.008.022.02.029.033.011.023.005.04-.016.052l-.088.048a27.888 27.888 0 00-3.557-.269c.082-.598.155-1.198.217-1.8.145-1.392.065-2.867.087-4.299.007-.484-.188-1.02-.15-1.444.066-.738-.229-1.252-.123-1.933.026-.167-.028-.306-.214-.31a27.01 27.01 0 003.74-.257z" fill="#E0A857"/><path d="M110.332 50.483l1.135.055c.186.004.24.142.214.31-.106.68.189 1.194.123 1.933-.038.424.157.96.15 1.444-.022 1.431.059 2.907-.087 4.3-.062.6-.135 1.2-.217 1.8l-1.466.072a.267.267 0 01.145-.074c.067-.014.077-.045.028-.094l-.04-.041a.174.174 0 01-.053-.141c.058-.714.12-1.427.185-2.139a.744.744 0 01.101-.316.242.242 0 00.037-.135l-.009-3.393c-.001-.193-.148-.406-.133-.657a3.962 3.962 0 00-.144-1.299 2.728 2.728 0 01.031-1.625z" fill="#CB9B6F"/></g><defs><clipPath id="clip0_496_14105"><path fill="#fff" d="M0 0h132v96H0z"/></clipPath></defs></svg>