<svg xmlns="http://www.w3.org/2000/svg" width="382" height="306" fill="none"><g filter="url(#filter0_b_13_334)"><path d="M0 10C0 4.477 4.477 0 10 0h327.404a10 10 0 019.87 8.395L370.79 153l10.446 70.259c1.178 7.922-7.234 14.472-15.056 12.748-14.199-3.129-33.848-3.858-47.206 10.268-12.211 12.912-10.178 31.081-6.362 43.981 2.164 7.316-3.025 15.744-10.655 15.744H10c-5.523 0-10-4.477-10-10V10z" fill="#fff" fill-opacity=".4"/><path d="M.5 10A9.5 9.5 0 0110 .5h327.404a9.499 9.499 0 019.376 7.975l23.515 144.599.001.006 10.445 70.253c.558 3.754-1.15 7.207-3.976 9.531-2.828 2.326-6.733 3.48-10.477 2.655-14.238-3.138-34.127-3.916-47.677 10.412-12.409 13.121-10.304 31.535-6.478 44.467 1.036 3.505.313 7.29-1.594 10.199-1.905 2.907-4.964 4.903-8.582 4.903H10A9.5 9.5 0 01.5 296V10z" stroke="url(#paint0_linear_13_334)"/></g><defs><linearGradient id="paint0_linear_13_334" x1="0" y1="0" x2="55.739" y2="357.22" gradientUnits="userSpaceOnUse"><stop stop-color="#fff"/><stop offset=".505" stop-color="#fff" stop-opacity="0"/><stop offset="1" stop-color="#fff"/></linearGradient><filter id="filter0_b_13_334" x="-20" y="-20" width="421.347" height="346" filterUnits="userSpaceOnUse" color-interpolation-filters="sRGB"><feFlood flood-opacity="0" result="BackgroundImageFix"/><feGaussianBlur in="BackgroundImageFix" stdDeviation="10"/><feComposite in2="SourceAlpha" operator="in" result="effect1_backgroundBlur_13_334"/><feBlend in="SourceGraphic" in2="effect1_backgroundBlur_13_334" result="shape"/></filter></defs></svg>