<svg width="148" height="148" fill="none" xmlns="http://www.w3.org/2000/svg"><path d="M71.156 2.919a3.772 3.772 0 015.442 0l12.59 13.116a3.772 3.772 0 003.588 1.059l17.606-4.156a3.77 3.77 0 014.565 2.933l3.588 17.982a3.77 3.77 0 002.423 2.812l17.099 6.143a3.772 3.772 0 012.242 4.91l-6.625 17.138a3.774 3.774 0 00.523 3.651l11.134 14.556a3.772 3.772 0 01-.767 5.334L129.841 99.18a3.771 3.771 0 00-1.53 3.367l1.576 18.31a3.772 3.772 0 01-3.544 4.089l-18.08 1.025a3.776 3.776 0 00-3.132 2.023l-8.437 16.198a3.772 3.772 0 01-5.218 1.531l-15.726-8.994a3.77 3.77 0 00-3.745 0l-15.726 8.994a3.772 3.772 0 01-5.218-1.531l-8.438-16.198a3.774 3.774 0 00-3.131-2.023l-18.08-1.025a3.772 3.772 0 01-3.544-4.089l1.575-18.31a3.772 3.772 0 00-1.529-3.367L3.191 88.397a3.772 3.772 0 01-.767-5.334l11.134-14.556a3.772 3.772 0 00.522-3.651L7.455 47.718a3.772 3.772 0 012.243-4.91l17.099-6.143a3.772 3.772 0 002.423-2.812l3.587-17.982a3.772 3.772 0 014.566-2.933l17.605 4.156a3.772 3.772 0 003.588-1.06L71.156 2.92z" fill="url(#paint0_linear_1_4780)"/><path d="M64.46 21.692l9.417-9.81 9.418 9.81a11.942 11.942 0 0011.358 3.353l13.173-3.11 2.696 13.517a11.944 11.944 0 007.674 8.902l12.859 4.62-5.001 12.936a11.942 11.942 0 001.654 11.56l8.405 10.99-11.1 8.13a11.943 11.943 0 00-4.842 10.657l1.188 13.799-13.558.768a11.943 11.943 0 00-9.915 6.406l-6.325 12.14-11.755-6.723a11.941 11.941 0 00-11.857 0l-11.755 6.723-6.325-12.14a11.943 11.943 0 00-9.915-6.406l-13.558-.768 1.187-13.799a11.941 11.941 0 00-4.841-10.658l-11.1-8.13 8.405-10.988a11.942 11.942 0 001.654-11.561L16.7 48.974l12.859-4.62a11.942 11.942 0 007.673-8.902l2.697-13.516 13.172 3.11c4.113.97 8.432-.305 11.359-3.354z" stroke="#929292" stroke-opacity=".1" stroke-width="16.34"/><path d="M24.016 75.18c0-28.257 22.907-51.163 51.163-51.163 28.257 0 51.164 22.906 51.164 51.163v1.052c0 28.257-22.907 51.163-51.164 51.163-28.256 0-51.163-22.906-51.163-51.163V75.18z" fill="#000" fill-opacity=".04"/><path d="M124.934 75.18v1.052c0 27.479-22.276 49.755-49.755 49.755-27.479 0-49.755-22.276-49.755-49.755V75.18c0-27.48 22.276-49.755 49.755-49.755 27.479 0 49.755 22.276 49.755 49.755z" stroke="#fff" stroke-opacity=".3" stroke-width="2.817"/><path d="M66.582 84.995l-9.824-9.925a2.805 2.805 0 00-1.995-.837 2.8 2.8 0 00-1.996.837 2.869 2.869 0 000 4.033L64.6 91.058a2.8 2.8 0 003.991 0l29.953-30.26a2.87 2.87 0 000-4.034 2.805 2.805 0 00-1.996-.836c-.748 0-1.467.3-1.996.836l-27.97 28.23z" fill="#fff" stroke="#FDFDFD" stroke-width=".563"/><path d="M75.266 29.441c0-2.98 2.423-5.426 5.387-5.11a50.926 50.926 0 0125.205 9.956c8.841 6.65 15.322 16.004 18.481 26.671a52.243 52.243 0 01-.946 32.542c-3.774 10.462-10.787 19.415-19.999 25.53a50.834 50.834 0 01-31.135 8.41 50.939 50.939 0 01-29.943-12.038c-8.44-7.163-14.366-16.885-16.9-27.722a52.249 52.249 0 01.975-27.373c.88-2.837 4.079-4.088 6.8-2.899 2.694 1.177 3.898 4.302 3.098 7.13a41.353 41.353 0 00-.474 20.662 41.01 41.01 0 0013.374 21.938 40.316 40.316 0 0023.698 9.528 40.231 40.231 0 0024.64-6.656c7.29-4.839 12.84-11.925 15.827-20.205a41.346 41.346 0 00.749-25.754 40.953 40.953 0 00-14.626-21.107 40.313 40.313 0 00-18.83-7.744c-2.954-.4-5.38-2.778-5.38-5.759z" fill="#fff" fill-opacity=".5"/><defs><linearGradient id="paint0_linear_1_4780" x1="25.998" y1="13.905" x2="106.949" y2="141.501" gradientUnits="userSpaceOnUse"><stop stop-color="#D2E0ED"/><stop offset=".109" stop-color="#BFC8E7"/><stop offset=".464" stop-color="#CBCDFC"/><stop offset=".74" stop-color="#C3ADCB"/><stop offset="1" stop-color="#9699B5"/></linearGradient></defs></svg>