<svg width="148" height="148" fill="none" xmlns="http://www.w3.org/2000/svg"><path d="M71.195 2.88a3.718 3.718 0 015.364 0l12.65 13.178a3.718 3.718 0 003.537 1.044l17.69-4.176a3.718 3.718 0 014.5 2.891l3.604 18.067a3.718 3.718 0 002.389 2.772l17.179 6.172a3.718 3.718 0 012.211 4.84l-6.656 17.217a3.717 3.717 0 00.515 3.6l11.186 14.623a3.717 3.717 0 01-.757 5.258l-14.791 10.833a3.718 3.718 0 00-1.508 3.319l1.583 18.395a3.718 3.718 0 01-3.493 4.031l-18.166 1.03a3.718 3.718 0 00-3.087 1.994l-8.478 16.274a3.718 3.718 0 01-5.143 1.51l-15.801-9.037a3.719 3.719 0 00-3.692 0l-15.801 9.037a3.718 3.718 0 01-5.143-1.51l-8.478-16.274a3.718 3.718 0 00-3.087-1.994l-18.166-1.03a3.719 3.719 0 01-3.494-4.031l1.584-18.395a3.718 3.718 0 00-1.508-3.319L3.146 88.366a3.718 3.718 0 01-.756-5.258l11.186-14.624a3.718 3.718 0 00.515-3.6L7.435 47.668a3.718 3.718 0 012.21-4.84l17.18-6.171a3.718 3.718 0 002.389-2.772l3.604-18.067a3.718 3.718 0 014.5-2.89l17.69 4.175a3.718 3.718 0 003.536-1.044L71.194 2.88z" fill="url(#paint0_linear_1_6702)"/><path d="M71.195 2.88a3.718 3.718 0 015.364 0l12.65 13.178a3.718 3.718 0 003.537 1.044l17.69-4.176a3.718 3.718 0 014.5 2.891l3.604 18.067a3.718 3.718 0 002.389 2.772l17.179 6.172a3.718 3.718 0 012.211 4.84l-6.656 17.217a3.717 3.717 0 00.515 3.6l11.186 14.623a3.717 3.717 0 01-.757 5.258l-14.791 10.833a3.718 3.718 0 00-1.508 3.319l1.583 18.395a3.718 3.718 0 01-3.493 4.031l-18.166 1.03a3.718 3.718 0 00-3.087 1.994l-8.478 16.274a3.718 3.718 0 01-5.143 1.51l-15.801-9.037a3.719 3.719 0 00-3.692 0l-15.801 9.037a3.718 3.718 0 01-5.143-1.51l-8.478-16.274a3.718 3.718 0 00-3.087-1.994l-18.166-1.03a3.719 3.719 0 01-3.494-4.031l1.584-18.395a3.718 3.718 0 00-1.508-3.319L3.146 88.366a3.718 3.718 0 01-.756-5.258l11.186-14.624a3.718 3.718 0 00.515-3.6L7.435 47.668a3.718 3.718 0 012.21-4.84l17.18-6.171a3.718 3.718 0 002.389-2.772l3.604-18.067a3.718 3.718 0 014.5-2.89l17.69 4.175a3.718 3.718 0 003.536-1.044L71.194 2.88z" fill="url(#paint1_linear_1_6702)" fill-opacity=".1"/><path d="M22.713 74.877c0-28.257 22.907-51.163 51.163-51.163 28.257 0 51.163 22.907 51.163 51.163v1.052c0 28.257-22.906 51.164-51.163 51.164-28.257 0-51.163-22.907-51.163-51.164v-1.052z" fill="#000" fill-opacity=".04"/><path d="M123.651 74.877v1.052c0 27.49-22.285 49.775-49.775 49.775s-49.775-22.285-49.775-49.775v-1.052c0-27.49 22.285-49.775 49.775-49.775s49.775 22.285 49.775 49.775z" stroke="#fff" stroke-opacity=".3" stroke-width="2.776"/><path opacity=".8" d="M65.445 84.744l-9.824-9.925a2.805 2.805 0 00-1.996-.837c-.749 0-1.467.301-1.996.837a2.869 2.869 0 000 4.033l11.834 11.955a2.8 2.8 0 003.992 0l29.953-30.26a2.87 2.87 0 000-4.034 2.805 2.805 0 00-1.996-.836c-.749 0-1.467.3-1.996.836l-27.97 28.23z" fill="#fff" stroke="#FDFDFD" stroke-width=".555"/><path d="M73.877 29.354c0-2.948 2.396-5.366 5.329-5.063a51.853 51.853 0 0143.393 69.332 51.858 51.858 0 01-51.766 34.014 51.852 51.852 0 01-47.422-39.846 51.856 51.856 0 011.008-27.5c.886-2.813 4.056-4.052 6.762-2.882 2.706 1.17 3.914 4.307 3.104 7.141A41.18 41.18 0 1079.2 35.038c-2.923-.381-5.323-2.736-5.323-5.684z" fill="#fff" fill-opacity=".5"/><defs><linearGradient id="paint0_linear_1_6702" x1="25.998" y1="13.906" x2="106.948" y2="141.502" gradientUnits="userSpaceOnUse"><stop stop-color="#FFE092"/><stop offset="1" stop-color="#E3A302"/></linearGradient><linearGradient id="paint1_linear_1_6702" x1="-25.262" y1="-11.445" x2="86.85" y2="188.665" gradientUnits="userSpaceOnUse"><stop stop-color="#fff"/><stop offset="1" stop-color="#fff" stop-opacity="0"/></linearGradient></defs></svg>