<svg width="511" height="508" fill="none" xmlns="http://www.w3.org/2000/svg"><path d="M379.621 359.073c65.341 0 118.311-52.996 118.311-118.37 0-65.373-52.97-118.369-118.311-118.369-65.342 0-118.312 52.996-118.312 118.369 0 65.374 52.97 118.37 118.312 118.37z" fill="#221A4E" stroke="#F6F6F6" stroke-width="16"/><path d="M256.757 249.809c65.342 0 118.312-52.996 118.312-118.369 0-65.374-52.97-118.37-118.312-118.37S138.445 66.066 138.445 131.44c0 65.373 52.97 118.369 118.312 118.369z" fill="url(#paint0_linear_501_14455)" stroke="#F6F6F6" stroke-width="16"/><path d="M132.378 359.073c65.342 0 118.312-52.996 118.312-118.37 0-65.373-52.97-118.369-118.312-118.369-65.341 0-118.312 52.996-118.312 118.369 0 65.374 52.97 118.37 118.312 118.37z" fill="#AF79E6" stroke="#F6F6F6" stroke-width="16"/><path d="M256.757 497.929c65.342 0 118.312-52.995 118.312-118.369s-52.97-118.37-118.312-118.37-118.312 52.996-118.312 118.37 52.97 118.369 118.312 118.369z" fill="#A244FF" stroke="#F6F6F6" stroke-width="16"/><path fill-rule="evenodd" clip-rule="evenodd" d="M255.367 246.316c63.664-5.449 113.638-58.877 113.638-123.982 0-1.881-.042-3.752-.124-5.613a125.94 125.94 0 0110.741-.457c68.693 0 124.379 55.713 124.379 124.439 0 68.727-55.686 124.44-124.379 124.44-66.813 0-121.321-52.705-124.255-118.827z" fill="#221A4E"/><mask id="a" style="mask-type:luminance" maskUnits="userSpaceOnUse" x="255" y="116" width="249" height="250"><path fill-rule="evenodd" clip-rule="evenodd" d="M255.367 246.316c63.664-5.449 113.638-58.877 113.638-123.982 0-1.881-.042-3.752-.124-5.613a125.94 125.94 0 0110.741-.457c68.693 0 124.379 55.713 124.379 124.439 0 68.727-55.686 124.44-124.379 124.44-66.813 0-121.321-52.705-124.255-118.827z" fill="#F6F6F6"/></mask><g mask="url(#a)"><path d="M255.365 246.316l-1.034-12.097-11.604.994.516 11.641 12.122-.538zm113.514-129.595l-1.035-12.096-11.604.993.517 11.642 12.122-.539zm-12.01 5.613c0 58.747-45.098 106.97-102.538 111.885l2.069 24.193c69.887-5.981 124.738-64.614 124.738-136.078h-24.269zm-.112-5.074c.074 1.68.112 3.373.112 5.074h24.269a138 138 0 00-.137-6.151l-24.244 1.077zm13.156 11.557c3.197-.273 6.435-.413 9.707-.413v-24.281c-3.964 0-7.892.169-11.776.502l2.069 24.192zm9.707-.413c61.991 0 112.245 50.278 112.245 112.299h24.269c0-75.431-61.119-136.58-136.514-136.58v24.281zm112.245 112.299c0 62.021-50.254 112.299-112.245 112.299v24.281c75.395 0 136.514-61.149 136.514-136.58h-24.269zM379.62 353.002c-60.291 0-109.485-47.564-112.132-107.225l-24.245 1.077c3.22 72.582 63.043 130.429 136.377 130.429v-24.281z" fill="#F6F6F6"/></g><path d="M230.263 108.284c0 .261-.154.392-.462.392h-2.035c-.231 0-.48-.08-.747-.24a1.946 1.946 0 01-.622-.596l-1.564-2.481c-.373-.604-.75-1.058-1.129-1.36-.379-.308-.836-.462-1.369-.462h-1.91v4.321a.786.786 0 01-.249.586.812.812 0 01-.587.232h-1.671a.811.811 0 01-.595-.249.842.842 0 01-.249-.605V96.77c0-.231.083-.433.249-.605a.797.797 0 01.595-.258h1.671a.77.77 0 01.587.258.845.845 0 01.249.605v4.259h1.91c.522 0 .978-.143 1.369-.427.397-.285.774-.744 1.129-1.378l1.378-2.454c.314-.57.74-.857 1.279-.863h2.053c.285 0 .427.125.427.374 0 .136-.051.3-.151.489l-1.928 3.494c-.279.51-.593.931-.943 1.263-.344.332-.794.566-1.351.702.392.083.791.33 1.2.739.415.409.779.853 1.094 1.333l2.221 3.539c.101.172.151.32.151.444zm1.938-.711c-.925-.853-1.387-2.11-1.387-3.77 0-1.665.462-2.922 1.387-3.77.924-.854 2.251-1.28 3.981-1.28 1.736 0 3.067.426 3.991 1.28.925.848 1.386 2.105 1.386 3.77 0 1.66-.461 2.917-1.386 3.77-.924.854-2.255 1.28-3.991 1.28-1.73 0-3.057-.426-3.981-1.28zm2.248-6.082c-.367.48-.551 1.248-.551 2.303s.184 1.826.551 2.312c.367.486.945.729 1.733.729.794 0 1.375-.243 1.742-.729.374-.486.56-1.257.56-2.312s-.186-1.823-.56-2.303c-.367-.48-.948-.72-1.742-.72-.788 0-1.366.24-1.733.72zm8.755 6.642V96.476a.53.53 0 01.542-.551h1.991c.154 0 .281.053.382.16.106.1.16.231.16.391v11.657a.537.537 0 01-.16.392.517.517 0 01-.382.151h-1.991a.548.548 0 01-.391-.151.55.55 0 01-.151-.392zm5.261 0V96.476a.533.533 0 01.542-.551h1.991c.154 0 .281.053.382.16.107.1.16.231.16.391v11.657a.533.533 0 01-.542.543h-1.991a.548.548 0 01-.391-.151.554.554 0 01-.151-.392zm5.884-.098c-.782-.544-1.174-1.315-1.174-2.312 0-.995.392-1.76 1.174-2.293.788-.534 1.801-.801 3.039-.801h2.942c0-.693-.145-1.177-.435-1.449-.291-.272-.8-.409-1.529-.409-.723 0-1.233.181-1.529.542-.29.356-.649.534-1.075.534h-1.325a.557.557 0 01-.399-.151.55.55 0 01-.151-.392c0-1.7 1.614-2.551 4.844-2.551 1.41 0 2.541.317 3.394.951.853.628 1.28 1.603 1.28 2.925v5.504a.53.53 0 01-.151.392.527.527 0 01-.391.151h-1.715a.53.53 0 01-.392-.151.554.554 0 01-.151-.392v-.275c-.935.67-2.017 1.002-3.243.995-1.221 0-2.225-.272-3.013-.818zm3.252-3.387c-.414 0-.743.1-.986.302a.978.978 0 00-.355.783c0 .32.124.584.373.791.249.208.601.311 1.057.311.913 0 1.793-.266 2.64-.8v-1.387h-2.729zm7.999-8.172a.533.533 0 01.543-.551h1.99c.154 0 .282.053.383.16.107.1.16.231.16.391v2.73c.959-.302 1.815-.453 2.568-.453 1.457 0 2.616.435 3.475 1.307.859.865 1.289 2.116 1.289 3.752 0 3.362-1.882 5.041-5.644 5.041-.859 0-1.751-.094-2.675-.284-.918-.195-1.615-.433-2.089-.711V96.476zm3.076 4.784v5.247c.509.135 1.158.204 1.946.204s1.353-.229 1.698-.685c.349-.457.524-1.194.524-2.214s-.172-1.758-.516-2.214c-.337-.463-.912-.694-1.724-.694-.521 0-1.164.119-1.928.356zm8.976-4.188v-.302c0-.314.089-.564.266-.748.185-.183.436-.275.756-.275h1.103c.313 0 .562.092.746.275.183.179.275.428.275.748v.302c0 .314-.092.563-.275.746-.178.185-.427.277-.746.277h-1.103c-.314 0-.563-.092-.746-.276-.184-.184-.276-.433-.276-.747zm.036 11.061v-8.438c0-.16.05-.29.151-.391a.549.549 0 01.39-.151h1.992c.159 0 .29.053.391.16.1.1.15.228.15.382v8.438c0 .16-.053.291-.16.392a.513.513 0 01-.381.151h-1.992a.528.528 0 01-.39-.151.53.53 0 01-.151-.392zm5.297-3.556v-5.095a.53.53 0 01.542-.552h1.991c.154 0 .281.054.382.16.106.101.16.232.16.392v5.095c0 1.423.563 2.134 1.688 2.134.741 0 1.538-.427 2.391-1.28v-5.95a.53.53 0 01.542-.55h1.982c.16 0 .291.053.391.16.107.1.16.23.16.39v8.652a.533.533 0 01-.551.543h-1.982a.548.548 0 01-.391-.151.55.55 0 01-.151-.392v-.569c-1.019.86-2.106 1.289-3.261 1.289-1.15 0-2.086-.349-2.809-1.048-.723-.706-1.084-1.782-1.084-3.228zm12.425 3.556v-8.651a.53.53 0 01.542-.552h1.991c.16 0 .29.054.39.16a.53.53 0 01.152.392v.56c.426-.415.844-.733 1.253-.952.415-.225.912-.337 1.493-.337 1.38 0 2.426.569 3.137 1.707 1.102-1.144 2.231-1.713 3.386-1.707 1.161 0 2.077.35 2.746 1.049.676.694 1.014 1.769 1.014 3.228v5.103a.53.53 0 01-.151.392.53.53 0 01-.392.151h-1.981a.558.558 0 01-.4-.151.55.55 0 01-.151-.392v-5.103c0-1.423-.516-2.132-1.547-2.126-.628 0-1.276.453-1.946 1.361.036.255.053.51.053.765v5.103c0 .16-.053.291-.16.392a.515.515 0 01-.382.151h-1.982a.56.56 0 01-.4-.151.55.55 0 01-.151-.392v-5.103c0-1.423-.515-2.132-1.546-2.126-.658 0-1.289.424-1.893 1.272v5.957c0 .16-.054.291-.16.392a.517.517 0 01-.382.151h-1.991a.527.527 0 01-.391-.151.53.53 0 01-.151-.392zm-45.417 43.035c-.691 0-1.078-.312-1.161-.934 0-.305.145-.643.435-1.017l10.452-13.34-9.85-12.491c-.291-.359-.436-.698-.436-1.016 0-.637.38-.955 1.141-.955h4.459c1.382 0 2.592.657 3.629 1.971l5.682 7.22 5.682-7.22c1.023-1.3 2.233-1.957 3.629-1.971h4.458c.761 0 1.141.318 1.141.955 0 .304-.145.643-.435 1.016l-9.85 12.491 10.451 13.34c.291.36.436.65.436.872 0 .221-.028.38-.083.477-.153.401-.512.602-1.079.602h-4.417c-1.382 0-2.585-.651-3.608-1.951l-6.325-8.071-6.325 8.071c-1.023 1.3-2.226 1.951-3.609 1.951h-4.417zm-7.345 252.641v-1.95c0-.568.187-1.037.56-1.411.387-.374.85-.56 1.39-.56h24.221c.539 0 .996.186 1.369.56.387.374.581.843.581 1.411v2.323a3.78 3.78 0 01-.374 1.639c-.234.526-.456.899-.664 1.121l-.912.933-16.32 15.894h16.528c.566 0 1.03.186 1.389.56.373.373.56.843.56 1.41v1.951c0 .567-.187 1.037-.56 1.411-.359.359-.823.539-1.389.539H244.95c-.539 0-1.002-.18-1.389-.539-.374-.374-.561-.844-.561-1.411v-2.303c0-1.328.65-2.642 1.95-3.942l15.802-15.686h-16.154c-.54 0-1.003-.18-1.39-.539-.373-.374-.56-.844-.56-1.411zm-19.967-17.052c0 .261-.154.392-.462.392h-2.035c-.231 0-.48-.08-.747-.24a1.938 1.938 0 01-.622-.597l-1.564-2.48c-.373-.605-.75-1.059-1.129-1.361-.379-.308-.836-.462-1.369-.462h-1.91v4.322a.786.786 0 01-.249.586.816.816 0 01-.587.232h-1.671a.811.811 0 01-.595-.249.845.845 0 01-.249-.605v-11.052a.84.84 0 01.249-.605.798.798 0 01.595-.258h1.671c.231 0 .427.086.587.258a.845.845 0 01.249.605v4.259h1.91c.522 0 .978-.143 1.369-.428.397-.284.774-.743 1.129-1.378l1.378-2.453c.314-.57.74-.857 1.279-.863h2.053c.285 0 .427.124.427.373 0 .137-.051.3-.151.49l-1.928 3.494c-.279.51-.593.931-.943 1.262-.344.333-.794.566-1.351.703.392.083.791.329 1.2.738.415.409.779.854 1.094 1.333l2.221 3.539c.101.173.151.321.151.445zm1.938-.711c-.925-.854-1.387-2.11-1.387-3.77 0-1.666.462-2.922 1.387-3.771.924-.853 2.251-1.28 3.981-1.28 1.736 0 3.067.427 3.991 1.28.925.849 1.386 2.105 1.386 3.771 0 1.66-.461 2.916-1.386 3.77-.924.854-2.255 1.28-3.991 1.28-1.73 0-3.057-.426-3.981-1.28zm2.248-6.082c-.367.48-.551 1.248-.551 2.303s.184 1.826.551 2.312c.367.486.945.729 1.733.729.794 0 1.375-.243 1.742-.729.374-.486.56-1.257.56-2.312s-.186-1.823-.56-2.303c-.367-.481-.948-.72-1.742-.72-.788 0-1.366.239-1.733.72zm8.755 6.642v-11.657a.53.53 0 01.542-.552h1.991c.154 0 .281.054.382.16.106.101.16.232.16.392v11.657a.537.537 0 01-.16.392.52.52 0 01-.382.151h-1.991a.552.552 0 01-.391-.151.55.55 0 01-.151-.392zm5.261 0v-11.657a.535.535 0 01.542-.552h1.991c.154 0 .281.054.382.16.107.101.16.232.16.392v11.657a.533.533 0 01-.542.543h-1.991a.552.552 0 01-.391-.151.554.554 0 01-.151-.392zm5.884-.098c-.782-.545-1.174-1.316-1.174-2.312 0-.995.392-1.76 1.174-2.294.788-.533 1.801-.8 3.039-.8h2.942c0-.694-.145-1.177-.435-1.449-.291-.273-.8-.409-1.529-.409-.723 0-1.233.18-1.529.542-.29.356-.649.534-1.075.534h-1.325a.561.561 0 01-.399-.151.55.55 0 01-.151-.392c0-1.701 1.614-2.552 4.844-2.552 1.409 0 2.541.317 3.394.952.853.628 1.28 1.603 1.28 2.925v5.504a.53.53 0 01-.151.392.53.53 0 01-.391.151h-1.715a.535.535 0 01-.392-.151.554.554 0 01-.151-.392v-.275c-.935.67-2.017 1.001-3.243.995-1.221 0-2.225-.272-3.013-.818zm3.252-3.388c-.415 0-.743.101-.986.303a.977.977 0 00-.355.782c0 .32.124.585.373.792.249.208.601.311 1.057.311.913 0 1.793-.267 2.64-.8v-1.388h-2.729zm7.999-8.171a.535.535 0 01.543-.552h1.99c.154 0 .282.054.383.16.107.101.16.232.16.392v2.73c.959-.303 1.815-.454 2.568-.454 1.457 0 2.616.436 3.475 1.308.859.865 1.289 2.116 1.289 3.752 0 3.361-1.882 5.041-5.644 5.041-.859 0-1.751-.095-2.675-.284-.918-.195-1.615-.433-2.089-.711v-11.382zm3.076 4.784v5.246c.509.136 1.158.204 1.946.204s1.353-.228 1.698-.684c.349-.457.524-1.194.524-2.214s-.172-1.758-.516-2.214c-.337-.463-.912-.694-1.724-.694-.522 0-1.164.119-1.928.356zm8.976-4.188v-.302c0-.315.089-.564.266-.748.185-.183.436-.275.756-.275h1.102c.314 0 .563.092.747.275.183.178.275.427.275.748v.302c0 .314-.092.563-.275.746-.178.185-.427.276-.747.276h-1.102c-.314 0-.563-.091-.747-.276-.183-.183-.275-.432-.275-.746zm.036 11.061v-8.438c0-.16.05-.291.151-.392a.55.55 0 01.39-.151h1.992c.159 0 .29.054.39.16a.52.52 0 01.151.383v8.438c0 .16-.053.291-.16.392-.1.1-.227.151-.381.151h-1.992a.531.531 0 01-.39-.151.53.53 0 01-.151-.392zm5.297-3.556v-5.096a.531.531 0 01.542-.551h1.991c.154 0 .281.054.382.16.106.101.16.231.16.391v5.096c0 1.422.563 2.133 1.688 2.133.741 0 1.538-.426 2.391-1.28v-5.949a.528.528 0 01.542-.551h1.982c.16 0 .291.054.391.16.107.101.16.231.16.391v8.652a.533.533 0 01-.551.543h-1.982a.55.55 0 01-.391-.151.55.55 0 01-.151-.392v-.569c-1.019.86-2.106 1.289-3.262 1.289-1.149 0-2.085-.35-2.808-1.049-.723-.705-1.084-1.781-1.084-3.227zm12.425 3.556v-8.652a.528.528 0 01.542-.551h1.991c.16 0 .29.054.39.16a.529.529 0 01.152.391v.56c.426-.415.844-.732 1.253-.951.415-.225.912-.338 1.493-.338 1.38 0 2.426.569 3.137 1.707 1.102-1.144 2.231-1.713 3.386-1.707 1.161 0 2.077.35 2.746 1.05.676.693 1.014 1.769 1.014 3.227v5.104a.53.53 0 01-.151.392.535.535 0 01-.392.151h-1.981a.562.562 0 01-.4-.151.55.55 0 01-.151-.392v-5.104c0-1.422-.516-2.131-1.547-2.125-.628 0-1.276.453-1.946 1.361.035.255.053.51.053.764v5.104c0 .16-.053.291-.16.392a.52.52 0 01-.382.151h-1.982a.563.563 0 01-.4-.151.55.55 0 01-.151-.392v-5.104c0-1.422-.515-2.131-1.546-2.125-.658 0-1.289.424-1.893 1.272v5.957c0 .16-.054.291-.16.392a.52.52 0 01-.382.151h-1.991a.53.53 0 01-.391-.151.53.53 0 01-.151-.392zM101.699 239.264c0-.664.36-.996 1.079-.996h3.94c1.562 0 2.765.657 3.608 1.971l6.719 10.353 6.698-10.353c.857-1.314 2.06-1.971 3.609-1.971h3.961c.704 0 1.057.332 1.057.996 0 .304-.111.629-.331.975l-11.095 17.158v8.714c0 .539-.194.996-.581 1.37a1.9 1.9 0 01-1.368.539h-3.899c-.539 0-1.003-.18-1.39-.539a1.833 1.833 0 01-.581-1.37v-8.714l-11.073-17.158c-.235-.346-.353-.671-.353-.975zm-18.564-14.127c0 .261-.154.391-.463.391h-2.035c-.23 0-.48-.079-.746-.239a1.944 1.944 0 01-.623-.597l-1.564-2.48c-.373-.605-.75-1.059-1.128-1.361-.38-.308-.836-.462-1.37-.462h-1.91v4.321a.783.783 0 01-.249.587.814.814 0 01-.587.231h-1.67a.812.812 0 01-.596-.248.846.846 0 01-.249-.605v-11.053a.84.84 0 01.25-.604.795.795 0 01.595-.258h1.67c.232 0 .427.085.587.258a.84.84 0 01.249.604v4.259h1.91c.522 0 .978-.142 1.37-.427.396-.284.773-.743 1.128-1.378l1.378-2.454c.314-.569.74-.856 1.28-.862h2.053c.284 0 .426.124.426.373 0 .137-.05.3-.15.489l-1.93 3.495c-.278.51-.592.931-.942 1.262-.343.333-.794.566-1.35.703.39.083.79.329 1.2.738a8.16 8.16 0 011.093 1.333l2.221 3.539c.101.173.151.32.151.445zm1.937-.711c-.925-.854-1.386-2.11-1.386-3.77 0-1.666.461-2.922 1.386-3.771.924-.853 2.252-1.28 3.982-1.28 1.736 0 3.066.427 3.99 1.28.925.849 1.387 2.105 1.387 3.771 0 1.66-.462 2.916-1.387 3.77-.924.854-2.254 1.28-3.99 1.28-1.73 0-3.058-.426-3.982-1.28zm2.249-6.082c-.367.48-.552 1.248-.552 2.302 0 1.056.185 1.827.552 2.312.367.487.945.73 1.733.73.794 0 1.375-.243 1.742-.73.373-.485.56-1.256.56-2.312 0-1.054-.187-1.822-.56-2.302-.367-.481-.948-.721-1.742-.721-.788 0-1.366.24-1.733.721zm8.754 6.642v-11.657a.53.53 0 01.542-.552h1.991c.154 0 .281.054.382.16.107.101.16.232.16.392v11.657a.534.534 0 01-.542.542h-1.99a.548.548 0 01-.392-.151.548.548 0 01-.151-.391zm5.261 0v-11.657a.531.531 0 01.542-.552h1.991c.154 0 .282.054.382.16.107.101.16.232.16.392v11.657a.531.531 0 01-.542.542h-1.991a.544.544 0 01-.39-.151.548.548 0 01-.152-.391zm5.884-.098c-.782-.545-1.173-1.316-1.173-2.312 0-.995.391-1.76 1.173-2.294.788-.533 1.801-.8 3.039-.8h2.942c0-.694-.144-1.177-.435-1.45-.29-.272-.8-.409-1.529-.409-.723 0-1.232.181-1.529.543-.29.356-.648.533-1.075.533h-1.324a.558.558 0 01-.4-.151.548.548 0 01-.151-.391c0-1.701 1.615-2.552 4.844-2.552 1.41 0 2.541.317 3.395.952.853.628 1.28 1.603 1.28 2.925v5.504c0 .16-.051.291-.152.391a.527.527 0 01-.391.151h-1.715a.527.527 0 01-.391-.151.548.548 0 01-.151-.391v-.276c-.936.67-2.018 1.002-3.244.996-1.22 0-2.225-.272-3.013-.818zm3.253-3.388c-.415 0-.744.101-.987.303a.977.977 0 00-.355.782c0 .32.124.584.373.792.249.207.602.311 1.057.311.913 0 1.793-.267 2.64-.8V221.5h-2.728zm7.999-8.171c0-.16.05-.291.15-.392a.537.537 0 01.392-.16h1.991c.154 0 .281.054.382.16.107.101.16.232.16.392v2.73c.959-.303 1.816-.454 2.569-.454 1.457 0 2.615.436 3.475 1.307.858.866 1.288 2.117 1.288 3.753 0 3.361-1.881 5.041-5.644 5.041-.858 0-1.75-.095-2.675-.285-.918-.195-1.614-.432-2.088-.711v-11.381zm3.075 4.784v5.246c.51.136 1.158.204 1.946.204s1.354-.228 1.698-.684c.349-.457.524-1.195.524-2.214 0-1.02-.172-1.758-.516-2.214-.337-.463-.912-.694-1.723-.694-.522 0-1.165.118-1.929.356zm8.976-4.189v-.302c0-.314.089-.563.267-.747.184-.184.436-.275.755-.275h1.103c.314 0 .562.091.746.275.184.178.275.427.275.747v.302c0 .315-.091.563-.275.747-.177.184-.427.276-.746.276h-1.103c-.314 0-.563-.092-.746-.276-.184-.184-.276-.432-.276-.747zm.036 11.062v-8.438c0-.161.05-.291.151-.392a.552.552 0 01.391-.151h1.991c.159 0 .29.054.391.16a.52.52 0 01.151.383v8.438c0 .16-.053.291-.16.391a.515.515 0 01-.382.151h-1.991c-.16 0-.29-.05-.391-.151a.527.527 0 01-.151-.391zm5.297-3.556v-5.096a.528.528 0 01.542-.551h1.991c.154 0 .281.054.382.16.106.101.16.231.16.391v5.096c0 1.422.563 2.133 1.688 2.133.741 0 1.538-.426 2.392-1.28v-5.949a.528.528 0 01.541-.551h1.983c.16 0 .29.054.39.16.107.101.16.231.16.391v8.652a.531.531 0 01-.55.542h-1.983a.544.544 0 01-.39-.151.548.548 0 01-.151-.391v-.569c-1.02.86-2.107 1.289-3.262 1.289-1.15 0-2.086-.35-2.809-1.049-.722-.705-1.084-1.781-1.084-3.227zm12.425 3.556v-8.652a.528.528 0 01.542-.551h1.991a.532.532 0 01.542.551v.56c.426-.415.844-.732 1.253-.951.415-.226.912-.338 1.493-.338 1.381 0 2.427.569 3.137 1.707 1.102-1.144 2.231-1.713 3.386-1.707 1.162 0 2.077.35 2.747 1.05.675.693 1.013 1.769 1.013 3.227v5.104c0 .16-.05.291-.151.391a.528.528 0 01-.391.151h-1.982a.558.558 0 01-.4-.151.548.548 0 01-.151-.391v-5.104c0-1.422-.515-2.131-1.547-2.125-.628 0-1.276.453-1.946 1.361.036.254.053.509.053.764v5.104c0 .16-.053.291-.16.391a.513.513 0 01-.381.151h-1.983a.555.555 0 01-.399-.151.548.548 0 01-.151-.391v-5.104c0-1.422-.516-2.131-1.547-2.125-.658 0-1.289.423-1.893 1.272v5.957c0 .16-.054.291-.16.391a.517.517 0 01-.382.151h-1.991c-.16 0-.29-.05-.391-.151a.527.527 0 01-.151-.391zm204.845 7.739c0 .261-.154.391-.462.391h-2.035c-.231 0-.48-.079-.746-.239a1.938 1.938 0 01-.622-.597l-1.565-2.48c-.373-.605-.749-1.059-1.128-1.361-.38-.308-.836-.462-1.369-.462h-1.911v4.321a.783.783 0 01-.249.587.813.813 0 01-.587.231h-1.67a.808.808 0 01-.596-.249.84.84 0 01-.248-.604V221.21c0-.231.082-.433.248-.604a.795.795 0 01.596-.258h1.67c.232 0 .427.085.587.258a.84.84 0 01.249.604v4.259h1.911c.521 0 .977-.142 1.369-.427.396-.284.773-.743 1.128-1.378l1.378-2.454c.314-.569.74-.856 1.28-.862h2.053c.284 0 .426.124.426.373 0 .137-.05.3-.151.489l-1.928 3.495a5.082 5.082 0 01-.943 1.262c-.343.332-.794.566-1.35.703.391.082.791.329 1.199.738.415.409.779.854 1.094 1.333l2.221 3.539c.101.172.151.32.151.445zm1.938-.711c-.925-.854-1.386-2.11-1.386-3.771 0-1.665.461-2.922 1.386-3.77.924-.854 2.252-1.28 3.982-1.28 1.736 0 3.066.426 3.99 1.28.925.848 1.387 2.105 1.387 3.77 0 1.661-.462 2.917-1.387 3.771-.924.853-2.254 1.28-3.99 1.28-1.73 0-3.058-.427-3.982-1.28zm2.249-6.083c-.367.481-.552 1.249-.552 2.303 0 1.056.185 1.827.552 2.312.367.487.945.73 1.733.73.794 0 1.375-.243 1.742-.73.373-.485.559-1.256.559-2.312 0-1.054-.186-1.822-.559-2.303-.367-.48-.948-.72-1.742-.72-.788 0-1.366.24-1.733.72zm8.754 6.643v-11.657a.53.53 0 01.542-.552h1.991c.154 0 .281.054.382.16.106.101.16.232.16.392v11.657a.535.535 0 01-.542.542h-1.991a.548.548 0 01-.391-.151.548.548 0 01-.151-.391zm5.261 0v-11.657a.531.531 0 01.542-.552h1.991c.154 0 .282.054.382.16.107.101.16.232.16.392v11.657a.531.531 0 01-.542.542h-1.991a.544.544 0 01-.39-.151.548.548 0 01-.152-.391zm5.884-.098c-.782-.545-1.173-1.316-1.173-2.312 0-.996.391-1.76 1.173-2.294.788-.533 1.801-.8 3.04-.8h2.941c0-.694-.144-1.177-.435-1.45-.29-.272-.8-.409-1.529-.409-.723 0-1.232.181-1.529.543-.29.356-.648.533-1.075.533h-1.324a.56.56 0 01-.4-.151.548.548 0 01-.151-.391c0-1.701 1.615-2.552 4.844-2.552 1.41 0 2.541.317 3.395.952.853.628 1.28 1.603 1.28 2.925v5.504c0 .16-.051.29-.152.391a.525.525 0 01-.391.151h-1.715c-.16 0-.29-.05-.391-.151a.552.552 0 01-.151-.391v-.276c-.936.67-2.018 1.002-3.244.996-1.22 0-2.225-.273-3.013-.818zm3.253-3.388c-.415 0-.744.101-.987.303a.977.977 0 00-.355.782c0 .32.124.584.373.791.249.208.602.312 1.057.312.914 0 1.793-.267 2.64-.8v-1.388h-2.728zm7.999-8.171a.53.53 0 01.542-.552h1.991c.154 0 .281.054.382.16.107.101.16.232.16.392v2.73c.959-.303 1.816-.454 2.569-.454 1.457 0 2.615.436 3.475 1.307.858.865 1.288 2.117 1.288 3.753 0 3.361-1.881 5.041-5.644 5.041-.858 0-1.75-.095-2.675-.285-.918-.195-1.614-.432-2.088-.711v-11.381zm3.075 4.784v5.246c.51.136 1.158.204 1.946.204s1.354-.228 1.698-.684c.349-.457.524-1.195.524-2.214 0-1.02-.172-1.759-.516-2.215-.337-.462-.912-.693-1.723-.693-.522 0-1.165.118-1.929.356zm8.977-4.189v-.302c0-.314.088-.563.266-.747.184-.184.436-.275.755-.275h1.103c.314 0 .563.091.746.275.184.178.275.427.275.747v.302c0 .314-.091.563-.275.747-.177.184-.427.276-.746.276h-1.103c-.314 0-.563-.092-.746-.276-.184-.184-.275-.433-.275-.747zm.035 11.062v-8.439c0-.16.05-.29.151-.391a.552.552 0 01.391-.151h1.991c.159 0 .29.054.391.16a.517.517 0 01.151.382v8.439c0 .16-.053.29-.16.391a.515.515 0 01-.382.151h-1.991c-.16 0-.29-.05-.391-.151a.528.528 0 01-.151-.391zm5.297-3.557v-5.095a.528.528 0 01.542-.551h1.991c.154 0 .281.053.382.16.106.101.16.231.16.391v5.095c0 1.423.563 2.134 1.688 2.134.741 0 1.538-.426 2.392-1.28v-5.949a.528.528 0 01.541-.551h1.983c.16 0 .29.053.39.16.107.101.16.231.16.391v8.652a.531.531 0 01-.55.542h-1.983a.544.544 0 01-.39-.151.548.548 0 01-.151-.391v-.569c-1.02.859-2.107 1.289-3.262 1.289-1.15 0-2.086-.35-2.809-1.049-.722-.705-1.084-1.781-1.084-3.228zm12.425 3.557v-8.652a.528.528 0 01.542-.551h1.991a.532.532 0 01.542.551v.56c.426-.415.844-.732 1.253-.951.415-.226.912-.338 1.493-.338 1.381 0 2.427.569 3.137 1.707 1.102-1.144 2.231-1.713 3.387-1.707 1.161 0 2.076.35 2.746 1.049.675.694 1.013 1.77 1.013 3.228v5.104c0 .16-.05.29-.151.391a.528.528 0 01-.391.151h-1.982a.558.558 0 01-.4-.151.548.548 0 01-.151-.391v-5.104c0-1.422-.515-2.131-1.547-2.125-.628 0-1.276.453-1.946 1.36.036.255.053.51.053.765v5.104c0 .16-.053.29-.16.391a.513.513 0 01-.381.151h-1.983a.557.557 0 01-.399-.151.548.548 0 01-.151-.391v-5.104c0-1.422-.516-2.131-1.547-2.125-.658 0-1.289.423-1.893 1.272v5.957c0 .16-.054.29-.16.391a.517.517 0 01-.382.151h-1.991c-.16 0-.29-.05-.391-.151a.528.528 0 01-.151-.391zm-96.533 41.125l5.205-19.752c1.41-5.38 5.999-8.078 13.769-8.092h11.178c.512 0 .933.194 1.265.582.346.387.519.837.519 1.348v25.914c0 .539-.194.996-.581 1.369a1.97 1.97 0 01-1.39.54h-3.898c-.567 0-1.037-.18-1.411-.54-.359-.373-.539-.843-.539-1.41v-5.229h-14.744l-1.39 5.229a2.482 2.482 0 01-.933 1.41c-.484.36-.995.54-1.534.54h-4.086c-.539 0-.926-.153-1.161-.457-.235-.318-.353-.594-.353-.829.014-.235.042-.443.084-.623zm10.907-11.141h13.21v-10.831h-5.91c-1.327 0-2.489.381-3.484 1.141-.982.748-1.645 1.757-1.99 3.029l-1.826 6.661zm26.544 11.784v-27.2a1.241 1.241 0 011.265-1.287h4.646c.359 0 .657.125.892.374.248.235.373.539.373.913v27.2c0 .36-.125.664-.373.913a1.21 1.21 0 01-.892.353h-4.646a1.28 1.28 0 01-.912-.353 1.28 1.28 0 01-.353-.913zm12.278 6.992v-27.179c0-.374.117-.678.352-.914.249-.248.553-.373.913-.373h4.002c.359 0 .657.125.892.373.248.236.373.54.373.914v.622c2.184-1.549 4.721-2.324 7.61-2.324 2.89 0 5.302 1.024 7.238 3.071 1.935 2.033 2.903 4.952 2.903 8.755 0 3.79-1.002 6.695-3.006 8.715-2.005 2.019-4.708 3.029-8.109 3.029-1.756 0-3.754-.353-5.993-1.059v6.37c0 .374-.124.678-.373.913a1.175 1.175 0 01-.892.374h-4.645c-.36 0-.664-.125-.913-.374-.235-.235-.352-.539-.352-.913zm7.175-11.162c1.783.567 3.283.851 4.5.851 1.894 0 3.235-.54 4.023-1.619.802-1.079 1.203-2.8 1.203-5.166 0-2.365-.38-4.08-1.141-5.146-.746-1.079-1.873-1.617-3.38-1.617-1.493 0-3.228.622-5.205 1.866v10.831zm20.945 4.17v-27.2c0-.374.117-.678.353-.913.248-.249.552-.374.912-.374h4.645c.36 0 .657.125.892.374.249.235.373.539.373.913v8.32c2.378-2.006 4.908-3.009 7.59-3.009 2.696 0 4.888.823 6.574 2.469 1.687 1.632 2.53 4.136 2.53 7.511v11.909c0 .36-.124.664-.374.913-.234.235-.538.353-.912.353h-4.624c-.359 0-.664-.118-.912-.353a1.28 1.28 0 01-.353-.913v-11.909c0-3.306-1.32-4.958-3.961-4.958-1.729 0-3.581.988-5.558 2.966v13.901c0 .36-.124.664-.373.913a1.209 1.209 0 01-.892.353h-4.645c-.36 0-.664-.118-.912-.353a1.276 1.276 0 01-.353-.913zm30.443-.228c-1.825-1.273-2.738-3.071-2.738-5.394 0-2.324.913-4.108 2.738-5.353 1.839-1.245 4.203-1.868 7.092-1.868h6.865c0-1.618-.34-2.745-1.017-3.382-.677-.636-1.866-.954-3.567-.954-1.686 0-2.875.422-3.566 1.265-.678.831-1.514 1.246-2.51 1.246h-3.09c-.373 0-.684-.118-.933-.353a1.28 1.28 0 01-.352-.913c0-3.97 3.767-5.955 11.302-5.955 3.29 0 5.93.741 7.921 2.22 1.991 1.466 2.987 3.742 2.987 6.826v12.843c0 .374-.118.678-.353.913s-.539.353-.912.353h-4.002c-.374 0-.678-.118-.913-.353a1.28 1.28 0 01-.352-.913v-.643c-2.185 1.563-4.708 2.338-7.57 2.324-2.848 0-5.191-.637-7.03-1.909zm7.59-7.905c-.968 0-1.735.235-2.302.706-.553.47-.829 1.079-.829 1.825 0 .748.29 1.363.871 1.847s1.403.726 2.467.726c2.129 0 4.182-.622 6.16-1.867v-3.237h-6.367z" fill="#F6F6F6"/><defs><linearGradient id="paint0_linear_501_14455" x1="132.378" y1="130.319" x2="381.136" y2="130.319" gradientUnits="userSpaceOnUse"><stop stop-color="#FFC208"/><stop offset="1" stop-color="#FF8E75"/></linearGradient></defs></svg>